<?xml version="1.0" encoding="utf-8"?>
<!-- Generator: Adobe Illustrator 19.0.1, SVG Export Plug-In . SVG Version: 6.00 Build 0)  -->
<svg version="1.1" id="Layer_1" xmlns="http://www.w3.org/2000/svg" xmlns:xlink="http://www.w3.org/1999/xlink" x="0px" y="0px"
	 viewBox="0 0 55 55" style="enable-background:new 0 0 55 55;" xml:space="preserve">
<style type="text/css">
	.st0{fill:#FFFFFF;}
	.st1{fill:none;stroke:#FFFFFF;stroke-width:1.5;stroke-linecap:round;stroke-miterlimit:10;}
</style>
<g>
	<g>
		<path class="st0" d="M27.4,2.7c7,0,12.8,7.1,12.8,15.8s-5.7,15.8-12.8,15.8s-12.8-7.1-12.8-15.8c0-4.2,1.3-8.2,3.7-11.2
			C20.8,4.3,24,2.7,27.4,2.7 M27.4,1.2c-3.9,0-7.5,1.9-10.2,5.2c-2.6,3.3-4,7.6-4,12.1c0,9.6,6.4,17.3,14.3,17.3
			c7.9,0,14.3-7.8,14.3-17.3C41.7,9,35.3,1.2,27.4,1.2L27.4,1.2z"/>
	</g>
	<path class="st1" d="M29.6,52.4H1.9C1.5,36.9,12.2,35.5,16,35.5c0.2,0,0.3,0,0.3,0"/>
	<path class="st1" d="M25,52.4h27.8c0.4-15.5-10.4-16.9-14.2-16.9v0"/>
</g>
</svg>
