<?xml version="1.0" encoding="utf-8"?>
<!-- Generator: Adobe Illustrator 19.1.0, SVG Export Plug-In . SVG Version: 6.00 Build 0)  -->
<svg version="1.1" id="Layer_1" xmlns="http://www.w3.org/2000/svg" xmlns:xlink="http://www.w3.org/1999/xlink" x="0px" y="0px"
	 viewBox="3 -83 180 180" style="enable-background:new 3 -83 180 180;" xml:space="preserve">
<style type="text/css">
	.st0{fill:#5D5D5D;}
</style>
<g>
	<path class="st0" d="M73.3-27.9c0.3,0.5,0.8,0.8,1.4,0.8c0.3,0,0.5,0,0.8-0.2c0.8-0.5,1.1-1.4,0.6-2.2l-8.5-15.9
		c-0.5-0.8-1.4-1.1-2.2-0.6c-0.8,0.5-1.1,1.4-0.6,2.2L73.3-27.9z"/>
	<path class="st0" d="M92.9-27.1c0.9,0,1.5-0.6,1.5-1.5v-30.5c0-0.9-0.6-1.5-1.5-1.5s-1.5,0.6-1.5,1.5v30.5
		C91.4-27.9,92-27.1,92.9-27.1z"/>
	<path class="st0" d="M40.9,20.1c0,0.9,0.6,1.5,1.5,1.5h42.8c0.9,0,1.5-0.6,1.5-1.5c0-0.9-0.6-1.5-1.5-1.5H42.5
		C41.7,18.6,40.9,19.2,40.9,20.1z"/>
	<path class="st0" d="M40.9,30.4c0,0.9,0.6,1.5,1.5,1.5h42.8c0.9,0,1.5-0.6,1.5-1.5c0-0.9-0.6-1.5-1.5-1.5H42.5
		C41.7,28.8,40.9,29.4,40.9,30.4z"/>
	<path class="st0" d="M40.9,41c0,0.9,0.6,1.5,1.5,1.5h42.8c0.9,0,1.5-0.6,1.5-1.5c0-0.9-0.6-1.5-1.5-1.5H42.5
		C41.7,39.4,40.9,40.1,40.9,41z"/>
	<path class="st0" d="M110.3-27.3c0.2,0.2,0.5,0.2,0.8,0.2c0.6,0,1.1-0.3,1.4-0.8l8.3-16c0.5-0.8,0.2-1.7-0.6-2.2
		c-0.8-0.5-1.7-0.2-2.2,0.6l-8.3,15.9C109.2-28.7,109.5-27.8,110.3-27.3z"/>
	<path class="st0" d="M132.2-26.7c0.5,0,0.9-0.2,1.2-0.5l8.9-10.5c0.6-0.6,0.5-1.7-0.2-2.2c-0.6-0.6-1.5-0.5-2.2,0.2l-8.9,10.5
		c-0.6,0.6-0.5,1.7,0.2,2.2C131.6-26.7,131.9-26.7,132.2-26.7z"/>
	<path class="st0" d="M123.9,34.2l-1.5-0.5v10l1.4-0.2c3.6-0.7,4.9-3,4.9-4.9C128.7,35.7,125.5,34.8,123.9,34.2z M124.7,40.8v-3.9
		c1.4,0.6,1.7,1.1,1.7,1.7C126.4,39.6,125.7,40.4,124.7,40.8z"/>
	<path class="st0" d="M154.5-12.7H31.3c-4.5,0-8,3.5-8,8v71.2c0,4.5,3.5,8,8,8h123.2c4.5,0,8-3.5,8-8V-4.7
		C162.5-9.1,159-12.7,154.5-12.7z M159.4,66.5c0,2.8-2.2,4.9-4.9,4.9H31.3c-2.8,0-4.9-2.2-4.9-4.9V-4.7c0-2.8,2.2-4.9,4.9-4.9h123.2
		c2.8,0,4.9,2.2,4.9,4.9V66.5z"/>
	<path class="st0" d="M124.7,26.4v-4.9c1.8,0.6,3.4,1.6,4.7,2.7l0.9,0.8l5.6-7.4l-0.8-0.7c-2.8-2.6-6.3-4.2-10.4-4.9V6.9h-7.3v5
		c-6.8,1-11.3,5.7-11.3,11.6c0,8.1,6.9,10.4,11.3,11.4v5.8c-3.2-0.9-5.4-2.7-6.4-3.9l-0.9-1l-5.5,7.7l0.7,0.7
		c3.2,3.2,7.3,5.1,12.2,5.7v4.9h7.3v-4.9c7.3-1.1,11.6-5.6,11.6-12.2C136.3,29.8,129.2,27.5,124.7,26.4z M123.5,47.9l-1,0.1v4.7
		h-2.7V48l-1-0.1c-4.4-0.3-8.2-1.9-11.1-4.6l2.7-4c2.3,2.1,5,3.4,8,3.9l1.4,0.2V33l-0.9-0.2c-6.5-1.6-10.5-3.6-10.5-9.5
		c0-5,4.1-8.8,10.4-9.5l1-0.1V8.9h2.7v4.9l1,0.1c3.6,0.5,6.8,1.7,9.3,3.8l-2.8,3.8c-1.7-1.4-3.9-2.3-6.2-2.8l-1.4-0.3v9.8l0.9,0.2
		c6.6,1.7,10.7,3.9,10.7,9.6S130.2,47.2,123.5,47.9z"/>
	<path class="st0" d="M52.2-27.1c0.3,0.3,0.8,0.5,1.2,0.5c0.3,0,0.8-0.2,0.9-0.3c0.6-0.6,0.8-1.5,0.2-2.2l-8.9-10.5
		c-0.6-0.6-1.5-0.8-2.2-0.2s-0.8,1.5-0.2,2.2L52.2-27.1z"/>
	<path class="st0" d="M113.8,22.9c0,2.7,3,3.6,4.4,4.1l1.5,0.5v-9.2l-1.3,0.2C115.6,18.8,113.8,20.5,113.8,22.9z M117.4,24.3
		c-1.1-0.6-1.4-1-1.4-1.4c0-1,0.7-1.6,1.4-1.9V24.3z"/>
</g>
</svg>
