<?xml version="1.0" encoding="utf-8"?>
<svg version="1.1" id="Layer_1" xmlns="http://www.w3.org/2000/svg" xmlns:xlink="http://www.w3.org/1999/xlink" x="0px" y="0px" viewBox="33 -34 100 100" style="enable-background:new 33 -34 100 100;" xml:space="preserve">
	<style>
		svg{
		fill:#000;
		}
	</style>
<g>
	<g>
		<g>
			<g>
				<path d="M55,59.5c-6.2,0-11.3-5.1-11.3-11.3v-56c0-6.2,5.1-11.3,11.3-11.3h8c0.7,0,1.3,0.6,1.3,1.3s-0.6,1.3-1.3,1.3h-8
					c-4.8,0-8.7,3.9-8.7,8.7v56c0,4.8,3.9,8.7,8.7,8.7h43.5l21.2-19.3V-7.8c0-4.8-3.9-8.7-8.7-8.7h-8c-0.7,0-1.3-0.6-1.3-1.3
					s0.6-1.3,1.3-1.3h8c6.2,0,11.3,5.1,11.3,11.3v46.6L99.5,59.5H55z"></path>
			</g>
		</g>
		<g>
			<g>
				<path d="M71-16.5c-0.7,0-1.3-0.6-1.3-1.3s0.6-1.3,1.3-1.3h24c0.7,0,1.3,0.6,1.3,1.3s-0.6,1.3-1.3,1.3H71z"></path>
			</g>
		</g>
		<g>
			<g>
				<path d="M65-9.5c-1.8,0-3.3-1.5-3.3-3.3v-10c0-1.8,1.5-3.3,3.3-3.3h4c1.8,0,3.3,1.5,3.3,3.3v10c0,1.8-1.5,3.3-3.3,3.3H65z
					 M65-23.5c-0.4,0-0.7,0.3-0.7,0.7v10c0,0.4,0.3,0.7,0.7,0.7h4c0.4,0,0.7-0.3,0.7-0.7v-10c0-0.4-0.3-0.7-0.7-0.7H65z"></path>
			</g>
		</g>
		<g>
			<path d="M97-9.5c-1.8,0-3.3-1.5-3.3-3.3v-10c0-1.8,1.5-3.3,3.3-3.3h4c1.8,0,3.3,1.5,3.3,3.3v10c0,1.8-1.5,3.3-3.3,3.3H97z
				 M97-23.5c-0.4,0-0.7,0.3-0.7,0.7v10c0,0.4,0.3,0.7,0.7,0.7h4c0.4,0,0.7-0.3,0.7-0.7v-10c0-0.4-0.3-0.7-0.7-0.7H97z"></path>
		</g>
		<g>
			<g>
				<path d="M45-2.5c-0.7,0-1.3-0.6-1.3-1.3s0.6-1.3,1.3-1.3h75c0.7,0,1.3,0.6,1.3,1.3s-0.6,1.3-1.3,1.3H45z"></path>
			</g>
		</g>
		<g>
			<g>
				<path d="M99,59.5c-0.7,0-1.3-0.6-1.3-1.3v-10c0-6.2,5.1-11.3,11.3-11.3h12c0.7,0,1.3,0.6,1.3,1.3s-0.6,1.3-1.3,1.3h-12
					c-4.8,0-8.7,3.9-8.7,8.7v10C100.3,58.9,99.7,59.5,99,59.5z"></path>
			</g>
		</g>
		<g>
			<path d="M79.7,12.9c-0.7,0-1.3-0.6-1.3-1.3s0.6-1.3,1.3-1.3h30c0.7,0,1.3,0.6,1.3,1.3s-0.6,1.3-1.3,1.3H79.7z"></path>
		</g>
		<g>
			<path d="M57.7,23.5c-0.7,0-1.3-0.6-1.3-1.3s0.6-1.3,1.3-1.3h36c0.7,0,1.3,0.6,1.3,1.3s-0.6,1.3-1.3,1.3H57.7z"></path>
		</g>
		<g>
			<path d="M57.7,35.5c-0.7,0-1.3-0.6-1.3-1.3s0.6-1.3,1.3-1.3h33c0.7,0,1.3,0.6,1.3,1.3s-0.6,1.3-1.3,1.3H57.7z"></path>
		</g>
		<g>
			<path d="M57.7,29.5c-0.7,0-1.3-0.6-1.3-1.3s0.6-1.3,1.3-1.3h29c0.7,0,1.3,0.6,1.3,1.3s-0.6,1.3-1.3,1.3H57.7z"></path>
		</g>
		<g>
			<g>
				<polygon points="61.8,16.2 67.7,4.5 63.6,4.5 63.6,6.3 60.8,6.3 60.8,1.9 71.4,1.9 71.4,3.8 65.2,16.2 				"></polygon>
			</g>
		</g>
	</g>
</g>
</svg>