<?xml version="1.0" encoding="utf-8"?>
<!-- Generator: Adobe Illustrator 19.1.0, SVG Export Plug-In . SVG Version: 6.00 Build 0)  -->
<svg version="1.1" id="Layer_1" xmlns="http://www.w3.org/2000/svg" xmlns:xlink="http://www.w3.org/1999/xlink" x="0px" y="0px"
	 viewBox="35 -34 100 100" style="enable-background:new 35 -34 100 100;" xml:space="preserve">
<style type="text/css">
	.st0{fill:none;stroke:#231F20;stroke-miterlimit:10;}
</style>
<path class="st0" d="M107.8,56.2L107.8,56.2c-9.9,0-22.7-7.6-39.3-23.3c-34.9-33.2-24.9-45.7-20.5-51l0.3-0.4
	c0.1-0.1,0.3-0.3,0.6-0.4c0.7-0.6,3.5-3.3,5.8-5.8c0.3-0.3,0.6-0.4,1-0.4c0.4,0,0.7,0.1,1,0.4l21,20.1c0.6,0.6,0.6,1.5,0,2L72,3.6
	c-1,1.2-0.3,3.5,0.4,5.1c3.9,8.6,17.3,19.8,23.4,19.8l0,0c0.7,0,1.3-0.1,1.6-0.6c0.4-0.7,1.9-2.3,6-6.4c0.6-0.6,1.5-0.6,2,0
	l21.1,20.1c0.3,0.3,0.4,0.6,0.4,1s-0.1,0.7-0.4,1c-2.3,2.3-5,5.1-5.4,5.8c-0.1,0.1-0.1,0.4-0.4,0.6l-0.6,0.6
	C118,52.7,114.3,56.2,107.8,56.2z"/>
</svg>
