<?xml version="1.0" encoding="utf-8"?>
<!-- Generator: Adobe Illustrator 19.0.1, SVG Export Plug-In . SVG Version: 6.00 Build 0)  -->
<svg version="1.1" id="Layer_1" xmlns="http://www.w3.org/2000/svg" xmlns:xlink="http://www.w3.org/1999/xlink" x="0px" y="0px"
	 viewBox="49 -22 163.7 100" style="enable-background:new 49 -22 163.7 100;" xml:space="preserve">
<style type="text/css">
	.st0{fill:none;}
	.st1{fill:#8D55B7;}
</style>
<path class="st0" d="M152.5,17V5.5c-2.6,0.1-5.1,0.7-7.4,1.5c-2.3,0.9-4.4,2.1-6.3,3.6l8.5,8.5C148.8,18,150.5,17.3,152.5,17z"/>
<path class="st0" d="M169.2,11c-3.7-3.1-8.4-5.1-13.5-5.5V17c2,0.3,3.8,1,5.3,2.2L169.2,11z"/>
<path d="M152.5,5.5L152.5,5.5c0,0,0.1,0,0.1,0H152.5z"/>
<path class="st0" d="M147.5,20.9c-0.9,0.6-1.7,1.3-2.3,2.2c-0.8,1.1-1.4,2.4-1.6,3.8h16.8c-0.2-1.3-0.7-2.6-1.5-3.6
	c-0.6-0.9-1.4-1.6-2.3-2.2c-0.9-0.6-2-1-3.1-1.2c-0.5-0.1-1-0.2-1.6-0.2c-0.5,0-1.1,0.1-1.6,0.2C149.4,20,148.4,20.4,147.5,20.9z"/>
<rect x="80.1" y="72.9" class="st1" width="121.7" height="3.2"/>
<rect x="134.1" y="41.5" class="st0" width="7.7" height="21.6"/>
<rect x="108" y="38.3" class="st0" width="0" height="15.5"/>
<rect x="99.1" y="41.5" class="st0" width="5.8" height="9.1"/>
<path class="st1" d="M95.9,53.8H108V38.3H95.9V53.8z M99.1,41.5h5.8v9.1h-5.8V41.5z"/>
<polygon points="108,53.8 95.9,53.8 95.9,38.3 108,38.3 108,38.3 95.9,38.3 95.9,53.8 108,53.8 "/>
<path class="st0" d="M163.6,26.8h12.3c-0.6-5.4-2.9-10.4-6.5-14.1l-8.2,8.2C162.5,22.6,163.4,24.6,163.6,26.8z"/>
<rect x="152.4" y="41.5" class="st0" width="19" height="9.2"/>
<path class="st0" d="M90.6,0.4c1.9,0,3.5-1.6,3.5-3.5c0-2-1.5-3.5-3.5-3.5c-1.9,0-3.5,1.6-3.5,3.5C87.1-1.2,88.6,0.4,90.6,0.4z"/>
<path class="st0" d="M124.7,30v33.1h6.3V38.3h14v24.8h33.8V30H124.7z M174.5,53.8h-25.3V38.3h25.3V53.8z"/>
<path class="st0" d="M90.6-9.1c-3.2,0-6,2.7-6,6c0,3.3,2.7,6,6,6c3.3,0,6-2.7,6-6C96.5-6.4,93.8-9.1,90.6-9.1z"/>
<path class="st1" d="M90.6,2.8c3.3,0,6-2.7,6-6c0-3.2-2.7-6-6-6s-6,2.7-6,6C84.6,0.1,87.3,2.8,90.6,2.8z M90.6-6.7
	c2,0,3.5,1.6,3.5,3.5c0,1.9-1.6,3.5-3.5,3.5c-1.9,0-3.5-1.6-3.5-3.5C87.1-5.1,88.6-6.7,90.6-6.7z"/>
<path class="st1" d="M181.9,63.1V30h5v-3.2h-7.8c-1.3-14-13.1-25-27.4-25c-3.2,0-6.3,0.6-9.2,1.6h-35c0.6-2,1-4,1-5.8
	c0-10.2-8-18.5-17.9-18.5c-10,0-18.2,8.3-18.2,18.5c0,11.7,14,29.4,16.5,32.5v33.1h-8.8v3.2h121.7v-3.2H181.9z M175.9,26.8h-12.3
	c-0.2-2.2-1.1-4.2-2.4-5.9l8.2-8.2C173,16.5,175.4,21.4,175.9,26.8z M153.6,5.1c5.1,0.4,9.8,2.4,13.5,5.5l-8.2,8.2
	c-1.5-1.1-3.4-1.9-5.3-2.2V5.1z M152,19.6c0.5,0,1.1,0.1,1.6,0.2c1.1,0.2,2.2,0.6,3.1,1.2c0.9,0.6,1.7,1.3,2.3,2.2
	c0.8,1.1,1.3,2.3,1.5,3.7h-16.8c0.2-1.4,0.8-2.7,1.6-3.8c0.6-0.8,1.4-1.6,2.3-2.2c0.9-0.5,1.9-1,2.9-1.2
	C151,19.7,151.5,19.6,152,19.6z M143.1,6.6c2.3-0.9,4.8-1.4,7.4-1.5v0h0.1c0,0-0.1,0-0.1,0v11.6c-1.9,0.3-3.7,1-5.2,2.1l-8.5-8.5
	C138.6,8.6,140.8,7.4,143.1,6.6z M128.1,23.4c0.3-1.1,0.6-2.1,1-3.2c1-2.5,2.4-4.8,4.2-6.8c0.3-0.4,0.7-0.8,1.1-1.1l8.6,8.6
	c-1.4,1.7-2.2,3.8-2.5,6h-13C127.6,25.7,127.8,24.5,128.1,23.4z M127.8,15.7v-2.3h1.5C128.8,14.1,128.3,14.9,127.8,15.7z M136.3,6.6
	c-1.6,1.1-3,2.3-4.4,3.7h-27.2c0.6-1.2,1.2-2.4,1.6-3.7H136.3z M124.7,13.4v6.8h-4v-6.8H124.7z M117.5,13.4v6.8h-3.9v-6.8H117.5z
	 M110.5,13.4v6.8h-4v-6.8H110.5z M103.3,13.4v6.8H99V20c1.4-2.1,2.8-4.3,4.1-6.6H103.3z M88.9,26c-5.2-6.9-14-19.8-14-28.5
	c0-8.9,7-16.1,15.7-16.1c8.5,0,15.4,7.2,15.4,16.1c0,1.8-0.4,3.8-1.1,5.8c-0.3,1-0.7,2.1-1.2,3.2c-0.5,1.2-1.1,2.4-1.7,3.7
	c-0.5,1.1-1.1,2.1-1.7,3.2c-0.4,0.7-0.9,1.5-1.3,2.2c-1,1.7-2.1,3.3-3.1,4.8c-1.4,2-2.7,3.8-3.8,5.2c-0.7,0.9-1.3,1.6-1.8,2.3
	C89.9,27.3,89.4,26.7,88.9,26z M121.5,30v33.1H92.1V29.5c1-1.2,2.7-3.4,4.7-6.2h28.1c-0.2,1.1-0.4,2.3-0.5,3.5h-10.8V30H121.5z
	 M141.8,63.1h-7.6V41.5h7.6V63.1z M178.7,63.1H145V38.3h-14v24.8h-6.3V30h54V63.1z"/>
<path class="st0" d="M100.3,13.4c-0.4,0.7-0.9,1.5-1.3,2.2"/>
<path class="st0" d="M103.3,13.4v6.8H99V20c1.4-2.1,2.8-4.3,4.1-6.6H103.3z"/>
<rect x="106.5" y="13.4" class="st0" width="4" height="6.8"/>
<rect x="113.6" y="13.4" class="st0" width="3.9" height="6.8"/>
<rect x="120.7" y="13.4" class="st0" width="4" height="6.8"/>
<path class="st0" d="M129.3,13.4c-0.5,0.7-1,1.5-1.5,2.3v-2.3H129.3z"/>
<path class="st0" d="M136.3,6.6c-1.6,1.1-3,2.3-4.4,3.7h-27.2c0.6-1.2,1.2-2.4,1.6-3.7H136.3z"/>
<path class="st0" d="M124.3,26.8c0.1-1.2,0.3-2.3,0.5-3.5H96.8c-2,2.8-3.7,4.9-4.7,6.2v33.6h29.4V30h-8v-3.2H124.3z M108,53.8
	L108,53.8L108,53.8l-12.1,0V38.3H108V53.8z"/>
<path class="st0" d="M143,20.8c-1.4,1.7-2.2,3.8-2.5,6h-13c0.1-1.2,0.3-2.4,0.6-3.5c0.3-1.1,0.6-2.1,1-3.2c1-2.5,2.4-4.8,4.2-6.8
	c0.3-0.4,0.7-0.8,1.1-1.1L143,20.8z"/>
<path class="st1" d="M174.5,38.3h-25.3v15.5h25.3V38.3z M171.4,50.6h-19v-9.2h19V50.6z"/>
</svg>
