<?xml version="1.0" encoding="utf-8"?>
<!-- Generator: Adobe Illustrator 19.1.0, SVG Export Plug-In . SVG Version: 6.00 Build 0)  -->
<svg version="1.1" id="Layer_1" xmlns="http://www.w3.org/2000/svg" xmlns:xlink="http://www.w3.org/1999/xlink" x="0px" y="0px"
	 viewBox="41 -41 96 96" style="enable-background:new 41 -41 96 96;" xml:space="preserve">
<style type="text/css">
	.st0{display:none;}
	.st1{display:inline;}
	.st2{font-family:'NeutrafaceSlabDisplay-Bold';}
	.st3{font-size:26px;}
</style>
<g class="st0">
	<g class="st1">
		<path d="M106.4,48H62c-6.1,0-11-4.9-11-11v-56c0-6.1,4.9-11,11-11h8c0.6,0,1,0.4,1,1s-0.4,1-1,1h-8c-5,0-9,4-9,9v56c0,5,4,9,9,9
			h43.6L127,26.6V-19c0-5-4-9-9-9h-8c-0.6,0-1-0.4-1-1s0.4-1,1-1h8c6.1,0,11,4.9,11,11v46.4L106.4,48z"/>
	</g>
	<g class="st1">
		<path d="M102-28H78c-0.6,0-1-0.4-1-1s0.4-1,1-1h24c0.6,0,1,0.4,1,1S102.6-28,102-28z"/>
	</g>
	<g class="st1">
		<path d="M76-21h-4c-1.7,0-3-1.3-3-3v-10c0-1.7,1.3-3,3-3h4c1.7,0,3,1.3,3,3v10C79-22.3,77.7-21,76-21z M72-35c-0.6,0-1,0.4-1,1v10
			c0,0.6,0.4,1,1,1h4c0.6,0,1-0.4,1-1v-10c0-0.6-0.4-1-1-1H72z"/>
	</g>
	<g class="st1">
		<path d="M108-21h-4c-1.7,0-3-1.3-3-3v-10c0-1.7,1.3-3,3-3h4c1.7,0,3,1.3,3,3v10C111-22.3,109.7-21,108-21z M104-35
			c-0.6,0-1,0.4-1,1v10c0,0.6,0.4,1,1,1h4c0.6,0,1-0.4,1-1v-10c0-0.6-0.4-1-1-1H104z"/>
	</g>
	<g class="st1">
		<path d="M127-14H52c-0.6,0-1-0.4-1-1s0.4-1,1-1h75c0.6,0,1,0.4,1,1S127.6-14,127-14z"/>
	</g>
	<g class="st1">
		<path d="M106,48c-0.6,0-1-0.4-1-1V37c0-6.1,4.9-11,11-11h12c0.6,0,1,0.4,1,1s-0.4,1-1,1h-12c-5,0-9,4-9,9v10
			C107,47.6,106.6,48,106,48z"/>
	</g>
	<path class="st1" d="M116.7,1.4h-30c-0.6,0-1-0.4-1-1v0c0-0.6,0.4-1,1-1h30c0.6,0,1,0.4,1,1v0C117.7,0.9,117.2,1.4,116.7,1.4z"/>
	<path class="st1" d="M100.7,12h-36c-0.6,0-1-0.4-1-1v0c0-0.6,0.4-1,1-1h36c0.6,0,1,0.4,1,1v0C101.7,11.6,101.2,12,100.7,12z"/>
	<path class="st1" d="M97.7,24h-33c-0.6,0-1-0.4-1-1v0c0-0.6,0.4-1,1-1h33c0.6,0,1,0.4,1,1v0C98.7,23.6,98.2,24,97.7,24z"/>
	<path class="st1" d="M93.7,18h-29c-0.6,0-1-0.4-1-1v0c0-0.6,0.4-1,1-1h29c0.6,0,1,0.4,1,1v0C94.7,17.6,94.2,18,93.7,18z"/>
	<text transform="matrix(1 0 0 1 67.75 4.75)" class="st1 st2 st3">7</text>
</g>
<path d="M99.9,50.7c-0.4,0-0.9,0-1.3-0.1c-1.7-0.4-3.3-1.3-4.8-2.1c-0.5-0.3-1.1-0.6-1.6-0.9L91.3,47c-3.1-1.6-6.7-3.5-7.5-7.1
	c-0.8-3.5,0.9-7.3,2.9-10.9l0.5-0.9l-4.8,0.8c-1,0.2-2,0.3-3,0.3c-1.8,0-5-0.4-6.7-3c-0.8-1.3-1.1-3-0.8-5.1
	c0.2-1.3,0.5-2.7,0.7-4.1c0.2-0.9,0.4-1.9,0.5-2.8c0.6-3.5,1.6-7,4.8-8.5c1.4-0.7,3-1,5-1c1.9,0,3.9,0.3,5.7,0.6l1,0.2l-2.3-4.3
	c-0.9-1.6-2.9-5.7-1.2-9c1.6-3.2,5.4-3.6,8.7-3.9c0.6-0.1,1.1-0.1,1.7-0.2l0.3-0.1c1.6-0.2,3.3-0.5,4.9-0.5c2.7,0,4.6,0.7,6,2.2
	c2.4,2.5,3.1,6.4,3.7,10.1l0.2,1.1l3.4-3.8c1.1-1.2,3.9-3.9,7.2-3.9c4,0,5.6,3.4,7.2,6.8l0.4,0.8c0.2,0.5,0.5,1,0.8,1.6
	c1.7,3.4,3.5,7.3,1.7,10.8c-1.7,3.3-5.4,5.1-8.6,6.7l-0.9,0.4l4.4,2.2c3.6,1.8,5.7,4.1,6.1,6.9c0.5,2.9-1.5,5.2-3.7,7.5
	c-0.7,0.6-1.4,1.3-2,2c-1.8,1.8-3.4,3.4-5.4,4.5c-1.1,0.6-2.3,0.9-3.5,0.9c0,0,0,0,0,0c-3.9,0-7.5-3.3-10.2-6.1l-0.7-0.7l-0.8,4.8
	c-0.2,1.8-0.9,5.1-3,7C103,50.1,101.5,50.7,99.9,50.7z M100,18.4c-1.8,0-3.4,1.2-4.7,2.4c-1.5,1.4-2.8,3.1-3.9,4.9
	c-1.7,2.6-3.9,6.1-4.9,9.8c-0.2,1.2-0.4,2.3-0.2,3.3c0.3,1.6,1.5,2.5,2.7,3.4c1.2,0.9,2.5,1.5,3.7,2.2c0.5,0.3,1.1,0.6,1.6,0.9
	c0.3,0.2,0.6,0.4,1,0.6c1.4,0.8,2.9,1.8,4.7,1.8c2.3,0,3.8-2.1,4.4-6.3l1.1-7l-0.4-0.4c-1.8-2-7.6-9.2-3.9-14.7l0.4-0.6l-0.7-0.2
	C100.6,18.5,100.3,18.4,100,18.4z M107.2,32.3c0.1,0.1,0.2,0.2,0.3,0.3c0,0,0.1,0.1,0.1,0.1l0,0.1l0.4,0.4c1.5,1.8,3.3,3.8,5.3,5.4
	c1.1,0.9,2.5,2,4.1,2.4c0.4,0.1,0.7,0.1,1.1,0.1c1.6,0,3-0.9,4.1-1.8c1.2-1,2.3-2.1,3.4-3.1c0.8-0.8,1.6-1.6,2.5-2.3l0.1-0.1
	c3-2.7,2.5-4.7,1.6-5.9c-0.9-1.5-2.5-2.3-4.1-3.1l-6.3-3.2l-0.2,0.1c0,0-4.9,1.9-9.3,1.9c-3,0-5-0.8-6.1-2.5l-0.4-0.6l-0.4,0.6
	c-1.3,2-0.4,4.5,0.6,6.4C104.8,29.2,105.9,30.8,107.2,32.3z M83.1,7.2c-0.7,0-1.3,0-1.9,0.1c-1.2,0.1-2.2,0.5-3,1.1
	c-1,0.9-1.6,2.1-2,3.8c-0.3,1.1-0.5,2.3-0.7,3.5c-0.1,0.8-0.3,1.6-0.4,2.3c-0.1,0.4-0.2,0.8-0.2,1.2c-0.3,1.5-0.7,3.1-0.1,4.6
	c0.5,1.6,2.1,2.4,4.5,2.4c1,0,2-0.1,2.9-0.3l7.2-1.2v-0.3l0-0.1c1.5-2.6,5.5-8.5,10.8-8.5c0.6,0,1.3,0.1,1.9,0.3l0.7,0.2l0-0.7
	c-0.1-2-1.5-3.6-4.4-4.9c-2-1.1-4.3-1.7-6.2-2.1l-0.3-0.1C88.6,7.8,85.9,7.2,83.1,7.2z M122.3-3.8c-2,0-4.1,1.7-5.4,3.2l-4.9,5.1
	v0.4c0.3,2.8,0.7,11.9-5.5,14.2l-0.7,0.2l0.5,0.5c0.9,1.1,2.2,1.6,4,1.6c1.1,0,2.1-0.2,3-0.3c1.9-0.4,3.9-1,5.9-1.9l0.2-0.1
	c3-1.3,6.4-2.7,9-5c0.7-0.6,1.5-1.4,1.8-2.4c0.6-1.5,0.1-3.1-0.4-4.5c-0.5-1.4-1.2-2.6-1.8-3.9c-0.3-0.6-0.6-1.2-0.9-1.9
	c-0.1-0.2-0.2-0.4-0.3-0.7c-0.6-1.5-1.3-3-2.6-4C123.6-3.6,123-3.8,122.3-3.8z M93.5,6.5C97,7.3,105,9.7,105.3,16l0,0.7l0.6-0.2
	c2.4-0.9,3.1-3.6,3.4-5.9c0.2-2.2,0.3-3.9,0.1-5.5l-0.1-1.2c-0.3-2.9-0.6-5.8-1.5-8.6c-0.7-2.2-1.7-3.7-3-4.4
	c-0.9-0.4-1.9-0.6-3.1-0.6c-1.2,0-2.5,0.2-3.7,0.4c-0.6,0.1-1.2,0.2-1.7,0.3c-0.4,0-0.8,0.1-1.2,0.1c-1.3,0.1-2.6,0.3-3.8,0.6
	c-1.4,0.4-2.3,1.1-2.8,1.9l0,0c-1.2,2.3,0.4,5.2,1.1,6.6l3.4,6C93,6.3,93.1,6.5,93.5,6.5z M55.8,50.3c-0.6,0-0.8-0.2-0.9-0.3
	c-1.4-1.4-2.9-4-2.6-6.9l0.1-0.5h-1.2c-2.8,0-5.2-1.6-6.1-2.6c-0.2-0.2-0.6-0.8-0.1-1.5c0.7-1.4,2.7-3.9,5.7-4.6l0.6-0.1l-0.2-0.6
	c-1.2-2.8-0.4-5.9,0.3-7.3c0.3-0.5,0.7-0.7,1.2-0.7c0.1,0,0.1,0,0.2,0c1.5,0.2,4.4,1.4,6,4.1l0.3,0.5l0.5-0.4
	c2.1-1.9,4.8-2.1,5.8-2.1c0.4,0,0.8,0,1.2,0.1c0.6,0.1,1,0.5,1.1,1.1c0.1,1,0.3,4.4-2,7L65,36l0.5,0.3c2.5,1.5,3.8,4.2,4.1,6.2
	c0.1,0.6-0.2,1.1-0.8,1.4c-0.4,0.2-2,0.9-4.2,0.9c-1.1,0-2.2-0.2-3.1-0.7L61,43.9l-0.1,0.6c-0.7,3-3.2,5-4.5,5.7
	C56.2,50.2,56,50.3,55.8,50.3z M57,40c-0.4,0.4-0.8,0.8-1.2,1l-0.1,0.1l-0.1,0.1c-1.4,2.3-0.5,4.5,0.1,5.6l0.3,0.5l0.5-0.4
	c0.8-0.7,2.6-2.6,1.8-5.6L58.2,41c-0.1-0.3-0.2-0.6-0.4-1l-0.3-0.6L57,40z M60.1,38.7c0.2,0.4,0.4,0.8,0.5,1.2l0.2,0.4l0.1,0.1
	c1.3,1.5,2.8,1.8,3.8,1.8c0.5,0,1.1-0.1,1.6-0.2l0.5-0.2l-0.2-0.5c-1-2.2-2.6-3.3-4.8-3.4h0c-0.2,0-0.4,0-0.7,0.1
	c-0.2,0-0.4,0-0.5,0h-0.9L60.1,38.7z M52.1,36.4c-1.9,0-3.3,1.1-4.1,2l-0.4,0.5l0.5,0.3c1,0.6,2,0.9,3,0.9c1,0,1.9-0.3,2.8-0.9
	c0.4-0.2,0.7-0.5,1.1-0.9l0.6-0.6l-0.8-0.3c-0.3-0.1-0.6-0.3-0.9-0.5c-0.2-0.1-0.3-0.2-0.5-0.3l-0.1,0l-0.1,0
	C52.9,36.4,52.5,36.4,52.1,36.4z M64.3,30c-2.4,0.3-3.9,1.5-4.7,3.4l-0.5,2l0.8-0.1c0.6-0.1,1-0.1,1.6-0.1h0.1l0.1,0
	c2.6-1.1,3.1-3.4,3.2-4.6l0-0.6L64.3,30z M52.9,28.7c-0.3,1.6-0.3,3.9,1.9,5.6c0.3,0.3,0.6,0.5,1.1,0.8l0.6,0.3l0.1-0.7
	c0.1-0.6,0.2-1.1,0.4-1.6l0-0.1l0-0.1c-0.2-3-2.5-4.2-3.4-4.5L53,28.1L52.9,28.7z M69.4,4.5c-0.2,0-0.5-0.1-0.8-0.2
	c-4.4-1.6-8-5.4-9-9.6l-0.2-0.8l-0.6,0.5c-2.2,1.8-5.1,2.9-8.1,3c-1.8,0-3.3-0.2-4.6-0.5c-1.3-0.3-1.7-0.8-1.6-1.9
	c0.3-4.9,2.8-9.3,6.5-11.6l0.7-0.4L51-17.4c-2.3-1.4-4.1-3.6-5.2-6.4c-0.5-1-0.8-2-1-3.3c-0.2-0.9-0.5-2.1-0.1-2.8
	c0.4-0.8,1.5-1,2.3-1.2l0.2,0c1-0.2,1.9-0.2,2.7-0.2c0.3,0,0.7,0,1,0c3.1,0.1,6,1.2,8.1,3l0.6,0.5l0.2-0.8c1.1-4.4,4.6-8.1,9.2-9.8
	c0.2-0.1,0.4-0.1,0.6-0.1c1.8,0,2.8,3.4,3.3,4.9c0.9,3.2,0.8,6.4-0.3,9.2l-0.3,0.7l0.8-0.1c0.3,0,0.5,0,0.8,0c2.4,0,4.9,0.7,7.2,2.2
	c1,0.7,1.9,1.4,2.8,2.2c0.6,0.6,1.5,1.5,1.5,2.3c0,0.9-0.9,1.8-1.6,2.4c-0.8,0.8-1.7,1.5-2.8,2.2c-2.2,1.4-4.7,2.2-7.2,2.2h0
	c-0.3,0-0.6,0-0.9,0L72-10.2l0.3,0.7c1.2,2.8,1.2,6,0.2,9.4c-0.4,1.2-0.9,2.3-1.6,3.5C70.4,4.2,70,4.5,69.4,4.5z M63.9-14.2
	c-0.4,1.7-1,3.3-1.7,4.7l-0.1,0.1l0,0.1c-0.3,3.3,1.6,6.2,3.3,8c1.2,1.3,3.1,2.9,3.5,2.9h0.5V1.1c0,0,0-0.1,0.1-0.2
	c0.4-1.2,1.6-4.8,1.3-7c-0.4-3.1-2.4-5.9-6.1-8.4l-0.6-0.4L63.9-14.2z M55.6-15.5c-6.1,1.4-7.7,6.6-8.2,9.6l-0.1,0.6h0.6
	c0.2,0,0.5,0,1.1,0c2,0,4.7-0.1,6.2-0.9c3-1.4,5.1-4.3,6.2-8.5l0.2-0.7l-0.7,0.1c-0.6,0.1-1.2,0.1-1.7,0.1c-1,0-2.1-0.1-3.2-0.3
	l-0.1,0L55.6-15.5z M73.9-20.9c-1.4,0-2.8,0.3-4.2,0.9c-1.3,0.7-2.7,1.4-3.9,2.5l-0.5,0.4l0.6,0.4c1.7,1.1,2.9,2,3.9,3.1l0.1,0.1
	l0.1,0c1.2,0.6,2.5,0.9,3.8,0.9c4.7,0,8.2-3.8,8.4-3.9l0.3-0.4L82-17.2C80.7-18.6,77.8-20.9,73.9-20.9z M47.3-27.8
	c0,2.1,1,4.3,2.9,6.4c2.1,2.3,5.1,3.5,9,3.5c0.4,0,0.8,0,1.1,0l0.7,0l-0.3-0.6c-0.7-1.8-1.2-3.4-1.4-4.9l0-0.1l0-0.1
	c-2.5-4.3-7.2-5-9.8-5c-0.6,0-1.2,0-1.7,0.1h-1.2L47.3-27.8z M68.9-35.3c-0.4,0-4.1,1.9-5.6,5c-2.1,3.7-1.1,7.7,0,10.5l0.3,0.6
	l0.5-0.5c1.2-1,2.6-1.9,4.2-2.7l0.1,0l0.1-0.1c4.2-5,2.1-10.4,1-12.6l-0.1-0.3H68.9z M119.7-13.3c-0.6,0-0.8-0.2-0.9-0.3
	c-1.4-1.4-2.9-4-2.6-6.9l0.1-0.5H115c-2.8,0-5.2-1.6-6-2.5c-0.3-0.3-0.5-1-0.2-1.5c0.7-1.4,2.7-3.9,5.7-4.6l0.6-0.1l-0.2-0.6
	c-1.2-2.8-0.4-5.9,0.3-7.3c0.3-0.5,0.7-0.7,1.2-0.7c0.1,0,0.1,0,0.2,0c1.5,0.2,4.4,1.4,6,4.1l0.3,0.5l0.5-0.4
	c2.1-1.9,4.8-2.1,5.8-2.1c0.4,0,0.8,0,1.2,0.1c0.6,0.1,1,0.5,1.1,1.1c0.1,1,0.3,4.4-2,7l-0.4,0.5l0.5,0.3c2.5,1.4,3.7,4.1,4.1,6
	c0.1,0.6-0.2,1.1-0.8,1.4c-1.4,0.6-2.7,0.9-4.2,0.9c-1.1,0-2.2-0.2-3.1-0.7l-0.6-0.3l-0.1,0.6c-0.7,3-3.2,5-4.5,5.7
	C120.1-13.4,119.9-13.3,119.7-13.3z M120.9-23.5c-0.4,0.4-0.8,0.8-1.2,1l-0.1,0.1l-0.1,0.1c-1.4,2.3-0.5,4.5,0.1,5.6l0.3,0.6
	l0.5-0.5c1.7-1.7,2.3-3.6,1.7-5.6l-0.1-0.2c-0.1-0.3-0.2-0.6-0.4-0.9l-0.3-0.6L120.9-23.5z M124-24.9c0.2,0.4,0.4,0.8,0.5,1.2
	l0.2,0.4l0.1,0.1c1.2,1.5,2.8,1.8,3.8,1.8c0.5,0,1.1-0.1,1.6-0.2l0.5-0.2l-0.2-0.5c-1-2.2-2.6-3.3-4.8-3.4l0,0c-0.2,0-0.4,0-0.7,0.1
	c-0.2,0-0.4,0-0.5,0h-0.9L124-24.9z M116-27.2c-2.1,0-3.5,1.2-4.2,2l-0.4,0.5l0.6,0.3c1.1,0.6,2.1,0.9,3.1,0.9c1,0,2-0.3,2.8-0.9
	c0.4-0.2,0.8-0.5,1.1-0.9l0.6-0.6l-0.8-0.3c-0.3-0.1-0.6-0.3-0.9-0.5c-0.2-0.1-0.3-0.2-0.5-0.3l-0.1,0l-0.1,0
	C116.8-27.2,116.4-27.2,116-27.2z M128.2-33.5c-1.6,0.1-3.6,0.8-4.7,3.4l-0.5,2l0.8-0.1c0.6-0.1,1-0.1,1.6-0.1h0.1l0.1,0
	c2.7-1.2,3.1-3.8,3.2-4.6l0-0.6L128.2-33.5z M116.8-34.9c-0.3,1.6-0.3,3.9,1.9,5.6c0.3,0.3,0.6,0.5,1.1,0.8l0.6,0.3l0.1-0.7
	c0.1-0.6,0.2-1.1,0.4-1.6l0-0.1l0-0.1c-0.2-3-2.5-4.2-3.4-4.5l-0.5-0.2L116.8-34.9z"/>
</svg>
