<?xml version="1.0" encoding="utf-8"?>
<!-- Generator: Adobe Illustrator 19.1.0, SVG Export Plug-In . SVG Version: 6.00 Build 0)  -->
<svg version="1.1" id="Layer_1" xmlns="http://www.w3.org/2000/svg" xmlns:xlink="http://www.w3.org/1999/xlink" x="0px" y="0px"
	 viewBox="0 0 145.5 132" style="enable-background:new 0 0 145.5 132;" xml:space="preserve">
<style type="text/css">
	.st0{fill:#010101;}
</style>
<path class="st0" d="M86.9,127.9c-0.6,0-1.2-0.1-1.8-0.2c-2.3-0.5-4.5-1.7-6.6-2.9c-0.7-0.4-1.5-0.8-2.2-1.2l-1.2-0.6
	c-4.3-2.2-9.2-4.8-10.2-9.7c-1.1-4.7,1.2-9.9,3.9-14.9l0.7-1.2l-6.6,1c-1.4,0.3-2.8,0.5-4.1,0.5c-2.4,0-6.8-0.5-9.1-4.1
	c-1.1-1.7-1.5-4.1-1.1-6.9c0.2-1.8,0.6-3.8,1-5.6c0.3-1.3,0.5-2.5,0.8-3.8c0.8-4.8,2.2-9.5,6.6-11.7c1.9-0.9,4.1-1.3,6.8-1.3
	c2.6,0,5.3,0.4,7.8,0.8l1.4,0.2l-3.1-5.9c-1.3-2.2-3.9-7.8-1.6-12.4c2.2-4.4,7.4-4.9,12-5.4c0.8-0.1,1.6-0.2,2.3-0.3l0.5-0.1
	c2.2-0.3,4.5-0.7,6.7-0.7c3.6,0,6.3,1,8.3,3c3.3,3.4,4.3,8.7,5,13.9l0.2,1.4l4.7-5.2c1.5-1.6,5.4-5.4,9.9-5.4c5.4,0,7.7,4.7,9.8,9.2
	l0.5,1c0.3,0.7,0.7,1.4,1,2.2c2.3,4.7,4.8,9.9,2.4,14.7c-2.4,4.5-7.3,6.9-11.7,9.1l-1.2,0.6l6,3c4.9,2.4,7.8,5.7,8.4,9.4
	c0.6,4-2,7.1-5,10.2c-0.9,0.9-1.9,1.8-2.8,2.7c-2.4,2.4-4.7,4.7-7.4,6.2c-1.5,0.8-3.1,1.3-4.7,1.3c0,0,0,0,0,0
	c-5.4,0-10.3-4.5-14-8.4l-1-1l-1,6.6c-0.3,2.5-1.2,6.9-4.2,9.6C91.1,127.2,89,127.9,86.9,127.9z M87,83.8c-2.5,0-4.7,1.7-6.4,3.3
	c-2,1.9-3.8,4.2-5.3,6.7c-2.4,3.6-5.3,8.3-6.6,13.4c-0.3,1.6-0.6,3.1-0.3,4.6c0.5,2.2,2.1,3.5,3.7,4.7c1.7,1.2,3.4,2.1,5.1,3
	c0.7,0.4,1.5,0.8,2.2,1.2c0.4,0.2,0.9,0.5,1.3,0.8c1.9,1.1,4,2.5,6.4,2.5c3.2,0,5.2-2.9,6-8.7l1.6-9.6l-0.5-0.5
	c-2.5-2.8-10.4-12.6-5.4-20.1l0.5-0.8L88.3,84C87.8,83.9,87.4,83.8,87,83.8z M96.9,102.8c0.1,0.2,0.2,0.3,0.4,0.4
	c0.1,0.1,0.1,0.1,0.1,0.2l0,0.1l0.5,0.5c2.1,2.5,4.5,5.2,7.3,7.4c1.6,1.3,3.4,2.7,5.6,3.3c0.5,0.1,1,0.2,1.5,0.2
	c2.2,0,4.1-1.3,5.7-2.5c1.6-1.4,3.1-2.8,4.6-4.2c1.1-1.1,2.2-2.1,3.4-3.2l0.1-0.1c4.2-3.7,3.5-6.4,2.2-8.1c-1.3-2-3.5-3.2-5.5-4.3
	l-8.6-4.4l-0.3,0.1c-0.1,0-6.7,2.6-12.7,2.6c-4.1,0-6.9-1.1-8.4-3.4l-0.6-0.9l-0.6,0.9c-1.8,2.7-0.5,6.1,0.8,8.8
	C93.5,98.5,95.1,100.8,96.9,102.8z M63.9,68.5c-0.9,0-1.8,0.1-2.7,0.2c-1.6,0.2-3.1,0.7-4.2,1.5c-1.3,1.2-2.2,2.8-2.7,5.2
	c-0.4,1.6-0.7,3.2-0.9,4.8c-0.2,1.1-0.4,2.1-0.6,3.2c-0.1,0.6-0.2,1.1-0.3,1.7c-0.4,2.1-0.9,4.3-0.2,6.4c0.8,2.2,2.8,3.3,6.2,3.3
	c1.4,0,2.7-0.2,3.9-0.3l9.9-1.6v-0.4l0-0.1c2-3.5,7.5-11.7,14.8-11.7c0.9,0,1.7,0.1,2.6,0.4l0.9,0.2l0-0.9c-0.1-2.7-2.1-4.9-6-6.7
	c-2.8-1.4-5.8-2.3-8.5-2.9l-0.4-0.1C71.5,69.3,67.7,68.5,63.9,68.5z M117.5,53.4c-2.8,0-5.6,2.4-7.4,4.3l-6.8,7v0.5
	c0.4,3.8,0.9,16.3-7.5,19.5l-0.9,0.3l0.6,0.7c1.3,1.5,3.1,2.2,5.5,2.2c1.4,0,2.9-0.2,4.1-0.5c2.6-0.5,5.3-1.4,8.1-2.6l0.2-0.1
	c4.1-1.7,8.8-3.7,12.3-6.9c1-0.8,2-1.9,2.5-3.3c0.9-2.1,0.2-4.3-0.6-6.2c-0.7-1.9-1.6-3.6-2.5-5.3c-0.4-0.8-0.8-1.7-1.3-2.6
	c-0.1-0.3-0.3-0.6-0.4-0.9c-0.8-2-1.7-4.1-3.5-5.5C119.3,53.7,118.4,53.4,117.5,53.4z M78.2,67.5c4.7,1,15.7,4.3,16.1,13l0,0.9
	l0.9-0.3c3.3-1.2,4.2-4.9,4.7-8.1c0.3-3.1,0.4-5.4,0.1-7.6L99.9,64c-0.4-3.9-0.8-8-2.1-11.8c-1-3.1-2.3-5-4.2-6
	c-1.2-0.6-2.5-0.9-4.2-0.9c-1.7,0-3.4,0.3-5.1,0.6c-0.8,0.1-1.6,0.3-2.3,0.4c-0.6,0.1-1.1,0.1-1.7,0.2c-1.7,0.2-3.5,0.4-5.2,0.8
	c-1.9,0.6-3.2,1.4-3.9,2.7l0,0c-1.6,3.1,0.5,7.1,1.5,9l4.6,8.2C77.4,67.2,77.6,67.5,78.2,67.5z M26.5,127.5c-0.8,0-1.1-0.2-1.2-0.4
	c-1.9-1.9-3.9-5.5-3.6-9.4l0.1-0.7h-1.7c-3.9,0-7.1-2.2-8.4-3.5c-0.2-0.3-0.8-1.1-0.2-2c1-2,3.7-5.4,7.8-6.3l0.8-0.2l-0.3-0.8
	c-1.7-3.8-0.6-8.1,0.4-10c0.4-0.6,1-1,1.7-1c0.1,0,0.2,0,0.2,0c2,0.3,6.1,1.9,8.3,5.6l0.4,0.7l0.6-0.5c2.9-2.6,6.5-2.8,7.9-2.8
	c0.6,0,1.1,0,1.6,0.1c0.8,0.1,1.4,0.7,1.5,1.5c0.1,1.3,0.4,6-2.7,9.6l-0.5,0.6l0.7,0.4c3.5,2.1,5.1,5.7,5.6,8.4
	c0.1,0.8-0.3,1.5-1,1.9c-0.6,0.3-2.8,1.3-5.7,1.3c-1.5,0-3-0.3-4.2-0.9l-0.8-0.3l-0.2,0.8c-0.9,4.1-4.3,6.8-6.2,7.8
	C27.1,127.4,26.8,127.5,26.5,127.5z M28.2,113.3c-0.5,0.5-1,1-1.6,1.4l-0.1,0.1l-0.1,0.1c-1.9,3.2-0.7,6.2,0.1,7.7l0.4,0.7l0.6-0.5
	c1.1-0.9,3.6-3.5,2.4-7.7l-0.1-0.3c-0.1-0.4-0.3-0.8-0.5-1.3l-0.4-0.8L28.2,113.3z M32.4,111.5c0.3,0.5,0.5,1.1,0.7,1.6l0.2,0.6
	l0.1,0.1c1.8,2,3.9,2.4,5.3,2.4c0.7,0,1.5-0.1,2.2-0.3l0.7-0.2l-0.3-0.7c-1.4-3-3.6-4.5-6.6-4.6h0c-0.3,0-0.6,0-0.9,0.1
	c-0.2,0-0.5,0.1-0.7,0.1h-1.2L32.4,111.5z M21.5,108.4c-2.6,0-4.5,1.5-5.6,2.7l-0.6,0.6l0.7,0.4c1.4,0.8,2.7,1.2,4.1,1.2
	c1.4,0,2.7-0.4,3.9-1.2c0.6-0.3,1-0.7,1.5-1.2l0.8-0.8l-1-0.4c-0.5-0.1-0.8-0.4-1.2-0.7c-0.2-0.2-0.5-0.3-0.7-0.5l-0.1-0.1l-0.1,0
	C22.6,108.5,22,108.4,21.5,108.4z M38.2,99.7c-3.2,0.5-5.4,2-6.4,4.7l-0.7,2.7l1-0.2c0.8-0.1,1.4-0.1,2.2-0.1h0.1l0.1-0.1
	c3.5-1.4,4.3-4.6,4.4-6.3l0.1-0.8L38.2,99.7z M22.6,97.9c-0.5,2.2-0.4,5.3,2.6,7.7c0.4,0.4,0.8,0.7,1.5,1l0.8,0.4l0.2-0.9
	c0.1-0.8,0.3-1.6,0.5-2.2l0.1-0.1l0-0.2c-0.3-4.1-3.4-5.7-4.7-6.2l-0.7-0.3L22.6,97.9z M45.1,64.8c-0.3,0-0.7-0.1-1.1-0.2
	c-6.1-2.2-10.9-7.4-12.3-13.2l-0.3-1.1L30.6,51c-3,2.5-7,4-11.1,4.1c-2.5,0-4.6-0.2-6.2-0.7c-1.7-0.4-2.3-1.1-2.2-2.6
	c0.4-6.7,3.8-12.7,8.9-15.9l0.9-0.6l-1-0.6c-3.1-1.9-5.5-4.9-7.1-8.7c-0.6-1.4-1-2.8-1.3-4.5c-0.3-1.2-0.6-2.8-0.2-3.9
	c0.5-1.1,2-1.4,3.2-1.6l0.3-0.1c1.4-0.2,2.5-0.3,3.7-0.3c0.4,0,0.9,0,1.4,0.1c4.3,0.1,8.2,1.6,11.1,4.1l0.8,0.7l0.3-1.1
	c1.5-6,6.4-11.1,12.6-13.3C44.8,6.1,45,6,45.3,6c2.4,0,3.9,4.7,4.5,6.7c1.3,4.3,1.1,8.8-0.4,12.5l-0.4,1l1.1-0.1c0.4,0,0.7,0,1.1,0
	c3.3,0,6.7,1,9.9,3c1.3,0.9,2.7,1.9,3.8,3c0.9,0.9,2,2,2,3.2c0,1.2-1.2,2.5-2.1,3.3c-1.1,1.1-2.3,2.1-3.9,3.1
	c-3,1.9-6.4,2.9-9.9,2.9h0c-0.4,0-0.8,0-1.2,0l-1.1-0.1l0.4,1c1.6,3.8,1.7,8.2,0.3,12.8c-0.5,1.6-1.2,3.2-2.3,4.8
	C46.5,64.3,45.9,64.8,45.1,64.8z M37.6,39.2c-0.5,2.4-1.3,4.5-2.4,6.4l-0.1,0.1l0,0.2c-0.4,4.6,2.2,8.5,4.5,10.9
	c1.7,1.8,4.3,3.9,4.8,3.9h0.7v-0.6c0-0.1,0.1-0.2,0.1-0.3c0.5-1.6,2.2-6.6,1.8-9.6c-0.5-4.3-3.3-8.1-8.4-11.4l-0.8-0.5L37.6,39.2z
	 M26.2,37.4c-8.3,2-10.6,9.1-11.2,13.2l-0.1,0.8h0.8c0.2,0,0.7,0,1.5,0c2.7,0,6.4-0.2,8.4-1.2c4.1-2,6.9-5.9,8.4-11.7l0.3-1l-1,0.1
	c-0.8,0.1-1.6,0.1-2.4,0.1c-1.4,0-2.8-0.1-4.4-0.4l-0.1,0L26.2,37.4z M51.3,29.9c-1.9,0-3.8,0.4-5.7,1.2c-1.8,1-3.7,2-5.4,3.4
	l-0.7,0.6l0.8,0.5c2.3,1.4,4,2.8,5.3,4.3l0.1,0.1l0.1,0.1c1.7,0.8,3.4,1.2,5.2,1.2c6.4,0,11.3-5.1,11.5-5.4l0.5-0.5L62.4,35
	C60.6,33.1,56.6,29.9,51.3,29.9z M14.9,20.6c0,2.9,1.3,5.9,4,8.8c2.8,3.2,7,4.8,12.3,4.8c0.5,0,1,0,1.5,0l1-0.1l-0.4-0.9
	c-1-2.4-1.6-4.6-1.9-6.7l0-0.1l-0.1-0.1c-3.4-5.9-9.8-6.8-13.4-6.8c-0.8,0-1.6,0-2.4,0.1h-1.7L14.9,20.6z M44.4,10.3
	c-0.6,0-5.7,2.7-7.7,6.8c-2.8,5-1.6,10.6,0,14.4l0.4,0.9l0.7-0.6c1.6-1.4,3.5-2.6,5.7-3.7l0.1-0.1l0.1-0.1
	c5.7-6.8,2.8-14.3,1.3-17.2l-0.2-0.4H44.4z M114,40.4c-0.8,0-1.1-0.2-1.2-0.4c-1.9-1.9-3.9-5.5-3.6-9.4l0.1-0.7h-1.7
	c-3.9,0-7.1-2.2-8.3-3.4c-0.5-0.5-0.7-1.4-0.3-2.1c1-1.9,3.6-5.3,7.8-6.2l0.8-0.2l-0.3-0.8c-1.7-3.8-0.6-8,0.4-10c0.4-0.6,1-1,1.7-1
	c0.1,0,0.2,0,0.2,0c2,0.3,6.1,1.9,8.3,5.6l0.4,0.7l0.6-0.5c2.9-2.6,6.5-2.8,7.9-2.8c0.6,0,1.1,0,1.6,0.1c0.8,0.1,1.4,0.7,1.5,1.5
	c0.1,1.3,0.4,6-2.7,9.6l-0.6,0.6l0.7,0.4c3.4,1.9,5.1,5.7,5.5,8.3c0.1,0.8-0.3,1.5-1,1.9c-1.9,0.9-3.8,1.3-5.7,1.3
	c-1.5,0-3-0.3-4.2-0.9l-0.8-0.3l-0.2,0.8c-0.9,4.1-4.3,6.8-6.2,7.8C114.6,40.3,114.3,40.4,114,40.4z M115.7,26.4
	c-0.5,0.5-1,1-1.6,1.4l-0.1,0.1l-0.1,0.1c-1.9,3.2-0.7,6.2,0.1,7.7l0.4,0.8l0.6-0.6c2.4-2.4,3.2-4.9,2.4-7.7l-0.1-0.3
	c-0.1-0.4-0.3-0.8-0.5-1.3l-0.4-0.8L115.7,26.4z M119.8,24.5c0.3,0.5,0.5,1.1,0.7,1.6l0.2,0.6l0.1,0.1c1.7,2,3.8,2.5,5.2,2.5
	c0.7,0,1.5-0.1,2.2-0.3l0.7-0.2l-0.3-0.7c-1.4-3-3.6-4.5-6.6-4.6l0,0c-0.3,0-0.6,0-0.9,0.1c-0.2,0-0.5,0.1-0.7,0.1h-1.2L119.8,24.5z
	 M109,21.4c-2.9,0-4.8,1.7-5.8,2.7l-0.6,0.6l0.8,0.4c1.5,0.8,2.9,1.2,4.2,1.2c1.4,0,2.7-0.4,3.9-1.2c0.6-0.3,1-0.7,1.5-1.2l0.8-0.8
	l-1-0.4c-0.4-0.2-0.8-0.4-1.2-0.7c-0.2-0.2-0.5-0.3-0.7-0.5l-0.1-0.1l-0.1,0C110,21.4,109.5,21.4,109,21.4z M125.6,12.8
	c-2.1,0.2-5,1.1-6.5,4.7l-0.7,2.8l1-0.2c0.8-0.1,1.4-0.1,2.2-0.1h0.1l0.1-0.1c3.8-1.6,4.3-5.3,4.4-6.3l0.1-0.8L125.6,12.8z
	 M110,10.9c-0.5,2.2-0.4,5.3,2.6,7.7c0.4,0.4,0.8,0.7,1.5,1l0.8,0.4l0.2-0.9c0.1-0.8,0.3-1.6,0.5-2.2l0.1-0.2l0-0.2
	c-0.3-4.1-3.4-5.7-4.7-6.2l-0.7-0.3L110,10.9z"/>
</svg>
