<?xml version="1.0" encoding="utf-8"?>
<!-- Generator: Adobe Illustrator 19.1.0, SVG Export Plug-In . SVG Version: 6.00 Build 0)  -->
<svg version="1.1" id="Layer_1" xmlns="http://www.w3.org/2000/svg" xmlns:xlink="http://www.w3.org/1999/xlink" x="0px" y="0px"
	 viewBox="35 -34 100 100" style="enable-background:new 35 -34 100 100;" xml:space="preserve">
<g>
	<g>
		<path d="M114.7,25.1H55.8c-0.5,0-0.9-0.3-1-0.8l-4-15.2c-0.1-0.3,0-0.7,0.2-0.9c0.2-0.3,0.5-0.4,0.8-0.4h65.2
			c0.3,0,0.6,0.1,0.8,0.4c0.2,0.2,0.3,0.5,0.2,0.8l-2.4,15.2C115.6,24.7,115.2,25.1,114.7,25.1z M56.6,23h57.1l2.1-13.1H53.2
			L56.6,23z"/>
	</g>
	<g>
		<path d="M79.9,60.9c-12.5,0-13.1-0.6-13.5-0.9C64.7,58.4,56.2,24.3,56.2,24c0-0.6,0.5-1.1,1.1-1.1c0.5,0,1,0.4,1,0.9
			c0.4,2,7.9,31.3,9.5,34.4c3.2,0.8,30.3,0.4,34.1-0.1c1.3-2.8,6-22.3,8.8-34.3c0.1-0.6,0.7-0.9,1.3-0.8c0.6,0.1,0.9,0.7,0.8,1.3
			c-8,35.1-9.2,35.6-9.8,35.8c-1.1,0.4-13.8,0.7-18.1,0.7C83,60.9,81.4,60.9,79.9,60.9z"/>
	</g>
	<g>
		<path d="M84.8,9.7C84.7,9.7,84.7,9.7,84.8,9.7c-0.6,0-1.1-0.5-1.1-1.1L84.2-9c0-0.1,0-0.2,0.1-0.3c0.4-2.3,3.7-16.1,17.8-18.9
			c0.6-0.1,1.1,0.2,1.2,0.8c0.1,0.2,1.2,5.1-1.9,10.1c-2.7,4.4-7.8,7.5-15.1,9.2L85.8,8.7C85.8,9.3,85.3,9.7,84.8,9.7z M101.4-26
			c-10.4,2.6-13.8,11.8-14.8,15.6c6.3-1.6,10.6-4.3,13-8C101.5-21.5,101.6-24.5,101.4-26z"/>
	</g>
	<g>
		<path d="M85.4-7.9c-0.1,0-0.1,0-0.2,0c-19.9-3.5-20-19.2-20-19.3c0-0.6,0.5-1,1-1c0.1,0,0.3,0,0.4,0c15.7,0,19.7,18.6,19.8,18.8
			c0,0.1,0,0.3,0,0.4c0,0.1,0,0.2,0,0.4C86.3-8.3,85.9-7.9,85.4-7.9z M67.3-26.2C67.7-23,70-13.4,84-10.3
			C83-14.1,78.8-25.7,67.3-26.2z"/>
	</g>
</g>
</svg>
