<?xml version="1.0" encoding="utf-8"?>
<!-- Generator: Adobe Illustrator 19.1.0, SVG Export Plug-In . SVG Version: 6.00 Build 0)  -->
<svg version="1.1" id="Layer_1" xmlns="http://www.w3.org/2000/svg" xmlns:xlink="http://www.w3.org/1999/xlink" x="0px" y="0px"
	 viewBox="74 -74 180 180" style="enable-background:new 74 -74 180 180;" xml:space="preserve">
<style type="text/css">
	.st0{display:none;}
	.st1{display:inline;fill:#5D5D5D;}
	.st2{fill:none;}
</style>
<g class="st0">
	<path class="st1" d="M147.3-101.9c0.3,0.5,0.8,0.8,1.4,0.8c0.3,0,0.5,0,0.8-0.2c0.8-0.5,1.1-1.4,0.6-2.2l-8.5-15.9
		c-0.5-0.8-1.4-1.1-2.2-0.6s-1.1,1.4-0.6,2.2L147.3-101.9z"/>
	<path class="st1" d="M166.9-101.1c0.9,0,1.5-0.6,1.5-1.5v-30.5c0-0.9-0.6-1.5-1.5-1.5c-0.9,0-1.5,0.6-1.5,1.5v30.5
		C165.4-101.9,166-101.1,166.9-101.1z"/>
	<path class="st1" d="M114.9-53.9c0,0.9,0.6,1.5,1.5,1.5h42.8c0.9,0,1.5-0.6,1.5-1.5c0-0.9-0.6-1.5-1.5-1.5h-42.7
		C115.7-55.4,114.9-54.8,114.9-53.9z"/>
	<path class="st1" d="M114.9-43.6c0,0.9,0.6,1.5,1.5,1.5h42.8c0.9,0,1.5-0.6,1.5-1.5c0-0.9-0.6-1.5-1.5-1.5h-42.7
		C115.7-45.2,114.9-44.6,114.9-43.6z"/>
	<path class="st1" d="M114.9-33c0,0.9,0.6,1.5,1.5,1.5h42.8c0.9,0,1.5-0.6,1.5-1.5s-0.6-1.5-1.5-1.5h-42.7
		C115.7-34.6,114.9-33.9,114.9-33z"/>
	<path class="st1" d="M184.3-101.3c0.2,0.2,0.5,0.2,0.8,0.2c0.6,0,1.1-0.3,1.4-0.8l8.3-16c0.5-0.8,0.2-1.7-0.6-2.2
		c-0.8-0.5-1.7-0.2-2.2,0.6l-8.3,15.9C183.2-102.7,183.5-101.8,184.3-101.3z"/>
	<path class="st1" d="M206.2-100.7c0.5,0,0.9-0.2,1.2-0.5l8.9-10.5c0.6-0.6,0.5-1.7-0.2-2.2c-0.6-0.6-1.5-0.5-2.2,0.2l-8.9,10.5
		c-0.6,0.6-0.5,1.7,0.2,2.2C205.6-100.7,205.9-100.7,206.2-100.7z"/>
	<path class="st1" d="M197.9-39.8l-1.5-0.5v10l1.4-0.2c3.6-0.7,4.9-3,4.9-4.9C202.7-38.3,199.5-39.2,197.9-39.8z M198.7-33.2v-3.9
		c1.4,0.6,1.7,1.1,1.7,1.7C200.4-34.4,199.7-33.6,198.7-33.2z"/>
	<path class="st1" d="M228.5-86.7H105.3c-4.5,0-8,3.5-8,8v71.2c0,4.5,3.5,8,8,8h123.2c4.5,0,8-3.5,8-8v-71.2
		C236.5-83.1,233-86.7,228.5-86.7z M233.4-7.5c0,2.8-2.2,4.9-4.9,4.9H105.3c-2.8,0-4.9-2.2-4.9-4.9v-71.2c0-2.8,2.2-4.9,4.9-4.9
		h123.2c2.8,0,4.9,2.2,4.9,4.9V-7.5z"/>
	<path class="st1" d="M198.7-47.6v-4.9c1.8,0.6,3.4,1.6,4.7,2.7l0.9,0.8l5.6-7.4l-0.8-0.7c-2.8-2.6-6.3-4.2-10.4-4.9v-5.1h-7.3v5
		c-6.8,1-11.3,5.7-11.3,11.6c0,8.1,6.9,10.4,11.3,11.4v5.8c-3.2-0.9-5.4-2.7-6.4-3.9l-0.9-1l-5.5,7.7l0.7,0.7
		c3.2,3.2,7.3,5.1,12.2,5.7v4.9h7.3v-4.9c7.3-1.1,11.6-5.6,11.6-12.2C210.3-44.2,203.2-46.5,198.7-47.6z M197.5-26.1l-1,0.1v4.7
		h-2.7V-26l-1-0.1c-4.4-0.3-8.2-1.9-11.1-4.6l2.7-4c2.3,2.1,5,3.4,8,3.9l1.4,0.2V-41l-0.9-0.2c-6.5-1.6-10.5-3.6-10.5-9.5
		c0-5,4.1-8.8,10.4-9.5l1-0.1v-4.8h2.7v4.9l1,0.1c3.6,0.5,6.8,1.7,9.3,3.8l-2.8,3.8c-1.7-1.4-3.9-2.3-6.2-2.8l-1.4-0.3v9.8l0.9,0.2
		c6.6,1.7,10.7,3.9,10.7,9.6S204.2-26.8,197.5-26.1z"/>
	<path class="st1" d="M126.2-101.1c0.3,0.3,0.8,0.5,1.2,0.5c0.3,0,0.8-0.2,0.9-0.3c0.6-0.6,0.8-1.5,0.2-2.2l-8.9-10.5
		c-0.6-0.6-1.5-0.8-2.2-0.2c-0.7,0.6-0.8,1.5-0.2,2.2L126.2-101.1z"/>
	<path class="st1" d="M187.8-51.1c0,2.7,3,3.6,4.4,4.1l1.5,0.5v-9.2l-1.3,0.2C189.6-55.2,187.8-53.5,187.8-51.1z M191.4-49.7
		c-1.1-0.6-1.4-1-1.4-1.4c0-1,0.7-1.6,1.4-1.9V-49.7z"/>
</g>
<g>
	<path class="st2" d="M151.5,41.9c0,11.5,4.9,21.9,12.8,29.2c7.9-7.3,12.8-17.7,12.8-29.2c0-11.5-4.9-21.9-12.8-29.2
		C156.4,19.9,151.5,30.3,151.5,41.9z"/>
	<path class="st2" d="M147.8,41.9c0-12.4,5.3-23.6,13.7-31.6c-6.7-5.1-15.1-8.2-24.1-8.2c-21.9,0-39.7,17.8-39.7,39.7
		c0,21.9,17.8,39.7,39.7,39.7c9.1,0,17.4-3.1,24.1-8.2C153.1,65.5,147.8,54.3,147.8,41.9z"/>
	<path class="st2" d="M191.2,2.1c-9.1,0-17.4,3.1-24.1,8.2c8.4,7.9,13.7,19.1,13.7,31.6c0,12.4-5.3,23.6-13.7,31.6
		c6.7,5.1,15.1,8.2,24.1,8.2c21.9,0,39.7-17.8,39.7-39.7C230.9,19.9,213.1,2.1,191.2,2.1z"/>
	<path d="M207.7,1.8c0.3-0.2,0.5-0.4,0.6-0.7l7.6-16.8c0.3-0.6,0.2-1.2-0.1-1.8l-8.9-13.3c-0.3-0.5-0.9-0.8-1.5-0.8h-28.2
		c-0.6,0-1.2,0.3-1.5,0.8l-8.9,13.3c-0.4,0.5-0.4,1.2-0.1,1.8L174,1c0.1,0.3,0.3,0.5,0.6,0.7c-3.7,1.6-7.2,3.6-10.4,6.1
		c-7.4-5.9-16.8-9.4-26.9-9.4C113.4-1.5,94,17.9,94,41.9c0,23.9,19.5,43.4,43.4,43.4c10.2,0,19.5-3.5,26.9-9.4
		c7.4,5.9,16.8,9.4,26.9,9.4c23.9,0,43.4-19.5,43.4-43.4C234.6,23.8,223.5,8.3,207.7,1.8z M170.2-16.3l7.8-11.7h26.3l7.8,11.7
		l-6.7,14.8h-28.6L170.2-16.3z M137.4,81.6c-21.9,0-39.7-17.8-39.7-39.7c0-21.9,17.8-39.7,39.7-39.7c9.1,0,17.4,3.1,24.1,8.2
		c-8.4,7.9-13.7,19.1-13.7,31.6c0,12.4,5.3,23.6,13.7,31.6C154.8,78.5,146.4,81.6,137.4,81.6z M177.1,41.9
		c0,11.5-4.9,21.9-12.8,29.2c-7.9-7.3-12.8-17.7-12.8-29.2c0-11.5,4.9-21.9,12.8-29.2C172.1,19.9,177.1,30.3,177.1,41.9z
		 M191.2,81.6c-9.1,0-17.4-3.1-24.1-8.2c8.4-7.9,13.7-19.1,13.7-31.6c0-12.4-5.3-23.6-13.7-31.6c6.7-5.1,15.1-8.2,24.1-8.2
		c21.9,0,39.7,17.8,39.7,39.7C230.9,63.8,213.1,81.6,191.2,81.6z"/>
	<path d="M164.7-42.2c0.4,0.3,0.8,0.5,1.3,0.5c0.5,0,1-0.2,1.3-0.6c0.7-0.7,0.7-1.9-0.1-2.6l-7-6.7c-0.7-0.7-1.9-0.7-2.6,0.1
		s-0.7,1.9,0.1,2.6L164.7-42.2z"/>
	<path d="M191.3-45.7C191.3-45.7,191.3-45.7,191.3-45.7c1,0,1.8-0.9,1.8-1.9l-0.2-9.7c0-1-0.8-1.8-1.9-1.8c-1,0-1.8,0.9-1.8,1.9
		l0.2,9.7C189.5-46.5,190.3-45.7,191.3-45.7z"/>
	<path d="M213.2-41.4c0.3,0.2,0.7,0.3,1,0.3c0.6,0,1.1-0.3,1.5-0.8l5.6-8c0.6-0.8,0.4-2-0.4-2.5c-0.8-0.6-2-0.4-2.5,0.4l-5.6,8
		C212.2-43.1,212.4-42,213.2-41.4z"/>
	<path d="M187.4-9.3H182l-3.2-7.7c-0.4-0.9-1.4-1.4-2.4-1c-0.9,0.4-1.4,1.4-1,2.4l3.6,8.9c0.3,0.7,0.9,1.1,1.7,1.1h6.6
		c1,0,1.8-0.8,1.8-1.8S188.4-9.3,187.4-9.3z"/>
	<path d="M193.8-5.6c0.5,0,0.9-0.2,1.3-0.5c0.3-0.3,0.5-0.8,0.5-1.3c0-0.5-0.2-1-0.5-1.3c-0.7-0.7-1.9-0.7-2.6,0
		c-0.3,0.3-0.5,0.8-0.5,1.3c0,0.5,0.2,0.9,0.5,1.3C192.8-5.8,193.3-5.6,193.8-5.6z"/>
</g>
</svg>
