<?xml version="1.0" encoding="utf-8"?>
<!-- Generator: Adobe Illustrator 19.1.0, SVG Export Plug-In . SVG Version: 6.00 Build 0)  -->
<svg version="1.1" id="Layer_1" xmlns="http://www.w3.org/2000/svg" xmlns:xlink="http://www.w3.org/1999/xlink" x="0px" y="0px"
	 viewBox="0 0 151 132" style="enable-background:new 0 0 151 132;" xml:space="preserve">
<style type="text/css">
	.st0{fill:#010101;}
</style>
<g>
	<path class="st0" d="M96.9,126.6c-0.9,0-1.7-0.7-1.8-1.7l-1-12.2h-1.3l-1,12.2c-0.1,0.9-0.9,1.7-1.8,1.7H30.6c-1,0-1.8-0.8-1.8-1.8
		V97.4c0-10.7,2.8-20.8,7.9-28.4l0.4-0.5l0.1-0.2l4.2-21.6l-0.4-0.2c-0.6-0.3-1-0.9-1-1.6V29.7c0-5.2,1.4-10.8,3.8-15
		c3-5.3,7.6-8.3,12.7-8.3s9.7,2.9,12.7,8.3c2.4,4.2,3.8,9.8,3.8,15v11.9l1.3,0.2l3-11.4c0.1-0.3,0.2-0.6,0.4-0.8
		c0.3-0.4,0.8-0.6,1.3-0.6h12.7v-2.9l-0.4-0.1c-3.8-1.2-6.5-5.3-6.5-10c0-5.7,3.9-10.4,8.7-10.4s8.7,4.7,8.7,10.4
		c0,4.7-2.7,8.8-6.5,10l-0.4,0.1V29h12.7c0.5,0,1,0.2,1.3,0.6c0.3,0.3,0.4,0.6,0.5,1l7,41.5c0.1,0.5-0.1,1-0.4,1.5
		c-0.3,0.4-0.8,0.6-1.4,0.6h-7.3v50.7c0,1-0.8,1.8-1.8,1.8H96.9z M93.4,81.2c0.9,0,1.7,0.7,1.8,1.7l3.3,40.1h5.5V71.8H82.8v13.4
		l0,0.1c0.8,3.9,1.2,8,1.2,12.1V123h4.3l3.3-40.1C91.7,81.9,92.5,81.2,93.4,81.2z M56.4,60.4c-6.3,0-12.2,3.7-16.8,10.5
		c-4.7,7-7.3,16.4-7.3,26.4V123h48l0-25.6c0-4.2-1.3-17.2-7.3-26.4C68.8,64.2,62.8,60.4,56.4,60.4z M73.6,58.1l0,0.2l0,0.2l1.6,9.2
		l0.1,0.1c0.3,0.4,0.6,0.8,0.8,1.2c0.6,0.9,1.2,1.9,1.8,3l1.2-0.3v-0.8l-0.1-0.1c-0.1-0.2-0.2-0.4-0.2-0.7l-1.1-23.1l-1.3-0.1
		L73.6,58.1z M108.7,53.1l-0.8,17.3h4.9L110,53.1L108.7,53.1z M82.5,68.1h9.2V42.7l-4.5-10.1h-6.3L82.5,68.1z M95.2,42.7v25.5h9.2
		l1.6-35.6h-6.3L95.2,42.7z M41.8,62.8l1.4-1.1c1.5-1.2,3.1-2.2,4.7-3l0.5-0.2L48.3,58c-0.3-1.7-1.2-4.9-3.1-7.1l-0.9-1L41.8,62.8z
		 M67.6,51.1c-1.9,2.2-2.7,5.3-3,7l-0.1,0.5l0.5,0.2c1.5,0.7,3,1.6,4.4,2.7l1.3,1L68.5,50L67.6,51.1z M51.4,40.6
		c-3,0-4.4,1.2-4.9,2.3c-1,1.8-0.5,3.9,0.6,4.9c2.8,2.7,4.1,6.8,4.6,9l0.1,0.6l0.6-0.1c1.3-0.3,2.7-0.4,4-0.4c1.3,0,2.7,0.1,4,0.4
		l0.6,0.1l0.1-0.6c0.5-2.2,1.8-6.3,4.6-9c1.1-1,1.6-3.2,0.6-4.9c-0.6-1-1.9-2.3-4.9-2.3c-1.3,0-2.7,0.2-4.3,0.7
		c-0.2,0-0.3,0.1-0.5,0.1c-0.1,0-0.2,0-0.2,0l-0.1,0c-0.1,0-0.1,0-0.2,0c-0.2,0-0.3,0-0.5-0.1C54.1,40.8,52.6,40.6,51.4,40.6z
		 M56.4,10c-8.8,0-12.9,11.7-12.9,19.6v10.8l1.1-1.1c1.7-1.6,4-2.5,6.8-2.5c0.9,0,1.8,0.1,2.7,0.2l0.7,0.1v-3.7l-0.5-0.1
		c-3.7-1.1-6.3-4.8-6.3-9.1c0-5.2,3.8-9.4,8.4-9.4s8.4,4.2,8.4,9.4c0,4.1-2.4,7.8-5.9,9l-0.4,0.2v3.7l0.7-0.1
		c0.8-0.1,1.6-0.2,2.3-0.2c2.9,0,5.2,0.8,6.8,2.5l1.1,1.1V29.7C69.3,21.7,65.2,10,56.4,10z M93.4,37.9l2.4-5.3H91L93.4,37.9z
		 M56.4,18.5c-2.6,0-4.8,2.6-4.8,5.8c0,3.2,2.1,5.8,4.8,5.8c2.6,0,4.8-2.6,4.8-5.8C61.2,21.1,59,18.5,56.4,18.5z M93.4,9.1
		c-2.8,0-5.1,3.1-5.1,6.8s2.3,6.8,5.1,6.8c2.8,0,5.1-3.1,5.1-6.8S96.2,9.1,93.4,9.1z"/>
</g>
</svg>
