<?xml version="1.0" encoding="utf-8"?>
<!-- Generator: Adobe Illustrator 19.1.0, SVG Export Plug-In . SVG Version: 6.00 Build 0)  -->
<svg version="1.1" id="Layer_1" xmlns="http://www.w3.org/2000/svg" xmlns:xlink="http://www.w3.org/1999/xlink" x="0px" y="0px"
	 viewBox="35 -34 100 100" style="enable-background:new 35 -34 100 100;" xml:space="preserve">
<g transform="translate(0,-952.36216)">
	<path d="M84.4,922.6c-25.4,0-46,20.6-46,46c0,25.4,20.6,46,46,46s46-20.6,46-46C130.5,943.2,109.8,922.6,84.4,922.6z M84.4,925.7
		c23.7,0,43,19.2,43,43c0,23.7-19.2,43-43,43s-43-19.2-43-43C41.5,944.9,60.7,925.7,84.4,925.7z"/>
	<path d="M84.5,942.1c-9.8-0.1-17.7,8.1-17.8,18.1l3.1,0c0.1-8.4,6.7-15.1,14.7-15c8.1,0,14.6,6.8,14.6,15.2
		c0,8.4-6.6,15.2-14.6,15.2l0,3.1c9.8,0,17.7-8.2,17.7-18.3C102.2,950.4,94.3,942.2,84.5,942.1L84.5,942.1z"/>
	<path d="M82.9,975.6v9.9H86v-9.9L82.9,975.6L82.9,975.6z"/>
	<path d="M82.9,990.1v5H86v-5H82.9z"/>
</g>
</svg>
