<?xml version="1.0" encoding="utf-8"?>
<!-- Generator: Adobe Illustrator 19.0.1, SVG Export Plug-In . SVG Version: 6.00 Build 0)  -->
<svg version="1.1" id="Layer_1" xmlns="http://www.w3.org/2000/svg" xmlns:xlink="http://www.w3.org/1999/xlink" x="0px" y="0px"
	 viewBox="0 0 54.5 55" style="enable-background:new 0 0 54.5 55;" xml:space="preserve">
<style type="text/css">
	.st0{fill:#FFFFFF;}
</style>
<g>
	<g>
		<path class="st0" d="M10.9,55c-1,0-2.3,0-3.5-0.3C6,54.5,5,54,4.1,53.3c-0.7-0.5-1.2-1.2-1.7-1.9c-0.7-1.2-0.9-2.6-1.1-3.8
			c-0.2-1.4-0.2-3-0.2-4.4l0-3.5v-25c0-1.7,0-3.3,0.2-4.9C1.5,8,1.9,6.7,2.6,5.6C3.1,4.7,3.8,4,4.7,3.5c1.2-0.7,2.7-1.1,4.7-1.2
			c2.5-0.1,5.1-0.2,7.7-0.2l8.7,0c0.5,0,1.1,0,1.9,0.1l2.4,0.1c2.3,0.1,5.6,0.1,10.5,0.1l2.8,0c1.8,0,3,0.1,4.1,0.2
			c1.1,0.2,2,0.4,2.8,0.8c0.5,0.3,1,0.6,1.3,1.1c0.5,0.6,0.8,1.3,1,2.1c0.3,1,0.4,2.2,0.4,3.9l0,0.6c0,1.5,0.1,6.2,0.2,11.7
			c0,0,0.4,21.1,0.4,21.7c-0.1,1.5-0.2,2.8-0.3,3.9c-0.2,1.3-0.4,2.2-0.8,3c-0.3,0.6-0.7,1.1-1.1,1.5c-0.6,0.5-1.4,1-2.4,1.2
			c-1.3,0.4-2.8,0.5-4.9,0.5c-4.7,0-9.7,0.1-14.5,0.1c-4.3,0.1-8.3,0.1-11.8,0.1c0,0-3,0-3.1,0C13.9,54.9,11.6,55,10.9,55z
			 M2.7,39.6l0,3.6c0,1.4,0,2.9,0.2,4.2c0.2,1.4,0.5,2.5,0.9,3.2c0.3,0.6,0.8,1.1,1.3,1.5c0.5,0.4,1,0.7,1.6,0.9
			c1,0.4,2.4,0.5,4.2,0.5c0.6,0,3.1-0.1,3.7-0.1l3.2,0c3.4,0,7.4-0.1,11.7-0.1c4.8-0.1,9.8-0.1,14.5-0.1c1.7,0,3-0.1,4-0.3
			c1-0.2,1.7-0.5,2.2-0.9c0.3-0.3,0.6-0.6,0.8-1c0.3-0.5,0.5-1.2,0.7-2.1c0.2-1.1,0.3-2.5,0.4-4.3c0-0.6-0.3-18.7-0.3-18.7l-11.9,0
			l0.2,0.8c0.2,1,0.3,2.1,0.3,3.2c0,3.2-1.2,6.1-3.3,8.3c-2.3,2.3-5.6,3.6-9.3,3.6c-2.1,0-4.3-0.6-6.2-1.6c-2.2-1.2-3.9-2.9-4.9-5
			c-0.8-1.6-1.2-3.3-1.2-5.3c0-1.3,0.1-2.5,0.4-3.7l0.2-0.8h-0.8c-3.7,0-7.3,0-11.8-0.2l-0.7,0V39.6z M27.5,18.5
			c-3.2,0-5.7,1-7.6,3.1c-1.9,2-2.9,5-2.9,8.4c0,1.7,0.3,3.2,1,4.6c0.6,1.2,1.5,2.3,2.6,3.2c1.9,1.6,4.6,2.5,7.1,2.5
			c3.4,0,6.2-1.1,8.3-3.2c1.9-1.9,2.9-4.4,2.9-7.1c0-1.6-0.3-3.2-0.7-4.5c-0.2-0.7-0.4-1.1-0.7-1.6c-1-2-2.5-3.4-4.5-4.3
			C31.4,18.8,29.6,18.5,27.5,18.5l-0.1-0.2L27.5,18.5z M27.5,16.9c2.3,0,4.3,0.4,6.1,1.2c1.6,0.7,2.9,1.7,4,3
			c0.7,0.8,1.2,1.7,1.6,2.8l0.2,0.4l7.5,0l4.9,0l0-0.7c-0.1-5.7-0.2-10.8-0.2-12.2l0-0.6c0-1.6-0.1-2.6-0.2-3.4s-0.4-1.4-0.8-1.8
			c-0.2-0.3-0.5-0.5-0.8-0.7c-0.5-0.3-1.1-0.5-1.9-0.6c-1-0.2-2.3-0.3-4.1-0.3l-3.1,0c-4.9,0-8.2-0.1-10.5-0.1c0,0-3.9-0.2-4.2-0.2
			l-8.8,0c-2.6,0-5.2,0-7.6,0.1C7.6,3.9,6.2,4.3,5.1,5.1C4.3,5.7,3.7,6.5,3.3,7.8c-0.2,0.7-0.4,1.6-0.5,2.6
			c-0.1,1.3-0.1,2.7-0.1,4.2v9l0.6,0c5,0.2,8.8,0.2,12.8,0.2h0.4l0.2-0.4c0.5-1.1,1.2-2.2,2-3C20.8,18.2,23.9,16.9,27.5,16.9
			L27.5,16.9z"/>
	</g>
	<g>
		<path class="st0" d="M27.8,36.3c-1.2,0-2.4-0.3-3.5-0.9c-0.8-0.5-2-1.3-2.7-2.8c-0.4-0.9-0.7-1.9-0.7-3c0-2.1,0.6-4,1.8-5.3
			c1.2-1.3,2.9-2,4.9-2c1.3,0,2.5,0.2,3.4,0.6c0.9,0.4,1.6,1,2.2,1.7c1.3,1.6,1.6,3.5,1.6,4.8c0,1.8-0.7,3.4-1.9,4.7
			C31.7,35.6,29.9,36.3,27.8,36.3L27.8,36.3z M27.6,23.9c-1.6,0-2.8,0.5-3.8,1.5c-0.9,1-1.4,2.5-1.4,4.2c0,0.9,0.2,1.6,0.5,2.3
			c0.3,0.6,0.7,1.1,1.3,1.6c0.9,0.8,2.3,1.2,3.5,1.2c1.7,0,3.1-0.5,4.1-1.6c0.9-0.9,1.4-2.2,1.4-3.5c0-1.2-0.2-2.2-0.7-3.1
			c-0.5-1-1.2-1.7-2.2-2.1C29.6,24.1,28.7,23.9,27.6,23.9L27.6,23.9z"/>
	</g>
	<g>
		<path class="st0" d="M38.1,17.3c-0.4,0-0.8-0.3-0.8-0.7L37.1,9l0.1-0.4l0.4-0.3c2.6,0,6.3-0.2,8-0.3l0.9,0c0.2,0,0.4,0.1,0.6,0.2
			c0.2,0.1,0.2,0.4,0.2,0.6v7.8c0,0.4-0.3,0.8-0.8,0.8L38.1,17.3z M45,9.6c-1.5,0.1-3.8,0.1-5.7,0.2l-0.7,0l0.2,6l6.8,0V9.5L45,9.6z
			"/>
	</g>
</g>
</svg>
