<?xml version="1.0" encoding="utf-8"?>
<!-- Generator: Adobe Illustrator 19.0.1, SVG Export Plug-In . SVG Version: 6.00 Build 0)  -->
<svg version="1.1" id="Layer_1" xmlns="http://www.w3.org/2000/svg" xmlns:xlink="http://www.w3.org/1999/xlink" x="0px" y="0px"
	 viewBox="0 0 484 94" style="enable-background:new 0 0 484 94;" xml:space="preserve">
<style type="text/css">
	.st0{fill:#FFFFFF;}
	.st1{fill:#AFD139;}
	.st2{fill:#D5DF3E;}
</style>
<g>
	<g>
		<g>
			<path class="st0" d="M18.1,18.4h0.4l5.5-0.1c10.9,0,15.7,5.5,15.7,18.1c0,9.9-1.2,13.2-5.4,15.8c-2.5,1.5-3.5,1.8-7.2,2.2
				C39,55.3,44,60.4,44,71.7c0,10.9-2.9,15.7-10.7,18c-2.5,0.7-5.3,1-8.2,1h-0.4H0.4v-0.8h5.4V19.3l-5.4,0.1v-0.9L18.1,18.4z
				 M13,54.3h9.8h0.4c8,0,9.7-2.7,9.7-15.4c0-13.2-0.9-16.9-4.1-18.7c-1-0.5-3.8-1-6.2-1h-0.1L13,19.3V54.3z M13,89.8l8.8,0.1H22
				h0.2c4.5,0,7.6-0.3,8.8-0.8c4.4-1.7,5.9-5.2,5.9-14.4c0-1,0-1.8,0-2.8l-0.2-7.4c-0.3-6.7-3.8-9.5-12.1-9.5h-0.3H13V89.8z"/>
			<path class="st0" d="M25,91.1H0v-1.7h5.4V19.8L0,19.9v-1.8L18.5,18l5.5-0.1c11.2,0,16.2,5.7,16.2,18.5c0,10-1.2,13.5-5.6,16.2
				c-1.6,0.9-2.5,1.4-3.9,1.8c9.6,1.6,13.7,7,13.7,17.4c0,11.1-3,16.1-11,18.4C30.9,90.8,28,91.1,25,91.1z M6.3,90.3h6.3V18.9
				l-6.3,0V90.3z M29.7,55.1c4.8,1.1,7.1,4.1,7.4,9.5l0.2,7.4l0,2.8c0,9.4-1.5,13-6.1,14.8c-0.4,0.2-1,0.3-1.8,0.4
				c1.3-0.2,2.6-0.4,3.8-0.7c7.7-2.2,10.4-6.8,10.4-17.5C43.5,61.4,39.5,56.5,29.7,55.1z M13.5,89.4l8.8,0.1c4.1,0,7.4-0.3,8.6-0.7
				c4.3-1.7,5.6-4.9,5.6-14V72l-0.2-7.4c-0.3-6.5-3.6-9.1-11.7-9.1h-11V89.4z M25.7,54.6c0.5,0,1,0,1.4,0.1l0-0.3
				C26.7,54.5,26.2,54.6,25.7,54.6z M13.5,53.9h9.7c7.7,0,9.3-2.5,9.3-14.9c0-12.8-0.8-16.6-3.9-18.4c-0.9-0.5-3.6-0.9-6-0.9h-0.1
				l-9.1,0.1V53.9z M23.8,18.8c2,0.1,4.3,0.5,5.2,1c3.5,2,4.3,5.7,4.3,19.1c0,6.9-0.5,10.5-1.9,12.7c-0.6,1-1.4,1.7-2.4,2.2
				c2.1-0.3,3.1-0.7,5.1-1.9c4.1-2.5,5.2-5.8,5.2-15.4c0-12.4-4.6-17.6-15.3-17.6L23.8,18.8z"/>
		</g>
		<g>
			<path class="st0" d="M102.4,89.9h6v0.8h-20v-0.8h6.3l-8.2-27.4H62.1L54,89.9h6v0.8H45.2v-0.8h6.3l21.2-70.6h-7.4v-0.8h22.7v0.8
				h-7.3L102.4,89.9z M62.9,59.5h22.4l-11.3-37L62.9,59.5z"/>
			<path class="st0" d="M108.8,91.1H87.9v-1.7H94L86,63H62.4l-7.9,26.5h5.8v1.7H44.7v-1.7h6.4l21-69.7h-7.2v-1.7h23.6v1.7h-7.1
				l21.3,69.7h6.1V91.1z M95.1,90.3h6.9L80.3,19h-7L51.8,90.3h1.6l8.3-28.2h24.9L95.1,90.3z M86,59.9H62.3l11.8-39L86,59.9z
				 M63.5,59.1h21.2L74.1,24L63.5,59.1z"/>
		</g>
		<g>
			<path class="st0" d="M151.5,39.7h-3.8v-0.1c-0.1-11.8-7.5-21-16.9-21c-7,0-12.4,4.9-13.4,12.1c-0.4,2.7-0.6,6-0.6,9.8v0.3
				l0.1,28.9v0.2c0,11.2,1.8,16.4,6.6,19.2c2.2,1.3,4.8,1.8,7.6,1.8c10.3,0,16.4-7.2,16.4-19.8v-0.3h5v0.1
				c0,12.1-9.1,20.8-21.7,20.8c-8.6,0-16.4-4.9-19-12.1c-1.4-3.9-2.2-9.3-2.2-15.8v-0.3V46.5v-0.3c0-15.9,2.9-22.3,12.1-26.5
				c2.8-1.2,5.8-1.8,9.1-1.8c9.2,0,16.4,4.8,19.4,13l0.1-11.7h1.2V39.7z"/>
			<path class="st0" d="M130.7,92.1c-8.8,0-16.8-5.1-19.4-12.4c-1.4-4-2.2-9.5-2.2-16V46.2c0-16.1,3-22.6,12.4-26.9
				c3-1.3,6.1-1.9,9.3-1.9c8.7,0,15.5,4.1,19,11.3l0.1-10h2.1v21.5h-4.7v-0.6C147.1,28,139.9,19,130.8,19c-6.7,0-11.9,4.7-13,11.8
				c-0.4,2.7-0.6,5.9-0.6,9.7v0.3l0.1,29.1c0,10.9,1.7,16,6.4,18.8c2,1.2,4.4,1.8,7.4,1.8c10.1,0,15.9-7.1,15.9-19.4v-0.8h5.9v0.6
				C152.8,83.2,143.5,92.1,130.7,92.1z M127.5,18.5c-1.9,0.3-3.8,0.8-5.7,1.6c-9,4.1-11.9,10.5-11.9,26.1v17.5
				c0,6.4,0.7,11.8,2.1,15.7c2.1,5.8,7.7,10.1,14.4,11.4c-1.2-0.3-2.3-0.8-3.3-1.4c-5-2.9-6.8-8.2-6.8-19.6v-0.2l-0.1-29.2
				c0-3.8,0.2-7.1,0.7-9.8C117.8,24.3,121.9,19.7,127.5,18.5z M147.8,71.2c0,10-3.8,16.7-10.5,19.1c8.6-2.5,14.4-9.7,14.6-19.1
				H147.8z M148.1,39.2h2.9V19.5h-0.3l-0.1,11.3l-0.9,0.2c-2.6-7.2-8.4-11.6-16-12.5C141.8,20.1,147.9,28.6,148.1,39.2z"/>
		</g>
		<g>
			<path class="st0" d="M177.8,18.6v0.8h-6.4v33.5h28.8V19.4h-6.4v-0.9h20.4v0.8h-6.5v70.5h6.5v0.9h-20.4v-0.8h6.4V55.8h-28.8v34
				h6.4v0.9h-20.3v-0.8h6.5V19.4h-6.6v-0.9H177.8z"/>
			<path class="st0" d="M214.7,91.1h-21.3v-1.7h6.4V56.3h-27.9v33.1h6.4v1.8h-21.1v-1.7h6.5V19.9H157v-1.8h21.3v1.7h-6.4v32.6h27.9
				V19.9h-6.4v-1.8h21.3v1.7h-6.5v69.6h6.5V91.1z M200.7,90.3h6.6V19h-6.6v34.2H171V19h-6.5v71.3h6.5V55.4h29.7V90.3z"/>
		</g>
		<g>
			<path class="st0" d="M244,18.6v0.8h-7.2l19.5,58.4l19.2-58.3h-6.7v-0.9h20.4v0.8H283l3.9,70.6h6.2v0.8h-20.4v-0.8h6.4l-3.2-66
				l-22.3,66.7h-0.4l-22.5-67.4l-3.4,66.6h6.4v0.8h-15.2v-0.8h6.8l3.7-70.5h-7.4v-0.9H244z"/>
			<path class="st0" d="M293.5,91.1h-21.3v-1.7h6.4l-3.1-63.1l-21.7,64.8h-1.1l-0.1-0.3l-21.8-65.1l-3.2,63.8h6.4v1.7H218v-1.7h6.8
				l3.6-69.6h-7.3v-1.8h23.3v1.7h-7l18.9,56.5l18.6-56.4h-6.5v-1.8h21.3v1.7h-6.2l3.9,69.7h6.2V91.1z M279.6,90.3h6.9l0-0.3l-3.9-71
				h-6.4l-19.8,60.1L236.3,19h-6.9l-3.7,71.3h1.1l3.4-67l0.9-0.1l22.3,66.8l22.1-66.1l0.9,0.1L279.6,90.3z"/>
		</g>
		<g>
			<path class="st0" d="M351.3,89.9h6v0.8h-20v-0.8h6.3l-8.2-27.4H311l-8.1,27.4h6v0.8h-14.7v-0.8h6.3l21.2-70.6h-7.4v-0.8H337v0.8
				h-7.3L351.3,89.9z M311.8,59.5h22.4l-11.3-37L311.8,59.5z"/>
			<path class="st0" d="M357.7,91.1h-20.9v-1.7h6.1l-8-26.5h-23.6l-7.9,26.5h5.8v1.7h-15.6v-1.7h6.4l21-69.7h-7.2v-1.7h23.6v1.7
				h-7.1l21.3,69.7h6.1V91.1z M344,90.3h6.9l-0.1-0.2L329.1,19h-7l-21.4,71.3h1.6l8.4-28.2h24.9L344,90.3z M334.8,59.9h-23.6
				l11.8-39L334.8,59.9z M312.4,59.1h21.2L323,24L312.4,59.1z"/>
		</g>
		<g>
			<path class="st0" d="M373,18.6l31.6,55.4V19.4h-6.5v-0.9h14.4v0.8h-5.8v72.3h-0.2l-39.4-68.9v67.2h6.4v0.9h-14.6v-0.8h6.4V19.4
				h-6.5v-0.9H373z"/>
			<path class="st0" d="M407.2,92h-0.9l-0.1-0.2l-38.6-67.4v65h6.4v1.8h-15.5v-1.7h6.4V19.9h-6.5v-1.8h15l30.9,54.1V19.9h-6.5v-1.8
				H413v1.7h-5.8V92z M366.6,21l39.6,69.3V19h-1.2v56.6L372.8,19h-7.1v71.3h0.9V21z"/>
		</g>
		<g>
			<path class="st0" d="M466.4,38.6h-4v-0.3c-0.9-14.6-4.9-19.8-15.2-19.8c-8.3,0-14,6.3-14,15.7c0,9.3,3.9,14.1,13.8,16.8l5.1,1.4
				c10.9,3,15.6,8.6,15.6,18.6c0,12.5-7.9,20.6-19.6,20.6c-1.2,0-2.8-0.1-4.8-0.3c-0.5-0.1-0.9-0.1-1.1-0.1l-1.2-0.3l-2.5-0.1h-2.7
				h-0.3h-5.1l-0.1-16.1h0.9v6c3.4,6.4,9.7,10.3,16.5,10.3c8.6,0,14-6.2,14-16c0-8.9-3-12.5-12.9-15.4c-10.4-3-11.2-3.3-14-5.5
				c-3.8-2.8-6.1-8.1-6.1-14.2c0-12.6,8.3-22.1,19.2-22.1c8.5,0,14,4.2,17.6,13.3V18.7h0.9L466.4,38.6z"/>
			<path class="st0" d="M448.1,92c-1.2,0-2.8-0.1-4.8-0.3c-0.5-0.1-0.8-0.1-1-0.1l-0.1,0l-1.1-0.3l-2.4-0.1l-8.5,0l-0.1-17h1.8v6.3
				c3.3,6.1,9.4,10,16,10c8.3,0,13.5-6,13.5-15.6c0-8.7-2.8-12.1-12.6-15l-0.1,0c-10.3-3-11.1-3.3-14-5.6c-3.9-2.9-6.2-8.3-6.2-14.5
				c0-12.9,8.4-22.5,19.6-22.5c8,0,13.4,3.7,17.1,11.6V18.2h1.8l0.1,20.8h-4.9v-0.8c-0.8-14.3-4.7-19.4-14.7-19.4
				c-8.1,0-13.5,6.1-13.5,15.3c0,9.1,3.8,13.7,13.4,16.4l5.1,1.4c11.2,3.1,15.9,8.8,15.9,19.1C468.1,83.6,460.1,92,448.1,92z
				 M439.3,20.3c-6.1,3.5-10.2,10.7-10.2,19.4c0,5.9,2.2,11.1,5.9,13.8c2.8,2.2,3.4,2.4,13.7,5.4l0.1,0c10.1,3,13.2,6.7,13.2,15.8
				c0,8.8-4.4,14.9-11.4,16.2c10-1.1,16.5-8.9,16.5-20c0-9.8-4.6-15.2-15.3-18.2l-5.1-1.4c-10-2.7-14.1-7.7-14.1-17.2
				C432.8,27.9,435.2,23,439.3,20.3z M442.3,90.7c0.2,0,0.6,0,1.1,0.1c0.1,0,0.3,0,0.4,0c-5.5-1.2-10.2-4.8-13-10.1l0.1,9.5h7.7
				l2.6,0.1L442.3,90.7z M462.8,38.1h3.1l-0.1-14.4v7.2l-0.9,0.2c-3.4-8.6-8.5-12.7-16.3-13C458.1,18.6,462,24.2,462.8,38.1z"/>
		</g>
	</g>
	<g>
		<path class="st1" d="M417.5,28.9c0,0,15.3-0.1,16.9-27.5l0,0C410.3,14.4,417.5,28.9,417.5,28.9L417.5,28.9z"/>
		<path class="st2" d="M417.3,29.1l-0.1-0.1c-0.1-0.2-1.8-3.8-0.6-9c1.1-4.8,5.1-12,17.5-18.7l0-0.3l0.6,0.4l-0.2,0.1
			c-0.5,7.8-2.5,18.3-9.2,24c-4,3.5-7.8,3.5-8,3.5L417.3,29.1z M434.1,1.8c-6.8,3.7-15.1,9.8-17,18.2c-1.1,4.6,0.2,7.9,0.5,8.6
			c0.7-0.1,4.1-0.4,7.6-3.5C431.6,19.6,433.6,9.5,434.1,1.8z"/>
	</g>
	<g>
		<g>
			<path class="st0" d="M472.6,85.4h-2.3v-0.8h5.5v0.8h-2.3V92h-1V85.4z"/>
		</g>
		<g>
			<path class="st0" d="M482.9,88.8c-0.1-1-0.1-2.3-0.1-3.2h0c-0.3,0.9-0.6,1.8-0.9,2.8l-1.3,3.6h-0.7l-1.2-3.6
				c-0.4-1.1-0.6-2-0.9-2.9h0c0,0.9-0.1,2.2-0.1,3.3l-0.2,3.2h-0.9l0.5-7.5h1.2l1.3,3.6c0.3,0.9,0.6,1.7,0.8,2.5h0
				c0.2-0.8,0.5-1.6,0.8-2.5l1.3-3.6h1.2l0.5,7.5h-1L482.9,88.8z"/>
		</g>
	</g>
</g>
</svg>
