<?xml version="1.0" encoding="utf-8"?>
<!-- Generator: Adobe Illustrator 19.1.0, SVG Export Plug-In . SVG Version: 6.00 Build 0)  -->
<svg version="1.1" id="Layer_1" xmlns="http://www.w3.org/2000/svg" xmlns:xlink="http://www.w3.org/1999/xlink" x="0px" y="0px"
	 viewBox="-684.8 460.2 72.3 57.3" style="enable-background:new -684.8 460.2 72.3 57.3;" xml:space="preserve">
<path d="M-627.8,472h-42.3c-1.4,0-2.6,1.2-2.6,2.6v26.8c0,1.4,1.2,2.6,2.6,2.6h42.3c1.4,0,2.6-1.2,2.6-2.6v-26.8
	C-625.3,473.1-626.4,472-627.8,472z M-648.8,494.2c-0.5,0.5-0.8,0.5-1.3,0l-19.3-20.2h40.7L-648.8,494.2z M-657.3,489.6l-13.5,11.6
	v-25.6L-657.3,489.6z M-655.9,491l4.4,4.6c0.6,0.6,1.3,1,2.1,1s1.4-0.3,2.1-1l5.1-5.1c0.1,0.1,0.1,0.2,0.2,0.3l12.9,11.3h-39.5
	L-655.9,491z M-627.5,500.8l-13.2-11.6c-0.1,0-0.1-0.1-0.2-0.1l13.7-13.7v25.8C-627.3,501.1-627.4,500.9-627.5,500.8z"/>
</svg>
