<?xml version="1.0" encoding="utf-8"?>
<!-- Generator: Adobe Illustrator 19.0.1, SVG Export Plug-In . SVG Version: 6.00 Build 0)  -->
<svg version="1.1" id="Layer_1" xmlns="http://www.w3.org/2000/svg" xmlns:xlink="http://www.w3.org/1999/xlink" x="0px" y="0px"
	 viewBox="0 0 57.2 55" style="enable-background:new 0 0 57.2 55;" xml:space="preserve">
<style type="text/css">
	.st0{fill:none;stroke:#FFFFFF;stroke-width:0.5;stroke-miterlimit:10;}
</style>
<g>
	<path class="st0" d="M18.1,52.2C8.8,48,2.2,38.7,2.2,27.8c0-14.7,11.9-26.6,26.5-26.6s26.5,11.9,26.5,26.6S43.4,54.4,28.8,54.4
		c-2.6,0-5.1-0.4-7.5-1.1L18.1,52.2z M21.2,53.3l5.5-28.6c0,0-2.7,8.2-0.8,13.2l0.3,1.1c0.8,1.5,3.1,2.8,5.5,2.8
		c7.3,0,12.2-6.6,12.2-15.5c0-6.7-5.7-13-14.3-13c-10.7,0-16.1,7.7-16.1,14.1c0,3.9,1.5,7.4,4.6,8.7"/>
</g>
</svg>
