<?xml version="1.0" encoding="utf-8"?>
<!-- Generator: Adobe Illustrator 19.1.0, SVG Export Plug-In . SVG Version: 6.00 Build 0)  -->
<svg version="1.1" id="Layer_1" xmlns="http://www.w3.org/2000/svg" xmlns:xlink="http://www.w3.org/1999/xlink" x="0px" y="0px"
	 viewBox="0 0 151 132" style="enable-background:new 0 0 151 132;" xml:space="preserve">
<style type="text/css">
	.st0{fill:#010101;}
</style>
<path class="st0" d="M28.2,126.6c-1.3,0-2.4-1.1-2.4-2.4V53.8h-4.2c-1.3,0-2.4-1.1-2.4-2.4V28.8c0-1.3,1.1-2.4,2.4-2.4h40.2
	c-1.2-1.2-2.4-2.5-3.5-4c-2.3-3.2-3.9-6.7-4.5-9.8c-0.7-3.8,0.1-6.7,2.3-8.3c1-0.7,2.2-1.1,3.5-1.1c4,0,9.1,3.5,13,8.9
	c0.9,1.2,1.7,2.5,2.3,3.8c0.7-1.3,1.5-2.6,2.3-3.8c3.9-5.4,9-8.9,13-8.9c1.3,0,2.5,0.4,3.5,1.1c2.2,1.6,3,4.5,2.3,8.3
	c-0.6,3.1-2.2,6.6-4.5,9.8c-1.1,1.5-2.2,2.8-3.5,4h39.7c1.3,0,2.4,1.1,2.4,2.4v22.6c0,1.3-1.1,2.4-2.4,2.4h-4.2v70.4
	c0,1.3-1.1,2.4-2.4,2.4H28.2z M118.7,121.7v-68h-32v6c5,1.5,8.3,6.2,8.3,12c0,4.3-2.8,9-8.3,13.9v36.1H118.7z M81.9,121.7V89.5
	c-3.3,2.4-6,3.9-6,3.9c-0.4,0.2-0.8,0.3-1.2,0.3c-0.4,0-0.8-0.1-1.2-0.3c0,0-2.7-1.5-6-3.9v32.2H81.9z M62.7,121.7V85.6
	c-5.5-4.9-8.3-9.6-8.3-13.9c0-5.8,3.3-10.5,8.3-12v-6h-32v68H62.7z M66.8,82.7c3.1,2.6,6.4,4.7,7.9,5.7c1.8-1.1,4.9-3.1,7.9-5.7
	l0.1-0.3l0.2,0c4.8-4.1,7.3-7.8,7.3-10.8c0-4.1-2.5-7.2-6.1-7.5l-0.7-0.1c-2.4,0-5.4,1.9-6.8,3.7c-0.4,0.4-0.8,0.7-1.4,0.8l-0.4,0.5
	l-0.6-0.4c-0.6-0.1-1.1-0.4-1.5-0.9c-1.4-1.8-4.4-3.7-6.8-3.7l-0.7,0.1c-3.6,0.4-6.1,3.5-6.1,7.5c0,3,2.5,6.7,7.3,10.8h0.2
	L66.8,82.7z M67.5,59.4c2.4,0.4,5,1.6,7.2,3.5c2.2-1.8,4.8-3.1,7.2-3.5V31.2H67.5V59.4z M125.3,48.9V31.2H86.7v17.7H125.3z
	 M62.7,48.9V31.2H24.1v17.7H62.7z M59.6,8C59.3,8,59.1,8,59,8.1c-0.4,0.3-0.7,1.5-0.4,3.4c0.4,2.4,1.8,5.3,3.7,7.9
	c3.2,4.5,7.1,6.9,9.1,6.9c0.3,0,0.5-0.1,0.7-0.2c0.4-0.3,0.7-1.5,0.4-3.4c-0.5-2.4-1.8-5.3-3.7-7.9C65.5,10.4,61.6,8,59.6,8z
	 M90.3,8c-2,0-5.8,2.4-9.1,6.9C77,20.7,77,25.5,77.9,26.2c0.1,0.1,0.4,0.2,0.6,0.2c2,0,5.8-2.4,9.1-6.9c1.9-2.6,3.2-5.5,3.7-7.9
	c0.4-1.9,0.1-3.1-0.4-3.4C90.8,8,90.6,8,90.3,8z"/>
</svg>
