<?xml version="1.0" encoding="utf-8"?>
<!-- Generator: Adobe Illustrator 19.1.0, SVG Export Plug-In . SVG Version: 6.00 Build 0)  -->
<svg version="1.1" id="Layer_1" xmlns="http://www.w3.org/2000/svg" xmlns:xlink="http://www.w3.org/1999/xlink" x="0px" y="0px"
	 viewBox="0 0 184.2 132" style="enable-background:new 0 0 184.2 132;" xml:space="preserve">
<style type="text/css">
	.st0{fill:#010101;}
</style>
<g>
	<g>
		<g>
			<path class="st0" d="M149.7,120.2c-6.5,0-12.2-4.7-13.5-11.1l-0.1-0.7l-49-0.2l-0.2,0.6c-2.3,6.8-8.6,11.3-15.8,11.3
				c-9.2,0-16.6-7.5-16.6-16.6v-0.8h-7.4c-1.3,0-2.5-0.5-3.2-1.4c-0.8-0.9-1.1-2.1-0.9-3.4l3.5-23.3c0.4-2.8,3.1-5.1,5.9-5.1h4.8
				l-14-54.1H27.6c-1.2,0-2.1-0.9-2.1-2.1c0-1.2,0.9-2.1,2.1-2.1h17.2c1,0,1.8,0.7,2,1.6l11.7,45.1l0.6,0c15.7,1,56.5,5.7,98.5,28.5
				v8.6l0.3,0.2c3.5,2.6,5.5,6.6,5.5,11C163.4,114,157.3,120.2,149.7,120.2z M149.7,96.9c-5.3,0-9.5,4.3-9.5,9.5
				c0,5.3,4.3,9.5,9.5,9.5c5.3,0,9.5-4.3,9.5-9.5C159.3,101.2,155,96.9,149.7,96.9z M71.2,91.1c-6.9,0-12.4,5.6-12.4,12.4
				c0,6.9,5.6,12.4,12.4,12.4s12.4-5.6,12.4-12.4C83.7,96.7,78.1,91.1,71.2,91.1z M71.2,86.9c4.4,0,8.5,1.7,11.7,4.8
				c3.1,3.1,4.9,7.2,5,11.6l0,0.8l48.3,0.2l0.1-0.7c1.3-6.3,7-10.9,13.4-10.9c0.9,0,1.9,0.1,2.7,0.3l1,0.2v-4.1l-0.4-0.2
				c-6.7-3.5-13.8-6.8-21-9.7l-0.4-0.2l-0.4,0.2c-5.7,3.9-12.4,6-19.3,6c-13.4,0-25.6-7.9-31.1-20l-0.2-0.4l-0.4-0.1
				c-8.4-1.4-15.2-2.1-19.4-2.4l-1.1-0.1l6.6,25.3l0.8-0.2C68.4,87.1,69.8,86.9,71.2,86.9z M47.1,98.6h8.2l0.2-0.5
				c1.2-3.3,3.4-6.2,6.4-8.2l0.5-0.3l-2.6-10h0l-1.3-5.2L57,74.5l0.7-0.7h-5.2c-0.7,0-1.6,0.8-1.7,1.5l-0.9,5.8l0.8,0.1
				c1,0.1,1.8,1,1.8,2.1c0,1.2-0.9,2.1-2.1,2.1c-0.1,0-0.2,0-0.3,0l-0.8-0.1l-0.7,4.6l0.8,0.1c1,0.1,1.8,1,1.8,2.1
				c0,1.2-0.9,2.1-2.1,2.1c-0.1,0-0.2,0-0.3,0L47.8,94L47.1,98.6z M86.7,67.4c1.2,1.8,2.5,3.5,4,5c5.6,5.6,13.1,8.8,21.1,8.8
				c4.7,0,9.1-1,13.2-3.1l1.7-0.8l-1.8-0.7c-2.3-0.8-4.6-1.6-7-2.4c-9.9-3.3-20.2-6-30.5-8l-1.9-0.4L86.7,67.4z"/>
		</g>
		<g>
			<circle class="st0" cx="149.7" cy="106.5" r="2.1"/>
		</g>
		<g>
			<path class="st0" d="M71.2,105.7c-1.2,0-2.1-0.9-2.1-2.1c0-1.2,0.9-2.1,2.1-2.1c1.2,0,2.1,0.9,2.1,2.1
				C73.3,104.7,72.4,105.7,71.2,105.7z"/>
		</g>
	</g>
	<path class="st0" d="M18.6,85.2h13.9c0.4,0,0.7-0.3,0.7-0.7v-2.4c0-0.4-0.3-0.7-0.7-0.7H18.6c-0.4,0-0.7,0.3-0.7,0.7v2.4
		C17.9,84.9,18.2,85.2,18.6,85.2z"/>
	<path class="st0" d="M23.9,73.5L30,76c1,0.4,2.1,0,2.5-1l0,0c0.4-1,0-2.1-1-2.5L25.4,70c-1-0.4-2.1,0-2.5,1l0,0
		C22.5,72,22.9,73.1,23.9,73.5z"/>
	<path class="st0" d="M31.5,93.9l-6.1,2.5c-1,0.4-2.1,0-2.5-1h0c-0.4-1,0-2.1,1-2.5l6.1-2.5c1-0.4,2.1,0,2.5,1v0
		C32.9,92.4,32.5,93.5,31.5,93.9z"/>
</g>
</svg>
