<?xml version="1.0" encoding="UTF-8" standalone="no"?>
<svg
   xmlns:dc="http://purl.org/dc/elements/1.1/"
   xmlns:cc="http://creativecommons.org/ns#"
   xmlns:rdf="http://www.w3.org/1999/02/22-rdf-syntax-ns#"
   xmlns:svg="http://www.w3.org/2000/svg"
   xmlns="http://www.w3.org/2000/svg"
   viewBox="0 0 1632 1056"
   height="1056"
   width="1632"
   xml:space="preserve"
   id="svg2"
   version="1.1"><metadata
     id="metadata8"><rdf:RDF><cc:Work
         rdf:about=""><dc:format>image/svg+xml</dc:format><dc:type
           rdf:resource="http://purl.org/dc/dcmitype/StillImage" /></cc:Work></rdf:RDF></metadata><defs
     id="defs6"><clipPath
       id="clipPath18"
       clipPathUnits="userSpaceOnUse"><path
         id="path16"
         d="M 0,792 H 1224 V 0 H 0 Z" /></clipPath><clipPath
       id="clipPath46"
       clipPathUnits="userSpaceOnUse"><path
         id="path44"
         d="M 0,792 H 1224 V 0 H 0 Z" /></clipPath><clipPath
       id="clipPath98"
       clipPathUnits="userSpaceOnUse"><path
         id="path96"
         d="M 0,792 H 1224 V 0 H 0 Z" /></clipPath><clipPath
       id="clipPath118"
       clipPathUnits="userSpaceOnUse"><path
         id="path116"
         d="M 0,792 H 1224 V 0 H 0 Z" /></clipPath><clipPath
       id="clipPath206"
       clipPathUnits="userSpaceOnUse"><path
         id="path204"
         d="m 442.025,371.643 h 485.17 V 105.737 h -485.17 z" /></clipPath><clipPath
       id="clipPath286"
       clipPathUnits="userSpaceOnUse"><path
         id="path284"
         d="M 0,792 H 1224 V 0 H 0 Z" /></clipPath><clipPath
       id="clipPath318"
       clipPathUnits="userSpaceOnUse"><path
         id="path316"
         d="M 0,792 H 1224 V 0 H 0 Z" /></clipPath></defs><g
     transform="matrix(1.3333333,0,0,-1.3333333,0,1056)"
     id="g10"><g
       id="g12"><g
         clip-path="url(#clipPath18)"
         id="g14"><g
           transform="translate(351.5746,140.8699)"
           id="g20"><path
             id="path22"
             style="fill:#ffffff;fill-opacity:1;fill-rule:nonzero;stroke:none"
             d="m 0,0 c -17.137,7.315 -65.709,175.482 -65.709,175.482 0,0 -5.137,18.551 -10.014,32.971 -0.9,4.599 -1.501,8.943 -1.83,13.234 -1.78,23.396 3.958,45.981 9.526,67.807 2.409,9.46 4.688,18.382 6.395,27.39 1.694,8.925 2.891,18.335 4.049,27.418 l 0.123,0.974 c 2.825,22.271 5.752,45.297 15.719,66.06 9.981,20.74 26.113,37.403 41.792,53.596 6.215,6.4 13.259,13.65 19.51,20.947 5.792,6.75 11.165,13.859 16.855,21.377 l 0.55,0.734 c 13.567,17.97 27.596,36.558 47.009,49.805 9.21,6.274 19.807,11.44 33.351,16.24 l 0.782,0.275 c 9.377,3.285 19.42,6.14 28.287,8.665 l 0.565,0.162 c 9.091,2.594 18.497,5.282 27.451,8.419 l 0.763,0.271 c 8.972,3.18 18.266,7.091 26.46,10.543 8.755,3.668 17.796,7.459 26.905,10.69 l 0.597,0.203 c 13.936,4.88 25.69,7.564 36.98,8.425 23.422,1.795 45.992,-3.958 67.804,-9.518 8.935,-2.286 18.197,-4.638 27.404,-6.371 9.034,-1.726 18.556,-2.948 27.759,-4.124 l 0.705,-0.087 c 22.242,-2.825 45.247,-5.745 65.97,-15.715 20.772,-9.96 37.422,-26.109 53.596,-41.771 7.008,-6.826 13.892,-13.454 20.943,-19.532 6.939,-5.947 14.254,-11.461 22.133,-17.408 l 14.164,-10.843 c 6.371,-6.627 13.436,-13.128 20.263,-19.409 l 0.528,-0.477 c 16.515,-15.166 35.638,-35.244 46.788,-55.359 0,0 62.142,-73.425 44.314,-180.647" /></g><g
           transform="translate(351.5746,140.8699)"
           id="g24"><path
             id="path26"
             style="fill:#ffffff;fill-opacity:1;fill-rule:nonzero;stroke:none"
             d="m 0,0 c 0,0 25.212,-9.424 44.552,-22.408 5.449,-4.146 11.157,-8.581 16.494,-13.176 7.409,-6.338 14.923,-13.639 20.964,-19.499 16.222,-15.716 32.864,-31.833 53.59,-41.789 20.733,-9.956 43.749,-12.897 66.002,-15.726 9.03,-1.147 19.116,-2.417 28.435,-4.186 9.305,-1.754 18.505,-4.117 27.415,-6.407 21.847,-5.535 44.415,-11.265 67.811,-9.503 11.312,0.864 23.063,3.534 36.962,8.432 l 0.716,0.254 c 8.744,3.1 17.304,6.656 26.786,10.647 8.299,3.476 17.705,7.416 26.862,10.665 l 0.372,0.119 c 9.131,3.22 18.729,5.951 28.019,8.596 8.339,2.369 18.708,5.329 28.284,8.682 l 1.118,0.398 c 13.331,4.725 23.815,9.848 33.004,16.128 19.5,13.274 33.482,31.836 46.998,49.78 l 0.593,0.778 c 5.68,7.532 11.06,14.623 16.826,21.326 6.256,7.304 13.314,14.555 19.533,20.954 15.614,16.132 31.767,32.809 41.759,53.611 9.97,20.708 12.904,43.695 15.737,65.93 1.136,9.012 2.406,19.058 4.2,28.511 1.599,8.556 3.712,17.021 6.107,26.348 0,0 9.16,33.561 19.348,41.962" /></g><g
           transform="translate(218.24,264.3644)"
           id="g28"><path
             id="path30"
             style="fill:#ffffff;fill-opacity:1;fill-rule:nonzero;stroke:none"
             d="m 0,0 c 102.812,122.279 400.265,229.606 417.134,235.543 16.877,5.933 236.433,75.766 436.837,66.259 4.204,-84.778 34.636,-173.409 34.636,-173.409 C 447.104,80.921 96.022,-150.067 96.022,-150.067 96.022,-150.067 59.475,-67.373 0,0" /></g><g
           transform="translate(425.217,140.5298)"
           id="g32"><path
             id="path34"
             style="fill:#ffffff;fill-opacity:1;fill-rule:nonzero;stroke:none"
             d="M 0,0 C 0,0 -51.455,1.878 -109.733,-25.44 -92.885,0.688 -34.09,36.199 -31.579,37.017 -19.753,17.64 0,0 0,0" /></g><g
           transform="translate(968.4694,335.9593)"
           id="g36"><path
             id="path38"
             style="fill:#ffffff;fill-opacity:1;fill-rule:nonzero;stroke:none"
             d="M 0,0 C 0,0 61.632,45.337 136.258,56.27 106.231,64.331 4.956,53.293 2.547,52.211 6.783,29.911 0,0 0,0" /></g></g></g><g
       id="g40"><g
         clip-path="url(#clipPath46)"
         id="g42"><g
           transform="translate(349.8496,245.1562)"
           id="g48"><path
             id="path50"
             style="fill:#9c83c9;fill-opacity:1;fill-rule:nonzero;stroke:none"
             d="m 0,0 c 5.398,3.302 7.942,9.479 3.45,16.822 -4.655,7.611 -11.219,7.608 -16.439,4.414 l -8.407,-5.141 12.99,-21.237 z M -18.48,31.01 C -6.181,38.532 7.641,38.597 16.246,24.528 24.852,10.459 18.302,-1.694 6.091,-9.163 l -8.76,-5.358 6.928,-11.327 6.105,3.735 5.304,-8.671 -23.272,-14.235 -5.304,8.671 4.779,2.923 -26.196,42.827 -4.778,-2.923 -5.304,8.672 z" /></g><g
           transform="translate(437.7544,285.2939)"
           id="g52"><path
             id="path54"
             style="fill:#9c83c9;fill-opacity:1;fill-rule:nonzero;stroke:none"
             d="m 0,0 c 8.659,-15.601 2.588,-28.816 -12.105,-36.972 -14.331,-7.953 -28.224,-6.647 -36.882,8.952 l -17.266,31.11 -4.898,-2.718 -4.933,8.889 22.493,12.483 4.933,-8.888 -4.898,-2.718 17.266,-31.11 c 4.984,-8.979 11.25,-10.009 19.232,-5.58 7.981,4.431 10.694,10.445 5.71,19.423 l -17.266,31.109 -4.897,-2.717 -4.933,8.888 21.495,11.93 4.933,-8.888 -4.898,-2.718 z" /></g><g
           transform="translate(473.4009,315.4131)"
           id="g56"><path
             id="path58"
             style="fill:#9c83c9;fill-opacity:1;fill-rule:nonzero;stroke:none"
             d="m 0,0 c 6.395,3.215 9.029,8.138 5.302,15.552 -3.866,7.693 -9.527,8.33 -15.737,5.209 l -10.01,-5.032 10.435,-20.76 z m -15.096,30.957 c 12.883,6.476 26.384,5.947 33.744,-8.696 4.612,-9.176 2.588,-17.392 -3.429,-23.899 l 17.003,-11.19 6.024,3.027 4.566,-9.082 -15.108,-7.594 -24.435,16.279 -8.527,-4.286 6.895,-13.717 5.653,2.842 4.565,-9.083 -23.633,-11.879 -4.566,9.082 5.005,2.515 -22.547,44.859 -5.005,-2.516 -4.565,9.083 z" /></g><g
           transform="translate(535.521,343.2812)"
           id="g60"><path
             id="path62"
             style="fill:#9c83c9;fill-opacity:1;fill-rule:nonzero;stroke:none"
             d="m 0,0 c 5.756,2.627 9.026,8.453 5.451,16.285 -3.705,8.114 -10.222,8.902 -15.789,6.361 L -19.302,18.554 -8.964,-4.093 Z M -14.613,33.01 C -1.497,38.997 12.232,37.396 19.082,22.394 25.931,7.39 17.965,-3.886 4.943,-9.83 l -9.341,-4.265 5.514,-12.078 6.51,2.973 4.222,-9.248 -24.817,-11.328 -4.221,9.247 5.095,2.326 -20.848,45.67 -5.096,-2.326 -4.221,9.248 z" /></g><g
           transform="translate(575.644,334.7266)"
           id="g64"><path
             id="path66"
             style="fill:#9c83c9;fill-opacity:1;fill-rule:nonzero;stroke:none"
             d="m 0,0 5.176,2.141 -19.187,46.394 -5.176,-2.14 -3.885,9.393 L 0.7,65.62 4.585,56.226 -0.591,54.085 18.199,8.649 36.22,16.103 33.76,27.208 43.442,31.212 52.004,10.507 3.885,-9.394 Z" /></g><g
           transform="translate(634.7568,348.0508)"
           id="g68"><path
             id="path70"
             style="fill:#9c83c9;fill-opacity:1;fill-rule:nonzero;stroke:none"
             d="m 0,0 -3.529,9.532 5.253,1.946 -17.429,47.08 -5.253,-1.944 -3.53,9.532 49.027,18.15 6.77,-18.288 -9.727,-3.601 -4.729,7.098 L -1.727,62.627 4.646,45.409 26.825,53.62 30.679,43.212 8.5,35.001 l 6.482,-17.51 19.941,7.383 -1.032,8.466 9.727,3.601 6.771,-18.288 z" /></g><g
           transform="translate(733.3877,418.5586)"
           id="g72"><path
             id="path74"
             style="fill:#9c83c9;fill-opacity:1;fill-rule:nonzero;stroke:none"
             d="m 0,0 c 6.047,1.86 10.043,7.214 7.512,15.442 -2.624,8.526 -8.984,10.15 -14.833,8.35 l -9.418,-2.897 7.321,-23.793 z M -10.219,34.621 C 3.562,38.861 16.968,35.498 21.817,19.735 26.667,3.973 17.311,-6.177 3.63,-10.387 l -9.816,-3.019 3.905,-12.69 6.841,2.105 2.989,-9.716 -26.073,-8.022 -2.99,9.715 5.354,1.648 -14.763,47.982 -5.353,-1.647 -2.99,9.715 z" /></g><g
           transform="translate(774.5781,395.0444)"
           id="g76"><path
             id="path78"
             style="fill:#9c83c9;fill-opacity:1;fill-rule:nonzero;stroke:none"
             d="m 0,0 -2.562,9.838 5.421,1.412 -12.65,48.587 -5.421,-1.411 -2.561,9.838 50.594,13.174 4.914,-18.874 -10.039,-2.613 -3.998,7.534 -19.174,-4.992 4.626,-17.769 22.889,5.96 2.797,-10.742 -22.889,-5.96 4.705,-18.069 20.58,5.358 -0.184,8.528 10.039,2.614 4.914,-18.873 z" /></g><g
           transform="translate(858.1982,452.3765)"
           id="g80"><path
             id="path82"
             style="fill:#9c83c9;fill-opacity:1;fill-rule:nonzero;stroke:none"
             d="M 0,0 C 7.007,1.461 10.818,5.542 9.124,13.665 7.366,22.093 2.06,24.166 -4.744,22.747 l -10.967,-2.288 4.744,-22.746 z M -6.625,33.798 C 7.49,36.742 20.4,32.759 23.747,16.715 25.844,6.662 21.775,-0.757 14.286,-5.498 l 13.553,-15.187 6.6,1.377 2.076,-9.952 -16.552,-3.452 -19.427,22.015 -9.343,-1.948 3.135,-15.029 6.194,1.292 2.076,-9.952 -25.895,-5.4 -2.075,9.951 5.483,1.144 -10.251,49.149 -5.483,-1.144 -2.075,9.952 z" /></g><g
           transform="translate(947.8984,492.4214)"
           id="g84"><path
             id="path86"
             style="fill:#9c83c9;fill-opacity:1;fill-rule:nonzero;stroke:none"
             d="m 0,0 -14.663,-23.724 23.712,-25.679 5.538,0.838 1.52,-10.051 -19.793,-2.995 -0.993,6.564 -18.324,19.886 -6.665,-10.03 1.583,-10.461 5.538,0.838 1.428,-9.435 -25.434,-3.848 -1.521,10.05 5.538,0.838 -7.511,49.636 -5.538,-0.838 -1.52,10.051 25.433,3.848 1.443,-9.537 -5.538,-0.838 2.498,-16.511 c 0.513,-3.385 1.183,-6.431 1.199,-9.995 1.261,3.443 3.043,6.23 5.331,9.829 l 12.816,19.982 -4.82,-0.73 -1.443,9.538 23.69,3.585 1.521,-10.05 z" /></g><g
           transform="translate(999.0576,488.5937)"
           id="g88"><path
             id="path90"
             style="fill:#9c83c9;fill-opacity:1;fill-rule:nonzero;stroke:none"
             d="m 0,0 c -1.456,5.383 -5.811,8.403 -11.489,7.857 -5.163,-0.497 -8.632,-3.436 -8.175,-8.186 0.407,-4.233 3.507,-6.123 10.88,-8.019 l 4.485,-1.132 c 12.705,-3.154 20.23,-8.788 21.322,-20.145 1.42,-14.767 -8.826,-22.005 -20.081,-23.087 -8.466,-0.815 -13.484,1.516 -16.713,4.749 l -0.826,-5.499 -8.983,-0.864 -2.086,21.683 10.944,1.054 c 1.329,-6.229 6.463,-10.842 14.413,-10.077 6.403,0.616 10.112,4.307 9.615,9.47 -0.417,4.337 -3.907,7.023 -12.342,9.13 l -4.485,1.131 c -11.426,2.861 -18.271,7.935 -19.404,19.706 -1.043,10.842 6.94,19.946 18.195,21.029 5.782,0.556 10.853,-1.248 14.092,-4.584 l 0.546,5.159 9.086,0.874 1.848,-19.206 z" /></g></g></g><g
       id="g92"><g
         clip-path="url(#clipPath98)"
         id="g94"><g
           transform="translate(325.3986,365.7458)"
           id="g100"><path
             id="path102"
             style="fill:#9c83c9;fill-opacity:1;fill-rule:nonzero;stroke:none"
             d="m 0,0 c -1.451,18.858 3.256,37.33 8.241,56.887 l 0.223,0.877 c 2.067,8.149 4.193,16.588 5.779,24.934 1.722,9.059 2.898,18.4 3.934,26.643 2.529,19.991 4.921,38.847 12.966,55.575 8.03,16.73 21.276,30.38 35.288,44.842 l 0.312,0.316 c 6.04,6.241 12.286,12.69 18.029,19.39 5.818,6.785 11.438,14.237 16.402,20.821 12.151,16.099 23.63,31.299 39.268,41.973 7.284,4.973 15.866,9.122 26.996,13.067 l 0.616,0.219 c 7.771,2.724 15.719,5 24.143,7.418 l 0.718,0.205 c 8.63,2.454 17.545,4.992 26.308,8.065 l 0.863,0.306 c 8.341,2.958 16.557,6.404 24.501,9.73 l 0.776,-0.953 -0.466,1.087 c 8.062,3.384 15.677,6.582 23.406,9.321 l 0.684,0.235 c 11.41,4.003 20.898,6.188 29.859,6.877 18.881,1.437 37.34,-3.272 56.898,-8.248 l 0.432,-0.114 c 8.288,-2.102 16.859,-4.287 25.364,-5.893 8.589,-1.616 17.148,-2.733 26.639,-3.92 20.012,-2.549 38.856,-4.942 55.57,-12.969 16.745,-8.061 30.396,-21.289 44.844,-35.29 6.341,-6.15 12.9,-12.502 19.723,-18.347 6.722,-5.752 13.882,-11.166 20.803,-16.406 14,-10.566 28.478,-21.477 39.078,-35.346 5.873,0.348 11.734,0.563 17.474,0.661 -0.838,1.364 -1.614,2.576 -2.39,3.728 -12.032,17.634 -28.927,30.385 -45.274,42.718 -7.161,5.407 -13.813,10.419 -20.12,15.826 -6.411,5.526 -12.669,11.551 -19.038,17.757 -14.704,14.236 -29.839,28.918 -48.724,37.972 -18.839,9.064 -39.755,11.718 -59.974,14.286 l -0.641,0.08 c -8.366,1.071 -17.023,2.182 -25.233,3.75 -8.372,1.573 -16.792,3.713 -24.914,5.792 -19.829,5.055 -40.348,10.283 -61.64,8.653 -10.264,-0.783 -20.951,-3.223 -33.618,-7.66 l -0.545,-0.185 c -8.279,-2.935 -16.5,-6.383 -24.457,-9.717 -7.451,-3.139 -15.898,-6.693 -24.056,-9.585 l -0.693,-0.246 c -8.14,-2.853 -16.692,-5.295 -24.957,-7.653 l -0.512,-0.149 c -8.06,-2.295 -17.189,-4.889 -25.715,-7.875 l -0.711,-0.25 c -12.312,-4.365 -21.946,-9.063 -30.32,-14.766 -17.647,-12.043 -30.403,-28.942 -42.736,-45.276 l -0.499,-0.669 C 83.732,251.66 78.847,245.199 73.581,239.061 67.897,232.428 61.494,225.837 55.843,220.019 41.591,205.299 26.927,190.148 17.854,171.296 8.793,152.419 6.132,131.486 3.563,111.24 L 3.45,110.357 C 2.397,102.096 1.308,93.544 -0.23,85.429 -1.783,77.239 -3.853,69.13 -6.043,60.53 c -5.063,-19.843 -10.28,-40.374 -8.661,-61.644 0.3,-3.9 0.845,-7.849 1.664,-12.029 4.093,3.562 8.543,7.203 13.257,10.871 C 0.134,-1.496 0.058,-0.747 0,0" /></g><g
           transform="translate(960.3657,322.3044)"
           id="g104"><path
             id="path106"
             style="fill:#9c83c9;fill-opacity:1;fill-rule:nonzero;stroke:none"
             d="m 0,0 c -1.677,-8.869 -2.827,-17.906 -3.94,-26.652 -2.527,-19.964 -4.924,-38.823 -12.958,-55.566 -8.073,-16.772 -21.291,-30.416 -35.299,-44.844 -6.114,-6.316 -12.436,-12.844 -18.351,-19.72 -5.674,-6.642 -11.075,-13.784 -16.308,-20.69 -12.232,-16.213 -23.707,-31.42 -39.336,-42.096 -7.32,-4.99 -15.927,-9.154 -27.095,-13.112 l -1.206,-0.405 c -7.952,-2.757 -16.201,-5.107 -24.181,-7.39 l -0.465,-0.126 c -8.498,-2.429 -17.294,-4.929 -25.847,-7.939 l -0.716,-0.254 c -8.477,-3.004 -16.815,-6.486 -24.874,-9.868 -7.977,-3.354 -15.52,-6.525 -23.285,-9.277 l -0.905,-0.316 c -11.347,-3.992 -20.827,-6.179 -29.839,-6.886 -18.866,-1.439 -37.333,3.266 -56.896,8.244 -8.608,2.193 -17.246,4.385 -25.801,6.004 -8.775,1.66 -17.803,2.817 -26.542,3.929 -20.062,2.55 -38.932,4.945 -55.677,12.973 -16.685,8.019 -30.296,21.215 -44.718,35.17 -6.502,6.3 -13.037,12.637 -19.838,18.47 -3.142,2.701 -6.597,5.495 -11.116,9.003 -4.703,-2.813 -9.232,-5.566 -13.472,-8.229 4.952,-3.769 10.142,-7.8 14.992,-11.976 6.736,-5.765 13.566,-12.402 19.058,-17.727 14.748,-14.286 29.879,-28.94 48.72,-37.99 18.848,-9.051 39.77,-11.727 60.002,-14.299 8.208,-1.04 17.377,-2.196 25.848,-3.802 8.459,-1.598 16.823,-3.744 24.925,-5.825 19.859,-5.034 40.377,-10.243 61.644,-8.641 10.285,0.785 20.967,3.215 33.601,7.666 l 0.652,0.232 c 7.951,2.818 15.733,6.049 24.35,9.679 7.547,3.158 16.096,6.742 24.422,9.694 l 0.338,0.108 c 8.301,2.927 17.027,5.411 25.471,7.816 7.581,2.155 17.007,4.845 25.713,7.893 l 1.016,0.359 c 12.12,4.297 21.653,8.954 30.004,14.663 17.727,12.069 30.438,28.942 42.725,45.254 l 0.539,0.709 c 5.166,6.845 10.056,13.292 15.298,19.388 5.687,6.64 12.103,13.231 17.756,19.049 14.196,14.663 28.88,29.824 37.964,48.736 9.063,18.827 11.731,39.725 14.306,59.937 1.031,8.19 2.187,17.325 3.817,25.917 1.456,7.778 3.375,15.477 5.552,23.955 C 14.925,20.5 9.63,19.704 4.24,18.83 2.824,13.147 1.235,6.55 0,0" /></g><g
           transform="translate(371.2535,352.552)"
           id="g108"><path
             id="path110"
             style="fill:#9c83c9;fill-opacity:1;fill-rule:nonzero;stroke:none"
             d="m 0,0 c -1.436,11.499 -2.176,23.213 -2.176,35.101 0,154.759 125.455,280.214 280.214,280.214 100.331,0 188.348,-52.731 237.848,-131.99 C 515.886,183.325 272.053,140.138 0,0" /></g></g></g><g
       id="g112"><g
         clip-path="url(#clipPath118)"
         id="g114"><g
           transform="translate(903.6218,366.6187)"
           id="g120"><path
             id="path122"
             style="fill:#9c83c9;fill-opacity:1;fill-rule:nonzero;stroke:none"
             d="m 0,0 c -2.963,-0.454 -2.999,1.647 -3.207,3.92 -4.716,-0.355 -9.471,-0.813 -14.252,-1.328 1.673,-24.339 30.342,-16.884 31.554,0.96 0.027,0.449 0.014,0.865 0.019,1.292 C 9.913,4.71 5.682,4.493 1.42,4.22 1.107,2.91 0.646,1.509 0,0" /></g><g
           transform="translate(619.4294,130.4303)"
           id="g124"><path
             id="path126"
             style="fill:#9c83c9;fill-opacity:1;fill-rule:nonzero;stroke:none"
             d="M 0,0 C -0.38,-0.624 -0.745,-1.264 -1.156,-1.854 -0.608,-1.273 -0.255,-0.647 0,0" /></g><g
           transform="translate(776.7987,171.2106)"
           id="g128"><path
             id="path130"
             style="fill:#9c83c9;fill-opacity:1;fill-rule:nonzero;stroke:none"
             d="m 0,0 c 2.56,2.186 12.306,4.858 22.9,1.775 3.345,-4.325 6.559,-8.784 5.286,-17.765 -1.878,-3.437 -8.113,-2.475 -10.571,-5.329 -1.093,4.952 5.623,15.168 -5.282,15.99 -16.3,1.228 -11.566,-26.313 4.359,-28.289 1.006,0.452 1.99,0.841 2.994,1.304 4.925,3.718 9.672,7.44 14.261,11.163 6.231,14.715 2.831,37.247 -18.094,38.914 -3.551,-3.521 0.253,-14.465 -8.806,-12.434 -7.322,14.007 -27.165,9.942 -40.513,3.554 9.479,-1.618 25.722,-14.93 12.329,-23.096 -5.395,1.66 -5.086,9.081 -10.567,10.66 -22.039,2.094 -31.248,-8.752 -45.797,-14.214 14.574,2.469 33.334,-21.722 10.569,-24.867 3.448,3.319 0.545,6.504 0,10.658 -44.194,6.046 -70.94,-30.543 -121.595,-30.683 29.618,-6.252 62.708,-7.983 99.269,-2.815 -19.795,0.617 -39.665,1.45 -53.414,8.627 1.489,3.827 7.727,2.866 10.567,5.331 29.532,-13.776 99.215,-14.761 98.639,21.315 11.235,3.068 13.728,-9.864 9.849,-19.327 10.998,3.726 22.253,8.069 33.752,13.048 C -4.737,-29.396 -15.079,-12.885 0,0" /></g><g
           transform="translate(489.6905,196.0796)"
           id="g132"><path
             id="path134"
             style="fill:#9c83c9;fill-opacity:1;fill-rule:nonzero;stroke:none"
             d="M 0,0 C 6.805,0.35 12.98,0.064 17.615,-1.777 13.411,8.974 11.683,21.016 12.373,32.472 10.369,31.376 8.404,30.298 6.489,29.234 6.163,28.393 5.774,27.53 5.286,26.647 4.62,26.885 4.045,27.211 3.52,27.589 -1.758,24.655 -6.691,21.88 -11.242,19.29 c -2.348,-16.619 -3.751,-34.197 -7.652,-49.251 3.219,-2.696 6.52,-5.37 9.971,-8.004 C -13.818,-26.814 -12.356,-14.151 0,0" /></g><g
           transform="translate(859.5869,201.4085)"
           id="g136"><path
             id="path138"
             style="fill:#9c83c9;fill-opacity:1;fill-rule:nonzero;stroke:none"
             d="m 0,0 c -0.46,5.792 2.091,8.552 7.045,8.882 -1.177,5.92 -4.527,9.645 -12.329,8.883 -4.792,-1.624 4.692,-3.3 1.76,-8.883 -17.072,-4.819 -9.843,13.898 0,15.989 8.922,1.895 16.757,-2.015 21.94,-8.529 0.682,0.872 1.337,1.738 2.001,2.605 -7.67,3.993 -6.632,30.128 11.288,29.016 -22.849,13.778 -58.863,0.514 -61.649,-23.092 0.646,-6.457 7.552,-6.595 8.807,-12.435 -5.826,-5.681 -17.537,-2.785 -17.614,7.108 -8.605,-15.122 5.452,-41.355 26.42,-31.979 2.516,7.732 -6.018,8.168 -1.76,12.435 6.168,0.78 11.059,-1.846 13.666,-5.916 2.044,2.242 4.059,4.48 6,6.711 C 4.106,1.211 2.283,1.076 0,0" /></g><g
           transform="translate(723.9581,311.5483)"
           id="g140"><path
             id="path142"
             style="fill:#9c83c9;fill-opacity:1;fill-rule:nonzero;stroke:none"
             d="M 0,0 C -5.707,4.857 -12.864,8.25 -21.395,10.257 -33.399,5.75 -45.245,1.071 -56.898,-3.707 -41.64,-10.756 -13.503,-4.196 0,0" /></g><g
           transform="translate(803.2225,336.4211)"
           id="g144"><path
             id="path146"
             style="fill:#9c83c9;fill-opacity:1;fill-rule:nonzero;stroke:none"
             d="M 0,0 C -4.56,2.067 -10.524,7.715 -13.962,13.708 -32.733,8.574 -51.515,2.731 -70.09,-3.632 -50.077,-8.308 -18.568,-2.853 0,0" /></g><g
           transform="translate(833.1664,327.5365)"
           id="g148"><path
             id="path150"
             style="fill:#9c83c9;fill-opacity:1;fill-rule:nonzero;stroke:none"
             d="M 0,0 C 3.28,12.274 6.423,24.364 10.321,35.249 -4.506,32.429 -19.474,29.021 -34.484,25.112 -28.03,14.447 -5.439,11.78 0,0" /></g><g
           transform="translate(884.2452,228.054)"
           id="g152"><path
             id="path154"
             style="fill:#9c83c9;fill-opacity:1;fill-rule:nonzero;stroke:none"
             d="M 0,0 C -0.307,-0.737 -0.353,-1.573 -0.262,-2.405 2.317,1.095 4.776,4.563 7.12,8.003 3.221,6.659 0.121,3.924 0,0" /></g><g
           transform="translate(697.538,180.0933)"
           id="g156"><path
             id="path158"
             style="fill:#9c83c9;fill-opacity:1;fill-rule:nonzero;stroke:none"
             d="m 0,0 c 2.896,22.818 41.05,56.23 7.045,72.833 7.167,11.156 25.032,0.212 24.659,-12.434 5.218,1.248 7.669,5.292 15.853,3.552 -1.744,-5.347 -6.232,-7.929 -5.284,-15.99 3.084,-5.254 9.386,1.029 14.091,0 0.561,-4.118 -0.28,-6.819 -1.76,-8.881 C 61.583,37.936 76.819,35.835 77.499,23.094 41.805,39.881 27.755,-2.998 0,0 m -14.091,-17.767 v 7.107 c 4.58,4.408 10.714,0.365 12.329,-3.551 -1.55,-5.654 -7.074,-6.021 -12.329,-3.556 M 230.744,182.97 c 0.311,3.061 0.763,5.907 1.319,8.603 -0.8,0.002 -1.607,-0.02 -2.406,-0.024 -0.102,-1.632 -0.297,-3.302 -0.677,-5.024 -4.652,-21.329 -48.221,-27.539 -49.317,0 -0.021,0.531 0,1.042 0.02,1.549 -8.093,-1.021 -16.26,-2.262 -24.481,-3.694 -2.883,-5.09 -5.074,-10.88 -7.244,-15.62 7.375,6.726 28.77,12.798 26.422,-7.107 -4.394,0.899 -7.241,3.36 -10.57,5.33 -27.995,-4.25 -16.554,-30.228 -17.612,-49.737 C 144.25,81.4 109.396,82.487 95.114,56.843 c 0.233,-5.683 3.995,-7.815 10.571,-7.105 -8.932,-12.719 -27.222,4.934 -19.377,19.54 -34.001,0.797 -53.457,4.803 -58.126,26.647 -2.791,13.05 2.209,25.232 7.046,30.198 9.487,9.751 44.112,11.621 47.556,-10.656 1.395,-9.015 -3.912,-24.356 -17.612,-24.871 -13.433,-0.501 -29.308,23.295 -3.522,24.871 0.848,-5.597 -5.407,-4.022 -3.526,-10.659 13.21,-19.502 27.153,16.661 7.048,23.094 -15.398,4.927 -28.317,-4.55 -29.944,-23.094 2.821,-2.927 6.584,0.793 10.567,-3.552 -1.967,-2.755 -5.725,-3.7 -5.286,-8.883 3.231,-9.179 11.058,-13.722 21.141,-15.988 0.416,2.742 -0.657,13.881 8.805,12.434 3.835,-1.517 4.654,-8.718 12.329,-10.657 9.054,1.532 18.834,2.322 26.422,5.329 -6.003,6.684 -21.02,10.71 -14.092,24.87 8.282,1.245 6.967,-7.187 12.332,-8.88 42.248,-12.971 27.195,68.905 1.76,39.082 -0.475,-6.404 -0.439,-12.289 7.044,-10.661 -5.289,-11.906 -17.841,-0.676 -19.375,7.105 1.496,7.372 5.838,11.878 10.571,15.99 C 57.999,145.796 25,124.005 -12.329,106.585 c -2.815,-2.491 -4.501,-6.121 -5.286,-10.66 -8.243,3.176 -5.32,17.326 0,21.321 -7.239,2.574 -14.398,4.351 -19.935,7.583 -12.143,-5.06 -24.046,-10.218 -35.627,-15.409 -6.467,-10.705 -16.38,-18.355 -28.986,-20.601 -6.403,-1.138 -10.422,-0.226 -14.407,0.358 -17.564,-8.51 -34.005,-16.842 -48.992,-24.693 0.134,-8.015 -2.516,-13.221 -8.816,-14.746 2.637,-3.85 8.813,-4.138 8.804,-10.658 -34.251,-21.753 6.336,-65.043 28.184,-74.612 1.405,2.113 -1.804,14.686 -5.284,17.765 7.317,4.942 16.518,-3.419 19.373,-8.882 5.148,7.886 11.864,1.1 24.664,5.33 -6.156,-7.744 -3.359,-20.456 5.283,-23.094 -8.595,-5.837 -16.339,12.533 -10.571,21.317 -6.783,-0.95 -6.797,-10.655 -12.329,-3.553 -2.33,-2.319 -0.383,-9.401 3.524,-10.66 -9.043,-3.745 -12.673,13.243 -21.137,15.99 -2.116,-16.362 15.992,-27.678 33.466,-30.197 -26.936,-2.015 -67.192,26.093 -81.024,51.516 -4.68,-6.94 -13.977,-14.441 -22.901,-7.108 1.182,4.362 10.937,4.751 5.286,10.66 -23.714,0.994 -18.206,-20.655 -4.812,-34.79 5.796,-3.92 11.855,-7.713 18.207,-11.325 5.92,-1.273 11.777,-0.029 16.549,5.254 1.456,5.023 -2.48,4.606 -1.762,8.885 8.728,2.213 15.681,-6.584 10.567,-12.435 3.774,-3.302 10.51,-3.614 10.571,-10.657 -4.375,0.264 -7.309,-0.92 -8.809,-3.556 6.422,-4.417 26.006,-4.656 22.901,10.659 9.087,-0.135 12.768,-9.703 8.805,-17.763 16.618,0.414 29.615,4.477 36.989,14.212 2.699,8.643 -5.111,6.685 -5.281,12.432 6.052,0.779 9.87,-0.702 14.089,-1.777 1.212,-3.539 4.471,-8.434 2.917,-12.354 4.772,7.799 7.42,17.741 14.697,23.014 -2.344,4.741 -2.586,11.606 -8.807,12.438 6.054,9.05 20.04,0.162 19.375,-8.885 11.718,8.339 12.535,39.024 -8.804,37.305 -5.606,-1.561 -5.971,-7.133 -3.525,-12.436 -12.214,-1.614 -14.828,11.741 -10.568,21.321 39.511,18.547 47.83,-44.174 26.42,-63.953 21.808,7.374 32.073,53.859 10.57,69.281 -6.724,3.614 -6.822,-8.24 -8.81,-3.551 -7.247,0.146 -5.24,9.621 -3.521,14.209 -9.075,-0.861 -14.764,1.691 -19.375,5.329 0.175,6.337 7.746,5.215 10.569,8.882 -6.935,11.247 -31.771,0.289 -19.376,-10.657 -19.462,-10.477 -15.56,29.672 3.523,28.422 -23.443,12.51 -55.942,0.374 -61.649,-21.318 0.824,-6.272 2.968,-11.216 8.803,-12.433 -2.603,-9.391 -19.648,-5.486 -17.609,5.329 -9.902,-16.315 5.398,-43.076 26.419,-33.754 2.127,7.473 -2.844,7.792 -3.524,12.435 14.076,2.494 20.284,-8.873 15.855,-19.542 11.571,-0.899 14.387,25.416 1.761,19.542 -3.664,2.109 0.811,10.886 7.048,8.883 -2.439,5.832 -5.673,10.859 -14.093,10.661 -5.434,-0.633 4.636,-9.054 -1.762,-10.661 -19.816,8.298 9.929,23.077 22.895,12.436 23.061,-18.915 -1.889,-57.341 -33.464,-51.517 -5.602,1.033 -18.299,9.105 -21.135,12.435 -37.603,44.119 36.405,104.397 84.548,69.281 -2.534,9.687 2.871,32.774 19.373,23.092 1.695,-6.447 -7.916,-1.49 -7.046,-7.106 0.46,-16.031 9.048,-17.188 17.615,-8.878 -0.745,-3.715 1.205,-4.707 1.762,-7.108 3.862,4.984 7.36,10.338 17.615,8.883 -5.523,-5.192 -6.709,-15.66 -7.046,-21.317 5.859,2.49 18.226,3.758 17.613,-5.331 0.119,-6.635 -11.075,-1.859 -12.329,-7.107 0.436,-44.26 -9.066,-78.496 -33.47,-97.702 43.344,14.891 95.868,77.231 147.962,63.95 11.613,-2.961 25.458,-15.229 26.558,-32.645 4.813,4.208 9.418,8.413 13.834,12.611 -14.876,6.361 -27.265,20.834 -26.305,39.576 1.59,30.913 23.673,46.959 61.652,46.19 -4.028,12.471 -16.618,25.436 -12.33,46.182 2.421,11.721 16.762,18.028 15.853,30.205 8.332,-2.135 9.398,-19.172 1.762,-23.098 3.319,-4.349 8.987,-6.332 7.044,-15.984 -18.689,5.13 -19.628,-27.431 -5.282,-33.755 -2.891,13.131 5.966,19.33 1.762,28.424 7.597,-1.811 13.684,-5.148 12.327,-15.99 9.189,4.171 16.445,4.472 10.568,-7.106 2.02,2.542 5.539,12.499 9.389,14.214 2.465,16.484 3.103,17.683 6.033,25.758" /></g><g
           transform="translate(757.424,325.7599)"
           id="g160"><path
             id="path162"
             style="fill:#9c83c9;fill-opacity:1;fill-rule:nonzero;stroke:none"
             d="M 0,0 C -13.161,-0.785 -24.995,-0.228 -33.29,3.896 -38.031,2.226 -42.752,0.516 -47.461,-1.215 -33.771,-9.804 -13.23,-9.855 0,0" /></g><g
           transform="translate(880.7251,302.6641)"
           id="g164"><path
             id="path166"
             style="fill:#9c83c9;fill-opacity:1;fill-rule:nonzero;stroke:none"
             d="M 0,0 C -9.792,6.843 2.059,14.635 -1.762,23.096 -6.489,13.628 -19.908,3.528 -14.093,-10.656 -11.139,-5.345 -9.451,1.24 0,0" /></g><g
           transform="translate(702.8218,300.8891)"
           id="g168"><path
             id="path170"
             style="fill:#9c83c9;fill-opacity:1;fill-rule:nonzero;stroke:none"
             d="M 0,0 C -12.199,-1.317 -23.702,-3.335 -24.659,-15.988 -18.286,-8.795 -8.332,-5.218 0,0" /></g><g
           transform="translate(614.7498,283.1259)"
           id="g172"><path
             id="path174"
             style="fill:#9c83c9;fill-opacity:1;fill-rule:nonzero;stroke:none"
             d="M 0,0 C -2.489,-0.916 -4.759,-1.209 -6.883,-1.125 -13.17,-4.034 -19.355,-6.938 -25.409,-9.831 -15.961,-9.399 -5.227,-8.319 0,0" /></g><g
           transform="translate(900.0999,274.2435)"
           id="g176"><path
             id="path178"
             style="fill:#9c83c9;fill-opacity:1;fill-rule:nonzero;stroke:none"
             d="m 0,0 c -4.94,-0.942 -3.428,-8.388 -8.808,-8.884 -0.345,6.162 0.625,13.658 -5.285,14.214 -5.298,-14.742 3.649,-23.874 16.443,-26.122 0.942,1.595 1.865,3.178 2.76,4.751 C 3.368,-10.731 1.975,-5.071 0,0" /></g><g
           transform="translate(743.3329,213.8447)"
           id="g180"><path
             id="path182"
             style="fill:#9c83c9;fill-opacity:1;fill-rule:nonzero;stroke:none"
             d="M 0,0 C 0.098,2.271 2.258,2.461 1.762,5.329 -8.143,8.144 -13.935,-2.434 -17.613,0 c 6.856,4.929 7.23,16.391 10.567,24.869 -5.422,1.324 -3.384,-4.875 -8.807,-3.552 0.096,4.949 -3.531,15.225 -7.044,10.659 12.033,-25.031 -9.581,-44.058 -15.853,-62.175 21.582,6.146 33.182,31.554 61.649,24.87 C 20.223,2.731 7.843,1.91 0,0" /></g><g
           transform="translate(526.6801,222.727)"
           id="g184"><path
             id="path186"
             style="fill:#9c83c9;fill-opacity:1;fill-rule:nonzero;stroke:none"
             d="m 0,0 c -5.076,3.246 -5.51,2.881 -12.327,1.775 2.409,4.674 7.414,6.734 8.807,12.434 -25.86,-2.325 -17.441,-41.92 -5.287,-53.291 C -15.66,-25.525 -11.81,-5.022 0,0" /></g><g
           transform="translate(494.9761,222.727)"
           id="g188"><path
             id="path190"
             style="fill:#9c83c9;fill-opacity:1;fill-rule:nonzero;stroke:none"
             d="M 0,0 C 0.488,0.883 0.877,1.746 1.203,2.587 0.195,2.032 -0.781,1.485 -1.766,0.942 -1.241,0.564 -0.666,0.237 0,0" /></g><g
           transform="translate(453.1499,182.1784)"
           id="g192"><path
             id="path194"
             style="fill:#9c83c9;fill-opacity:1;fill-rule:nonzero;stroke:none"
             d="M 0,0 C 3.471,-3.446 7.159,-6.891 10.996,-10.315 12.893,1.29 11.412,13.425 4.967,21.413 0.313,18.664 -3.399,16.431 -6.081,14.804 -3.091,10.645 -1.071,5.515 0,0" /></g><g
           transform="translate(662.3085,229.831)"
           id="g196"><path
             id="path198"
             style="fill:#9c83c9;fill-opacity:1;fill-rule:nonzero;stroke:none"
             d="m 0,0 c -0.696,-3.056 2.616,-4.554 0,-5.329 -3.855,0.398 -9.48,8.012 -12.331,3.552 9.547,-1.655 17.609,-14.171 22.9,-14.209 C 7.469,-12.01 -0.834,3.681 0,0" /></g><g
           id="g200"><g
             id="g202" /><g
             id="g266"><g
               style="opacity:0.55999798"
               id="g264"
               clip-path="url(#clipPath206)"><g
                 id="g210"
                 transform="translate(702.8218,300.8891)"><path
                   id="path208"
                   style="fill:#9c83c9;fill-opacity:1;fill-rule:nonzero;stroke:none"
                   d="M 0,0 C -8.332,-5.218 -18.286,-8.795 -24.659,-15.988 -23.702,-3.335 -12.199,-1.317 0,0 m -22.899,-24.871 c 0.785,4.539 2.471,8.17 5.286,10.66 C 19.716,3.209 52.715,25 102.163,30.201 97.429,26.089 93.088,21.583 91.592,14.211 c 1.533,-7.78 14.085,-19.01 19.374,-7.105 -7.483,-1.628 -7.519,4.258 -7.043,10.661 25.434,29.824 40.487,-52.053 -1.76,-39.082 -5.365,1.693 -4.051,10.125 -12.333,8.881 -6.928,-14.16 8.089,-18.187 14.093,-24.871 -7.588,-3.006 -17.369,-3.797 -26.422,-5.329 -7.675,1.939 -8.495,9.14 -12.33,10.658 -9.462,1.446 -8.389,-9.693 -8.805,-12.435 -10.083,2.266 -17.91,6.809 -21.141,15.989 -0.439,5.182 3.32,6.127 5.286,8.882 -3.983,4.345 -7.745,0.626 -10.567,3.552 1.628,18.544 14.547,28.021 29.944,23.094 20.105,-6.433 6.162,-42.596 -7.048,-23.094 -1.881,6.637 4.374,5.062 3.526,10.659 -25.786,-1.576 -9.911,-25.372 3.522,-24.87 13.7,0.514 19.007,15.855 17.613,24.87 -3.444,22.277 -38.07,20.407 -47.557,10.656 -4.837,-4.966 -9.837,-17.148 -7.046,-30.198 4.669,-21.844 24.125,-25.85 58.126,-26.647 -7.845,-14.605 10.445,-32.259 19.377,-19.54 -6.575,-0.71 -10.338,1.423 -10.571,7.105 14.283,25.645 49.136,24.557 51.084,60.403 1.058,19.509 -10.383,45.487 17.613,49.738 3.328,-1.971 6.175,-4.432 10.569,-5.331 2.348,19.905 -19.047,13.834 -26.422,7.107 2.171,4.74 4.361,10.531 7.244,15.62 -3.077,-0.534 -6.161,-1.098 -9.252,-1.687 -3.898,-10.886 -7.042,-22.976 -10.321,-35.25 -5.439,11.78 -28.03,14.447 -34.485,25.112 C 92.722,50.94 89.582,50.099 86.438,49.24 89.877,43.247 95.841,37.599 100.401,35.532 81.833,32.679 50.324,27.224 30.311,31.9 27.307,30.869 24.307,29.822 21.312,28.767 29.607,24.643 41.441,24.086 54.602,24.871 41.372,15.016 20.831,15.067 7.141,23.656 4.672,22.745 2.203,21.842 -0.259,20.916 8.272,18.909 15.43,15.516 21.136,10.659 7.633,6.464 -20.504,-0.097 -35.761,6.953 c -2.366,-0.971 -4.723,-1.94 -7.073,-2.919 5.537,-3.233 12.696,-5.01 19.935,-7.584 -5.319,-3.995 -8.243,-18.144 0,-21.321" /></g><g
                 id="g214"
                 transform="translate(903.6218,366.6187)"><path
                   id="path212"
                   style="fill:#9c83c9;fill-opacity:1;fill-rule:nonzero;stroke:none"
                   d="M 0,0 C 0.646,1.509 1.107,2.91 1.42,4.22 -0.121,4.123 -1.657,4.034 -3.207,3.92 -2.999,1.647 -2.963,-0.454 0,0" /></g><g
                 id="g218"
                 transform="translate(917.7165,370.1706)"><path
                   id="path216"
                   style="fill:#9c83c9;fill-opacity:1;fill-rule:nonzero;stroke:none"
                   d="m 0,0 c -1.212,-17.844 -29.881,-25.299 -31.554,-0.96 -2.97,-0.319 -5.949,-0.662 -8.941,-1.043 -0.02,-0.507 -0.042,-1.018 -0.02,-1.549 1.096,-27.54 44.664,-21.33 49.317,0 0.38,1.722 0.575,3.391 0.677,5.024 C 6.342,1.452 3.191,1.392 0.02,1.292 0.014,0.865 0.027,0.449 0,0" /></g><g
                 id="g222"
                 transform="translate(683.447,169.4336)"><path
                   id="path220"
                   style="fill:#9c83c9;fill-opacity:1;fill-rule:nonzero;stroke:none"
                   d="M 0,0 V -7.107 C 5.255,-9.572 10.779,-9.205 12.329,-3.552 10.714,0.365 4.58,4.408 0,0" /></g><g
                 id="g226"
                 transform="translate(743.3329,141.0093)"><path
                   id="path224"
                   style="fill:#9c83c9;fill-opacity:1;fill-rule:nonzero;stroke:none"
                   d="m 0,0 c 0.575,-36.075 -69.108,-35.09 -98.639,-21.315 -2.84,-2.465 -9.079,-1.503 -10.567,-5.331 13.749,-7.176 33.619,-8.01 53.414,-8.627 15.992,2.261 32.68,5.916 49.984,10.99 3.749,3.888 14.794,8.098 12.855,18.954 6.044,-6.054 1.892,-12.086 -4.062,-16.307 2.268,0.724 4.572,1.532 6.864,2.31 C 13.728,-9.864 11.235,3.069 0,0" /></g><g
                 id="g230"
                 transform="translate(878.9632,325.7599)"><path
                   id="path228"
                   style="fill:#9c83c9;fill-opacity:1;fill-rule:nonzero;stroke:none"
                   d="M 0,0 C 3.82,-8.461 -8.03,-16.253 1.762,-23.096 -7.69,-21.855 -9.377,-28.441 -12.331,-33.751 -18.146,-19.567 -4.727,-9.468 0,0 m 26.419,-56.847 c 5.877,11.577 -1.379,11.276 -10.568,7.106 1.357,10.841 -4.73,14.178 -12.327,15.99 4.204,-9.095 -4.653,-15.294 -1.762,-28.425 -14.346,6.325 -13.407,38.885 5.282,33.755 1.943,9.652 -3.725,11.636 -7.044,15.984 7.635,3.926 6.57,20.964 -1.762,23.098 0.908,-12.177 -13.432,-18.484 -15.853,-30.205 -4.289,-20.746 8.301,-33.711 12.33,-46.182 -37.979,0.77 -60.062,-15.277 -61.652,-46.189 -0.96,-18.743 11.428,-33.216 26.305,-39.577 7.485,7.113 14.413,14.197 20.83,21.224 -2.606,4.07 -7.497,6.697 -13.666,5.917 -4.258,-4.268 4.277,-4.704 1.76,-12.435 -20.968,-9.377 -35.025,16.856 -26.42,31.978 0.078,-9.893 11.789,-12.788 17.615,-7.107 -1.255,5.839 -8.161,5.978 -8.807,12.434 2.785,23.607 38.8,36.871 61.649,23.092 -17.92,1.113 -18.958,-25.022 -11.289,-29.016 1.359,1.774 2.686,3.54 3.98,5.295 -0.091,0.832 -0.046,1.667 0.262,2.404 0.121,3.924 3.221,6.659 7.12,8.003 4.019,5.896 7.711,11.705 11.085,17.395 -12.795,2.247 -21.741,11.38 -16.443,26.122 5.909,-0.556 4.94,-8.052 5.285,-14.215 5.38,0.496 3.868,7.943 8.808,8.885 1.975,-5.072 3.368,-10.731 5.11,-16.042 3.541,6.227 6.719,12.305 9.561,18.209 -3.851,-1.715 -7.369,-4.957 -9.389,-7.498" /></g><g
                 id="g234"
                 transform="translate(856.0632,226.279)"><path
                   id="path232"
                   style="fill:#9c83c9;fill-opacity:1;fill-rule:nonzero;stroke:none"
                   d="m 0,0 c -9.844,-2.091 -17.072,-20.808 0,-15.988 2.932,5.582 -6.552,7.259 -1.76,8.882 7.801,0.763 11.151,-2.962 12.329,-8.882 -4.954,-0.33 -7.505,-3.091 -7.045,-8.883 2.283,1.077 4.106,1.212 5.574,0.796 4.557,5.223 8.829,10.409 12.841,15.546 C 16.757,-2.014 8.921,1.895 0,0" /></g><g
                 id="g238"
                 transform="translate(442.0251,193.8887)"><path
                   id="path236"
                   style="fill:#9c83c9;fill-opacity:1;fill-rule:nonzero;stroke:none"
                   d="M 0,0 C 3.47,-3.875 7.181,-7.794 11.125,-11.71 10.054,-6.195 8.033,-1.066 5.043,3.094 1.749,1.096 0,0 0,0" /></g><g
                 id="g242"
                 transform="translate(458.1169,203.5919)"><path
                   id="path240"
                   style="fill:#9c83c9;fill-opacity:1;fill-rule:nonzero;stroke:none"
                   d="m 0,0 c 6.445,-7.989 7.926,-20.124 6.029,-31.728 2.156,-1.927 4.376,-3.838 6.651,-5.745 3.9,15.054 5.304,32.631 7.652,49.251 C 12.349,7.234 5.506,3.251 0,0" /></g><g
                 id="g246"
                 transform="translate(595.3754,268.9128)"><path
                   id="path244"
                   style="fill:#9c83c9;fill-opacity:1;fill-rule:nonzero;stroke:none"
                   d="m 0,0 c 12.606,2.246 22.518,9.895 28.985,20.6 -5.577,-2.501 -11.068,-5.008 -16.493,-7.512 2.124,-0.084 4.394,0.209 6.882,1.125 C 14.147,5.895 3.413,4.814 -6.035,4.382 -8.853,3.036 -11.644,1.693 -14.408,0.358 -10.423,-0.226 -6.404,-1.138 0,0" /></g><g
                 id="g250"
                 transform="translate(752.142,219.1732)"><path
                   id="path248"
                   style="fill:#9c83c9;fill-opacity:1;fill-rule:nonzero;stroke:none"
                   d="m 0,0 c 1.48,2.062 2.321,4.763 1.76,8.881 -4.705,1.029 -11.007,-5.254 -14.091,0 -0.948,8.061 3.54,10.643 5.284,15.99 -8.184,1.74 -10.634,-2.304 -15.853,-3.552 0.373,12.646 -17.492,23.59 -24.659,12.434 34.005,-16.603 -4.149,-50.015 -7.045,-72.833 27.755,-2.997 41.805,39.881 77.499,23.094 C 22.215,-3.245 6.979,-1.144 0,0" /></g><g
                 id="g254"
                 transform="translate(709.8671,139.2342)"><path
                   id="path252"
                   style="fill:#9c83c9;fill-opacity:1;fill-rule:nonzero;stroke:none"
                   d="m 0,0 c 0.545,-4.154 3.448,-7.339 0,-10.657 22.764,3.145 4.005,27.335 -10.569,24.867 14.548,5.462 23.758,16.307 45.797,14.213 5.481,-1.578 5.171,-8.999 10.567,-10.66 13.393,8.166 -2.851,21.478 -12.329,23.096 13.347,6.389 33.191,10.453 40.513,-3.554 9.059,-2.03 5.255,8.914 8.805,12.435 20.925,-1.668 24.326,-24.2 18.095,-38.914 4.76,3.865 9.337,7.733 13.751,11.597 C 113.53,39.839 99.685,52.108 88.072,55.068 35.978,68.349 -16.546,6.009 -59.89,-8.882 c 24.404,19.206 33.906,53.442 33.47,97.702 1.253,5.248 12.448,0.472 12.329,7.107 0.613,9.089 -11.754,7.821 -17.613,5.331 0.336,5.657 1.523,16.125 7.046,21.317 -10.255,1.456 -13.753,-3.899 -17.615,-8.883 -0.557,2.401 -2.507,3.393 -1.762,7.108 -8.567,-8.31 -17.155,-7.153 -17.615,8.879 -0.87,5.615 8.741,0.658 7.046,7.105 -16.502,9.682 -21.907,-13.405 -19.373,-23.092 -48.143,35.116 -122.151,-25.162 -84.548,-69.281 2.836,-3.33 15.533,-11.402 21.135,-12.435 31.575,-5.824 56.525,32.602 33.464,51.517 -12.966,10.641 -42.711,-4.138 -22.895,-12.436 6.398,1.607 -3.672,10.028 1.762,10.661 8.42,0.199 11.654,-4.829 14.093,-10.661 -6.237,2.003 -10.713,-6.774 -7.048,-8.883 12.626,5.874 9.81,-20.441 -1.762,-19.542 4.43,10.669 -1.778,22.036 -15.854,19.542 0.68,-4.643 5.651,-4.962 3.523,-12.434 -21.02,-9.323 -36.32,17.438 -26.418,33.753 -2.039,-10.815 15.006,-14.72 17.609,-5.329 -5.835,1.217 -7.979,6.161 -8.803,12.433 5.706,21.692 38.206,33.828 61.649,21.318 -19.083,1.25 -22.985,-38.899 -3.524,-28.422 -12.394,10.946 12.442,21.904 19.377,10.657 -2.824,-3.666 -10.394,-2.545 -10.569,-8.882 4.611,-3.638 10.299,-6.19 19.374,-5.329 -1.718,-4.588 -3.726,-14.063 3.522,-14.209 1.988,-4.689 2.086,7.166 8.809,3.552 C -29.577,53.859 -39.842,7.374 -61.65,0 c 21.41,19.779 13.091,82.5 -26.42,63.953 -4.26,-9.579 -1.646,-22.935 10.567,-21.321 -2.445,5.303 -2.08,10.875 3.526,12.436 21.339,1.719 20.521,-28.966 8.804,-37.305 0.665,9.047 -13.321,17.935 -19.375,8.885 6.221,-0.832 6.463,-7.697 8.807,-12.438 -7.277,-5.273 -9.925,-15.215 -14.697,-23.014 -0.255,-0.647 -0.607,-1.273 -1.156,-1.853 0.411,0.589 0.777,1.229 1.156,1.853 1.554,3.92 -1.705,8.815 -2.917,12.354 -4.219,1.075 -8.037,2.556 -14.09,1.777 0.17,-5.747 7.981,-3.789 5.282,-12.432 -7.374,-9.735 -20.371,-13.798 -36.989,-14.212 3.963,8.06 0.282,17.628 -8.806,17.764 3.106,-15.316 -16.479,-15.077 -22.9,-10.66 1.5,2.636 4.434,3.82 8.809,3.556 -0.061,7.043 -6.797,7.355 -10.571,10.657 5.114,5.851 -1.839,14.648 -10.567,12.435 -0.718,-4.279 3.218,-3.862 1.762,-8.885 -4.772,-5.283 -10.629,-6.527 -16.55,-5.254 22.11,-12.567 47.599,-22.909 76.38,-28.979 C -70.94,-30.542 -44.194,6.046 0,0" /></g><g
                 id="g258"
                 transform="translate(789.1315,165.882)"><path
                   id="path256"
                   style="fill:#9c83c9;fill-opacity:1;fill-rule:nonzero;stroke:none"
                   d="m 0,0 c 10.905,-0.823 4.19,-11.039 5.282,-15.99 2.458,2.853 8.693,1.892 10.571,5.328 1.273,8.982 -1.941,13.44 -5.286,17.766 -10.594,3.083 -20.34,0.41 -22.9,-1.775 -15.078,-12.885 -4.737,-29.397 10.135,-36.481 2.185,0.941 4.36,1.87 6.558,2.863 C -11.566,-26.314 -16.3,1.228 0,0" /></g><g
                 id="g262"
                 transform="translate(523.16,236.9364)"><path
                   id="path260"
                   style="fill:#9c83c9;fill-opacity:1;fill-rule:nonzero;stroke:none"
                   d="m 0,0 c -1.393,-5.701 -6.398,-7.76 -8.807,-12.434 6.817,1.105 7.251,1.47 12.327,-1.775 C -8.29,-19.232 -12.139,-39.735 -5.287,-53.291 -17.441,-41.921 -25.86,-2.326 0,0 m -24.662,-53.291 c 5.651,-5.909 -4.104,-6.298 -5.286,-10.66 8.924,-7.334 18.221,0.168 22.901,7.108 13.832,-25.424 54.088,-53.531 81.024,-51.517 -17.474,2.52 -35.582,13.836 -33.466,30.198 8.464,-2.747 12.094,-19.735 21.137,-15.99 -3.907,1.259 -5.854,8.341 -3.524,10.66 5.532,-7.102 5.546,2.603 12.329,3.553 -5.768,-8.784 1.976,-27.154 10.571,-21.317 -8.642,2.638 -11.439,15.35 -5.283,23.094 -12.8,-4.23 -19.516,2.556 -24.664,-5.33 -2.855,5.463 -12.056,13.824 -19.373,8.882 3.48,-3.079 6.689,-15.652 5.284,-17.765 C 15.14,-82.806 -25.447,-39.516 8.804,-17.763 8.813,-11.243 2.637,-10.955 0,-7.105 6.3,-5.58 8.95,-0.374 8.816,7.64 -1.946,2.009 -11.958,-3.371 -21.097,-8.384 c -0.689,-11.457 1.038,-23.499 5.242,-34.25 -4.634,1.841 -10.81,2.127 -17.615,1.777 -12.356,-14.151 -13.817,-26.814 -8.923,-37.965 4.132,-3.153 8.457,-6.238 12.919,-9.259 -13.394,14.135 -18.902,35.784 4.812,34.79" /></g></g></g></g><g
           transform="translate(750.3801,135.6808)"
           id="g268"><path
             id="path270"
             style="fill:#9c83c9;fill-opacity:1;fill-rule:nonzero;stroke:none"
             d="m 0,0 c 1.939,-10.857 -9.106,-15.067 -12.856,-18.955 2.922,0.862 5.836,1.706 8.794,2.647 C 1.892,-12.086 6.044,-6.055 0,0" /></g><g
           transform="translate(704.5833,183.7106)"
           id="g272"><path
             id="path274"
             style="fill:#9c83c9;fill-opacity:1;fill-rule:nonzero;stroke:none"
             d="m 0,0 c 6.271,18.117 27.886,37.145 15.853,62.176 3.513,4.568 7.14,-5.71 7.044,-10.658 5.423,-1.324 3.384,4.875 8.807,3.552 -3.337,-8.479 -3.71,-19.943 -10.567,-24.872 3.677,-2.434 9.469,8.145 19.374,5.33 0.496,-2.868 -1.664,-3.057 -1.761,-5.33 7.843,1.912 20.223,2.733 22.898,-5.327 C 33.182,31.557 21.582,6.148 0,0" /></g><g
           transform="translate(649.9775,228.054)"
           id="g276"><path
             id="path278"
             style="fill:#9c83c9;fill-opacity:1;fill-rule:nonzero;stroke:none"
             d="m 0,0 c 2.851,4.46 8.476,-3.154 12.331,-3.552 2.616,0.775 -0.696,2.273 0,5.329 -0.834,3.681 7.469,-12.01 10.569,-15.986" /></g></g></g><g
       id="g280"><g
         clip-path="url(#clipPath286)"
         id="g282"><g
           transform="translate(369.0249,350.0485)"
           id="g288"><path
             id="path290"
             style="fill:none;stroke:#231f20;stroke-width:4;stroke-linecap:butt;stroke-linejoin:miter;stroke-miterlimit:10;stroke-dasharray:none;stroke-opacity:1"
             d="m 0,0 c -1.161,10.379 -1.756,20.93 -1.756,31.621 0,155.479 126.041,281.521 281.518,281.521 97.565,10e-4 183.537,-49.628 234.047,-125.022" /></g><g
           transform="translate(930.3077,381.6694)"
           id="g292"><path
             id="path294"
             style="fill:none;stroke:#231f20;stroke-width:4;stroke-linecap:butt;stroke-linejoin:miter;stroke-miterlimit:10;stroke-dasharray:none;stroke-opacity:1"
             d="m 0,0 c 0,-155.479 -126.041,-281.519 -281.521,-281.519 -85.154,0 -161.479,37.809 -213.1,97.556" /></g><g
           transform="translate(259.9847,275.3662)"
           id="g296"><path
             id="path298"
             style="fill:#231f20;fill-opacity:1;fill-rule:nonzero;stroke:none"
             d="M 0,0 C 0,0 344.447,247.306 776.337,274.365 594.15,283.007 394.555,219.525 379.214,214.129 363.878,208.734 93.464,111.164 0,0" /></g><g
           transform="translate(347.2751,138.9417)"
           id="g300"><path
             id="path302"
             style="fill:#231f20;fill-opacity:1;fill-rule:nonzero;stroke:none"
             d="M 0,0 C 0,0 319.169,209.989 720.535,253.145 586.627,272.098 398.981,207.719 384.778,202.719 370.574,197.72 60.318,89.116 0,0" /></g><g
           transform="translate(448.1463,162.7897)"
           id="g304"><path
             id="path306"
             style="fill:#231f20;fill-opacity:1;fill-rule:nonzero;stroke:none"
             d="M 0,0 C 0,0 -46.779,1.706 -99.759,-23.126 -84.443,0.626 -30.993,32.907 -28.71,33.65 -17.959,16.036 0,0 0,0" /></g><g
           transform="translate(942.0093,340.4544)"
           id="g308"><path
             id="path310"
             style="fill:#231f20;fill-opacity:1;fill-rule:nonzero;stroke:none"
             d="M 0,0 C 0,0 56.031,41.215 123.871,51.155 96.575,58.482 4.506,48.447 2.315,47.465 6.167,27.191 0,0 0,0" /></g></g></g><g
       id="g312"><g
         clip-path="url(#clipPath318)"
         id="g314"><g
           transform="translate(458.3296,438.6606)"
           id="g320"><path
             id="path322"
             style="fill:#ffffff;fill-opacity:1;fill-rule:nonzero;stroke:none"
             d="m 0,0 c 1.893,0.932 3.79,1.861 5.69,2.786 4.372,2.108 6.2,3.531 6.834,5.237 0.951,2.469 0.474,4.489 -2.667,10.678 C 7.452,23.427 6.595,24.745 5.1,25.921 2.288,28.097 0.212,28.12 -4.256,25.879 -6.691,24.657 -9.121,23.428 -11.545,22.194 -7.649,14.811 -3.801,7.412 0,0 m -11.763,22.608 c 2.119,1.078 4.241,2.153 6.368,3.222 5.669,2.847 5.866,4.932 1.298,13.656 -5.564,10.582 -7.385,11.704 -13.306,8.633 -2.094,-1.086 -4.184,-2.176 -6.269,-3.27 4.018,-7.399 7.987,-14.813 11.909,-22.241 m -8.879,24.574 c 1.374,0.726 2.749,1.45 4.127,2.173 7.264,3.652 12.203,1.443 16.862,-7.494 C 2.768,37.217 3.194,34.468 1.987,31.782 1.171,30.072 -0.286,28.564 -2.45,27.22 5.761,30.709 10.499,29.003 14.467,21.138 18.608,12.912 16.534,7.513 7.721,3.108 2.519,0.504 -2.658,-2.127 -7.809,-4.786 -7.905,-4.602 -8,-4.418 -8.096,-4.234 c 1.179,0.609 2.358,1.215 3.54,1.821 -7.748,15.008 -15.692,29.958 -23.831,44.845 -1.212,-0.625 -2.424,-1.251 -3.633,-1.878 -0.101,0.182 -0.201,0.365 -0.302,0.548 3.879,2.041 7.773,4.068 11.68,6.08" /></g><g
           transform="translate(458.3296,438.6606)"
           id="g324"><path
             id="path326"
             style="fill:none;stroke:#ffffff;stroke-width:0.5;stroke-linecap:butt;stroke-linejoin:miter;stroke-miterlimit:4;stroke-dasharray:none;stroke-opacity:1"
             d="m 0,0 c 1.893,0.932 3.79,1.861 5.69,2.786 4.372,2.108 6.2,3.531 6.834,5.237 0.951,2.469 0.474,4.489 -2.667,10.678 C 7.452,23.427 6.595,24.745 5.1,25.921 2.288,28.097 0.212,28.12 -4.256,25.879 -6.691,24.657 -9.121,23.428 -11.545,22.194 -7.649,14.811 -3.801,7.412 0,0 Z m -11.763,22.608 c 2.119,1.078 4.241,2.153 6.368,3.222 5.669,2.847 5.866,4.932 1.298,13.656 -5.564,10.582 -7.385,11.704 -13.306,8.633 -2.094,-1.086 -4.184,-2.176 -6.269,-3.27 4.018,-7.399 7.987,-14.813 11.909,-22.241 z m -8.879,24.574 c 1.374,0.726 2.749,1.45 4.127,2.173 7.264,3.652 12.203,1.443 16.862,-7.494 C 2.768,37.217 3.194,34.468 1.987,31.782 1.171,30.072 -0.286,28.564 -2.45,27.22 5.761,30.709 10.499,29.003 14.467,21.138 18.608,12.912 16.534,7.513 7.721,3.108 2.519,0.504 -2.658,-2.127 -7.809,-4.786 -7.905,-4.602 -8,-4.418 -8.096,-4.234 c 1.179,0.609 2.358,1.215 3.54,1.821 -7.748,15.008 -15.692,29.958 -23.831,44.845 -1.212,-0.625 -2.424,-1.251 -3.633,-1.878 -0.101,0.182 -0.201,0.365 -0.302,0.548 3.879,2.041 7.773,4.068 11.68,6.08 z" /></g><g
           transform="translate(482.6406,474.8578)"
           id="g328"><path
             id="path330"
             style="fill:#ffffff;fill-opacity:1;fill-rule:nonzero;stroke:none"
             d="M 0,0 C 4.94,2.352 9.902,4.68 14.885,6.983 8.457,13.822 1.946,20.621 -4.648,27.378 -3.083,18.254 -1.534,9.128 0,0 m 35.72,-7.62 c 1.323,0.597 2.649,1.192 3.976,1.785 0.077,-0.165 0.154,-0.33 0.231,-0.496 -4.462,-1.994 -8.908,-4.008 -13.336,-6.042 -0.078,0.165 -0.156,0.329 -0.234,0.493 1.388,0.638 2.779,1.274 4.171,1.908 C 25.896,-4.854 21.219,0.244 16.496,5.319 11.082,2.82 5.693,0.293 0.329,-2.263 1.474,-9.011 2.609,-15.76 3.736,-22.51 c 1.323,0.636 2.648,1.271 3.974,1.903 0.08,-0.164 0.16,-0.327 0.24,-0.491 -3.244,-1.546 -6.479,-3.104 -9.704,-4.672 -0.081,0.164 -0.161,0.326 -0.242,0.489 1.365,0.664 2.733,1.326 4.102,1.987 -2.834,17.433 -5.723,34.861 -8.667,52.281 -1.661,-0.783 -3.32,-1.57 -4.977,-2.358 -0.095,0.185 -0.191,0.371 -0.287,0.557 5.093,2.425 10.208,4.825 15.344,7.2 0.094,-0.187 0.189,-0.374 0.283,-0.56 C 2.155,33.065 0.512,32.302 -1.13,31.535 11.456,18.633 23.74,5.578 35.72,-7.62" /></g><g
           transform="translate(482.6406,474.8578)"
           id="g332"><path
             id="path334"
             style="fill:none;stroke:#ffffff;stroke-width:0.5;stroke-linecap:butt;stroke-linejoin:miter;stroke-miterlimit:4;stroke-dasharray:none;stroke-opacity:1"
             d="M 0,0 C 4.94,2.352 9.902,4.68 14.885,6.983 8.457,13.822 1.946,20.621 -4.648,27.378 -3.083,18.254 -1.534,9.128 0,0 Z m 35.72,-7.62 c 1.323,0.597 2.649,1.192 3.976,1.785 0.077,-0.165 0.154,-0.33 0.231,-0.496 -4.462,-1.994 -8.908,-4.008 -13.336,-6.042 -0.078,0.165 -0.156,0.329 -0.234,0.493 1.388,0.638 2.779,1.274 4.171,1.908 C 25.896,-4.854 21.219,0.244 16.496,5.319 11.082,2.82 5.693,0.293 0.329,-2.263 1.474,-9.011 2.609,-15.76 3.736,-22.51 c 1.323,0.636 2.648,1.271 3.974,1.903 0.08,-0.164 0.16,-0.327 0.24,-0.491 -3.244,-1.546 -6.479,-3.104 -9.704,-4.672 -0.081,0.164 -0.161,0.326 -0.242,0.489 1.365,0.664 2.733,1.326 4.102,1.987 -2.834,17.433 -5.723,34.861 -8.667,52.281 -1.661,-0.783 -3.32,-1.57 -4.977,-2.358 -0.095,0.185 -0.191,0.371 -0.287,0.557 5.093,2.425 10.208,4.825 15.344,7.2 0.094,-0.187 0.189,-0.374 0.283,-0.56 C 2.155,33.065 0.512,32.302 -1.13,31.535 11.456,18.633 23.74,5.578 35.72,-7.62 Z" /></g><g
           transform="translate(538.0977,515.3219)"
           id="g336"><path
             id="path338"
             style="fill:#ffffff;fill-opacity:1;fill-rule:nonzero;stroke:none"
             d="m 0,0 c -0.9,-0.379 -1.799,-0.759 -2.697,-1.14 -3.697,7.96 -11.626,11.844 -18.306,8.937 -4.276,-1.86 -6.396,-5.883 -5.607,-10.671 0.271,-1.679 1.382,-4.528 3.111,-8.127 3.006,-6.258 5.978,-12.525 8.917,-18.801 2.154,-4.599 4.108,-7.491 6.013,-8.958 2.879,-2.06 6.249,-2.373 9.972,-0.766 7.078,3.052 8.939,9.498 5.103,17.98 1.135,0.48 2.271,0.959 3.407,1.436 3.595,-7.994 0.028,-16.326 -8.356,-19.945 -5.183,-2.236 -11.068,-1.759 -15.244,1.171 -2.397,1.755 -5.253,5.783 -7.732,11.009 -1.743,3.673 -3.497,7.342 -5.262,11.009 -2.921,6.062 -3.95,9.634 -3.734,12.902 0.427,5.419 3.77,9.905 9.323,12.32 6.377,2.772 12.411,1.755 17.516,-2.807 -1.197,2.557 -2.4,5.112 -3.608,7.666 0.277,0.117 0.554,0.234 0.831,0.351 C -4.218,9.048 -2.101,4.526 0,0" /></g><g
           transform="translate(538.0977,515.3219)"
           id="g340"><path
             id="path342"
             style="fill:none;stroke:#ffffff;stroke-width:0.5;stroke-linecap:butt;stroke-linejoin:miter;stroke-miterlimit:4;stroke-dasharray:none;stroke-opacity:1"
             d="m 0,0 c -0.9,-0.379 -1.799,-0.759 -2.697,-1.14 -3.697,7.96 -11.626,11.844 -18.306,8.937 -4.276,-1.86 -6.396,-5.883 -5.607,-10.671 0.271,-1.679 1.382,-4.528 3.111,-8.127 3.006,-6.258 5.978,-12.525 8.917,-18.801 2.154,-4.599 4.108,-7.491 6.013,-8.958 2.879,-2.06 6.249,-2.373 9.972,-0.766 7.078,3.052 8.939,9.498 5.103,17.98 1.135,0.48 2.271,0.959 3.407,1.436 3.595,-7.994 0.028,-16.326 -8.356,-19.945 -5.183,-2.236 -11.068,-1.759 -15.244,1.171 -2.397,1.755 -5.253,5.783 -7.732,11.009 -1.743,3.673 -3.497,7.342 -5.262,11.009 -2.921,6.062 -3.95,9.634 -3.734,12.902 0.427,5.419 3.77,9.905 9.323,12.32 6.377,2.772 12.411,1.755 17.516,-2.807 -1.197,2.557 -2.4,5.112 -3.608,7.666 0.277,0.117 0.554,0.234 0.831,0.351 C -4.218,9.048 -2.101,4.526 0,0 Z" /></g><g
           transform="translate(550.7512,537.2716)"
           id="g344"><path
             id="path346"
             style="fill:#ffffff;fill-opacity:1;fill-rule:nonzero;stroke:none"
             d="m 0,0 c 0.087,-0.19 0.175,-0.381 0.263,-0.571 -1.5,-0.609 -2.998,-1.221 -4.494,-1.834 3.394,-7.34 6.743,-14.691 10.048,-22.053 6.666,2.723 13.366,5.403 20.099,8.039 -3.224,7.404 -6.494,14.797 -9.807,22.181 -1.512,-0.595 -3.021,-1.191 -4.529,-1.789 -0.087,0.191 -0.173,0.382 -0.259,0.573 4.832,1.918 9.681,3.813 14.548,5.686 0.085,-0.191 0.169,-0.383 0.254,-0.575 -1.57,-0.604 -3.138,-1.211 -4.705,-1.82 6.938,-15.579 13.677,-31.204 20.217,-46.87 1.527,0.589 3.056,1.175 4.587,1.76 0.08,-0.193 0.16,-0.385 0.24,-0.578 -4.742,-1.81 -9.468,-3.642 -14.176,-5.495 -0.082,0.191 -0.163,0.383 -0.244,0.575 1.47,0.579 2.942,1.156 4.415,1.73 -3.175,7.546 -6.397,15.082 -9.665,22.608 -6.726,-2.633 -13.419,-5.309 -20.077,-8.028 3.35,-7.483 6.654,-14.976 9.912,-22.481 1.459,0.594 2.919,1.186 4.381,1.775 0.082,-0.191 0.165,-0.382 0.248,-0.574 -4.633,-1.867 -9.249,-3.756 -13.847,-5.665 -0.084,0.191 -0.168,0.381 -0.253,0.571 1.477,0.613 2.954,1.224 4.434,1.833 -6.797,15.536 -13.794,31.026 -20.988,46.468 -1.518,-0.629 -3.034,-1.261 -4.548,-1.894 -0.089,0.19 -0.178,0.379 -0.267,0.569 C -9.492,-3.885 -4.754,-1.932 0,0" /></g><g
           transform="translate(550.7512,537.2716)"
           id="g348"><path
             id="path350"
             style="fill:none;stroke:#ffffff;stroke-width:0.5;stroke-linecap:butt;stroke-linejoin:miter;stroke-miterlimit:4;stroke-dasharray:none;stroke-opacity:1"
             d="m 0,0 c 0.087,-0.19 0.175,-0.381 0.263,-0.571 -1.5,-0.609 -2.998,-1.221 -4.494,-1.834 3.394,-7.34 6.743,-14.691 10.048,-22.053 6.666,2.723 13.366,5.403 20.099,8.039 -3.224,7.404 -6.494,14.797 -9.807,22.181 -1.512,-0.595 -3.021,-1.191 -4.529,-1.789 -0.087,0.191 -0.173,0.382 -0.259,0.573 4.832,1.918 9.681,3.813 14.548,5.686 0.085,-0.191 0.169,-0.383 0.254,-0.575 -1.57,-0.604 -3.138,-1.211 -4.705,-1.82 6.938,-15.579 13.677,-31.204 20.217,-46.87 1.527,0.589 3.056,1.175 4.587,1.76 0.08,-0.193 0.16,-0.385 0.24,-0.578 -4.742,-1.81 -9.468,-3.642 -14.176,-5.495 -0.082,0.191 -0.163,0.383 -0.244,0.575 1.47,0.579 2.942,1.156 4.415,1.73 -3.175,7.546 -6.397,15.082 -9.665,22.608 -6.726,-2.633 -13.419,-5.309 -20.077,-8.028 3.35,-7.483 6.654,-14.976 9.912,-22.481 1.459,0.594 2.919,1.186 4.381,1.775 0.082,-0.191 0.165,-0.382 0.248,-0.574 -4.633,-1.867 -9.249,-3.756 -13.847,-5.665 -0.084,0.191 -0.168,0.381 -0.253,0.571 1.477,0.613 2.954,1.224 4.434,1.833 -6.797,15.536 -13.794,31.026 -20.988,46.468 -1.518,-0.629 -3.034,-1.261 -4.548,-1.894 -0.089,0.19 -0.178,0.379 -0.267,0.569 C -9.492,-3.885 -4.754,-1.932 0,0 Z" /></g><g
           transform="translate(596.4899,554.9936)"
           id="g352"><path
             id="path354"
             style="fill:#ffffff;fill-opacity:1;fill-rule:nonzero;stroke:none"
             d="M 0,0 C 0.083,-0.193 0.166,-0.386 0.249,-0.579 -1.466,-1.211 -3.178,-1.846 -4.889,-2.484 5.377,-13.688 15.427,-24.992 25.259,-36.388 24.551,-21.716 23.815,-7.044 23.051,7.627 21.424,7.056 19.798,6.482 18.174,5.906 18.092,6.1 18.011,6.294 17.93,6.488 c 4.926,1.747 9.869,3.472 14.828,5.174 0.08,-0.194 0.16,-0.389 0.239,-0.583 -1.53,-0.525 -3.058,-1.052 -4.584,-1.582 7.476,-15.463 14.73,-30.979 21.76,-46.542 1.465,0.5 2.932,0.997 4.399,1.493 0.075,-0.195 0.149,-0.391 0.223,-0.586 -4.84,-1.634 -9.664,-3.29 -14.472,-4.969 -0.076,0.195 -0.151,0.389 -0.227,0.584 1.509,0.527 3.02,1.052 4.532,1.574 -6.499,14.577 -13.192,29.113 -20.077,43.605 0.778,-16.854 1.524,-33.708 2.235,-50.563 -0.101,-0.037 -0.203,-0.074 -0.304,-0.11 C 15.2,-32.832 3.627,-19.77 -8.235,-6.841 -2.63,-21.902 2.817,-36.992 8.106,-52.11 c 1.511,0.568 3.025,1.133 4.54,1.696 0.078,-0.193 0.157,-0.386 0.235,-0.579 -3.559,-1.323 -7.108,-2.658 -10.649,-4.005 -0.079,0.193 -0.159,0.386 -0.239,0.578 1.582,0.602 3.167,1.202 4.753,1.799 -5.591,16.035 -11.359,32.038 -17.304,48.009 -1.758,-0.664 -3.513,-1.33 -5.267,-2 -0.084,0.192 -0.169,0.384 -0.253,0.577 C -10.739,-3.997 -5.38,-1.985 0,0" /></g><g
           transform="translate(596.4899,554.9936)"
           id="g356"><path
             id="path358"
             style="fill:none;stroke:#ffffff;stroke-width:0.5;stroke-linecap:butt;stroke-linejoin:miter;stroke-miterlimit:4;stroke-dasharray:none;stroke-opacity:1"
             d="M 0,0 C 0.083,-0.193 0.166,-0.386 0.249,-0.579 -1.466,-1.211 -3.178,-1.846 -4.889,-2.484 5.377,-13.688 15.427,-24.992 25.259,-36.388 24.551,-21.716 23.815,-7.044 23.051,7.627 21.424,7.056 19.798,6.482 18.174,5.906 18.092,6.1 18.011,6.294 17.93,6.488 c 4.926,1.747 9.869,3.472 14.828,5.174 0.08,-0.194 0.16,-0.389 0.239,-0.583 -1.53,-0.525 -3.058,-1.052 -4.584,-1.582 7.476,-15.463 14.73,-30.979 21.76,-46.542 1.465,0.5 2.932,0.997 4.399,1.493 0.075,-0.195 0.149,-0.391 0.223,-0.586 -4.84,-1.634 -9.664,-3.29 -14.472,-4.969 -0.076,0.195 -0.151,0.389 -0.227,0.584 1.509,0.527 3.02,1.052 4.532,1.574 -6.499,14.577 -13.192,29.113 -20.077,43.605 0.778,-16.854 1.524,-33.708 2.235,-50.563 -0.101,-0.037 -0.203,-0.074 -0.304,-0.11 C 15.2,-32.832 3.627,-19.77 -8.235,-6.841 -2.63,-21.902 2.817,-36.992 8.106,-52.11 c 1.511,0.568 3.025,1.133 4.54,1.696 0.078,-0.193 0.157,-0.386 0.235,-0.579 -3.559,-1.323 -7.108,-2.658 -10.649,-4.005 -0.079,0.193 -0.159,0.386 -0.239,0.578 1.582,0.602 3.167,1.202 4.753,1.799 -5.591,16.035 -11.359,32.038 -17.304,48.009 -1.758,-0.664 -3.513,-1.33 -5.267,-2 -0.084,0.192 -0.169,0.384 -0.253,0.577 C -10.739,-3.997 -5.38,-1.985 0,0 Z" /></g><g
           transform="translate(658.44,545.0347)"
           id="g360"><path
             id="path362"
             style="fill:#ffffff;fill-opacity:1;fill-rule:nonzero;stroke:none"
             d="M 0,0 C 5.399,1.766 10.817,3.504 16.255,5.215 10.383,12.754 4.424,20.26 -1.62,27.733 -1.064,18.489 -0.524,9.245 0,0 m 36.181,-11.712 c 1.444,0.438 2.889,0.874 4.336,1.309 0.061,-0.173 0.121,-0.346 0.182,-0.519 -4.864,-1.461 -9.713,-2.944 -14.547,-4.45 -0.061,0.173 -0.123,0.345 -0.185,0.518 1.516,0.472 3.033,0.942 4.552,1.409 C 26.304,-7.821 22.042,-2.214 17.733,3.375 11.825,1.52 5.94,-0.367 0.077,-2.287 c 0.399,-6.836 0.788,-13.671 1.169,-20.506 1.448,0.479 2.897,0.956 4.347,1.431 0.064,-0.172 0.128,-0.344 0.192,-0.515 -3.548,-1.162 -7.087,-2.335 -10.618,-3.52 -0.065,0.171 -0.129,0.342 -0.194,0.513 1.495,0.502 2.992,1.002 4.49,1.5 -0.904,17.646 -1.863,35.291 -2.877,52.936 -1.813,-0.587 -3.624,-1.177 -5.433,-1.77 -0.078,0.196 -0.155,0.391 -0.233,0.587 5.561,1.823 11.142,3.617 16.743,5.382 C 7.739,33.555 7.815,33.359 7.891,33.162 6.096,32.597 4.303,32.028 2.512,31.456 14.049,17.187 25.273,2.793 36.181,-11.712" /></g><g
           transform="translate(658.44,545.0347)"
           id="g364"><path
             id="path366"
             style="fill:none;stroke:#ffffff;stroke-width:0.5;stroke-linecap:butt;stroke-linejoin:miter;stroke-miterlimit:4;stroke-dasharray:none;stroke-opacity:1"
             d="M 0,0 C 5.399,1.766 10.817,3.504 16.255,5.215 10.383,12.754 4.424,20.26 -1.62,27.733 -1.064,18.489 -0.524,9.245 0,0 Z m 36.181,-11.712 c 1.444,0.438 2.889,0.874 4.336,1.309 0.061,-0.173 0.121,-0.346 0.182,-0.519 -4.864,-1.461 -9.713,-2.944 -14.547,-4.45 -0.061,0.173 -0.123,0.345 -0.185,0.518 1.516,0.472 3.033,0.942 4.552,1.409 C 26.304,-7.821 22.042,-2.214 17.733,3.375 11.825,1.52 5.94,-0.367 0.077,-2.287 c 0.399,-6.836 0.788,-13.671 1.169,-20.506 1.448,0.479 2.897,0.956 4.347,1.431 0.064,-0.172 0.128,-0.344 0.192,-0.515 -3.548,-1.162 -7.087,-2.335 -10.618,-3.52 -0.065,0.171 -0.129,0.342 -0.194,0.513 1.495,0.502 2.992,1.002 4.49,1.5 -0.904,17.646 -1.863,35.291 -2.877,52.936 -1.813,-0.587 -3.624,-1.177 -5.433,-1.77 -0.078,0.196 -0.155,0.391 -0.233,0.587 5.561,1.823 11.142,3.617 16.743,5.382 C 7.739,33.555 7.815,33.359 7.891,33.162 6.096,32.597 4.303,32.028 2.512,31.456 14.049,17.187 25.273,2.793 36.181,-11.712 Z" /></g><g
           transform="translate(694.2449,587.362)"
           id="g368"><path
             id="path370"
             style="fill:#ffffff;fill-opacity:1;fill-rule:nonzero;stroke:none"
             d="M 0,0 C 12.588,-10.307 24.939,-20.761 37.049,-31.351 32.843,-18.811 28.516,-6.287 24.069,6.22 22.401,5.758 20.734,5.293 19.068,4.826 c -0.071,0.198 -0.142,0.396 -0.213,0.595 3.632,1.019 7.272,2.027 10.919,3.022 0.07,-0.199 0.14,-0.398 0.21,-0.597 -1.48,-0.404 -2.96,-0.81 -4.438,-1.218 5.883,-16.582 11.553,-33.195 17.011,-49.834 -0.08,-0.022 -0.16,-0.044 -0.24,-0.066 -14.875,13.261 -30.124,26.312 -45.741,39.138 5.68,-15.316 11.178,-30.661 16.492,-46.032 1.531,0.45 3.063,0.898 4.596,1.343 0.068,-0.198 0.136,-0.396 0.204,-0.594 -3.568,-1.036 -7.129,-2.085 -10.682,-3.146 -0.069,0.198 -0.138,0.395 -0.207,0.593 1.553,0.464 3.108,0.925 4.664,1.384 -5.582,16.109 -11.366,32.189 -17.351,48.236 -1.595,-0.476 -3.189,-0.955 -4.781,-1.436 -0.074,0.197 -0.148,0.394 -0.222,0.591 C -7.148,-2.118 -3.578,-1.053 0,0" /></g><g
           transform="translate(694.2449,587.362)"
           id="g372"><path
             id="path374"
             style="fill:none;stroke:#ffffff;stroke-width:0.5;stroke-linecap:butt;stroke-linejoin:miter;stroke-miterlimit:4;stroke-dasharray:none;stroke-opacity:1"
             d="M 0,0 C 12.588,-10.307 24.939,-20.761 37.049,-31.351 32.843,-18.811 28.516,-6.287 24.069,6.22 22.401,5.758 20.734,5.293 19.068,4.826 c -0.071,0.198 -0.142,0.396 -0.213,0.595 3.632,1.019 7.272,2.027 10.919,3.022 0.07,-0.199 0.14,-0.398 0.21,-0.597 -1.48,-0.404 -2.96,-0.81 -4.438,-1.218 5.883,-16.582 11.553,-33.195 17.011,-49.834 -0.08,-0.022 -0.16,-0.044 -0.24,-0.066 -14.875,13.261 -30.124,26.312 -45.741,39.138 5.68,-15.316 11.178,-30.661 16.492,-46.032 1.531,0.45 3.063,0.898 4.596,1.343 0.068,-0.198 0.136,-0.396 0.204,-0.594 -3.568,-1.036 -7.129,-2.085 -10.682,-3.146 -0.069,0.198 -0.138,0.395 -0.207,0.593 1.553,0.464 3.108,0.925 4.664,1.384 -5.582,16.109 -11.366,32.189 -17.351,48.236 -1.595,-0.476 -3.189,-0.955 -4.781,-1.436 -0.074,0.197 -0.148,0.394 -0.222,0.591 C -7.148,-2.118 -3.578,-1.053 0,0 Z" /></g><g
           transform="translate(761.3055,590.4553)"
           id="g376"><path
             id="path378"
             style="fill:#ffffff;fill-opacity:1;fill-rule:nonzero;stroke:none"
             d="m 0,0 c -1.02,-0.254 -2.039,-0.508 -3.058,-0.764 -1.983,4.947 -3.573,7.557 -5.603,9.321 -2.62,2.183 -6.263,2.803 -10.239,1.77 -6.882,-1.79 -9.537,-7.083 -7.178,-13.953 1.612,-4.708 4.339,-7.237 8.728,-8.121 2.585,-0.548 2.771,-0.57 9.682,-0.505 8.972,0.013 13.688,-3.065 15.954,-10.284 2.638,-8.432 -1.555,-15.594 -10.349,-17.841 -1.615,-0.413 -3.277,-0.678 -5.251,-0.784 -1.281,-0.089 -1.443,-0.13 -3.94,-0.784 -0.107,-0.028 -0.215,-0.056 -0.322,-0.084 -1.253,-0.356 -2.506,-0.714 -3.757,-1.073 -1.209,3.743 -2.429,7.485 -3.659,11.226 0.216,0.057 0.431,0.114 0.647,0.171 0.451,-1.371 0.9,-2.743 1.348,-4.115 4.443,-3.943 9.597,-5.353 14.606,-4.072 6.377,1.63 9.094,6.993 6.918,13.913 -1.92,6.086 -5.122,8.064 -13.114,8.129 -7.907,0.073 -9.277,0.186 -11.873,1.051 -3.422,1.21 -6.372,4.41 -7.831,8.667 -2.925,8.507 1.052,16.944 9.186,19.058 6.548,1.701 12.092,-0.243 16.692,-5.758 -0.933,2.828 -1.872,5.655 -2.817,8.482 0.222,0.055 0.445,0.111 0.667,0.166 C -3.026,9.213 -1.505,4.607 0,0" /></g><g
           transform="translate(761.3055,590.4553)"
           id="g380"><path
             id="path382"
             style="fill:none;stroke:#ffffff;stroke-width:0.5;stroke-linecap:butt;stroke-linejoin:miter;stroke-miterlimit:4;stroke-dasharray:none;stroke-opacity:1"
             d="m 0,0 c -1.02,-0.254 -2.039,-0.508 -3.058,-0.764 -1.983,4.947 -3.573,7.557 -5.603,9.321 -2.62,2.183 -6.263,2.803 -10.239,1.77 -6.882,-1.79 -9.537,-7.083 -7.178,-13.953 1.612,-4.708 4.339,-7.237 8.728,-8.121 2.585,-0.548 2.771,-0.57 9.682,-0.505 8.972,0.013 13.688,-3.065 15.954,-10.284 2.638,-8.432 -1.555,-15.594 -10.349,-17.841 -1.615,-0.413 -3.277,-0.678 -5.251,-0.784 -1.281,-0.089 -1.443,-0.13 -3.94,-0.784 -0.107,-0.028 -0.215,-0.056 -0.322,-0.084 -1.253,-0.356 -2.506,-0.714 -3.757,-1.073 -1.209,3.743 -2.429,7.485 -3.659,11.226 0.216,0.057 0.431,0.114 0.647,0.171 0.451,-1.371 0.9,-2.743 1.348,-4.115 4.443,-3.943 9.597,-5.353 14.606,-4.072 6.377,1.63 9.094,6.993 6.918,13.913 -1.92,6.086 -5.122,8.064 -13.114,8.129 -7.907,0.073 -9.277,0.186 -11.873,1.051 -3.422,1.21 -6.372,4.41 -7.831,8.667 -2.925,8.507 1.052,16.944 9.186,19.058 6.548,1.701 12.092,-0.243 16.692,-5.758 -0.933,2.828 -1.872,5.655 -2.817,8.482 0.222,0.055 0.445,0.111 0.667,0.166 C -3.026,9.213 -1.505,4.607 0,0 Z" /></g><g
           transform="translate(728.739,596.9349)"
           id="g384"><path
             id="path386"
             style="fill:#ffffff;fill-opacity:1;fill-rule:nonzero;stroke:none"
             d="M 0,0 C 0,0 10.647,4.142 4.526,23.837 L 4.54,23.834 C -8.892,8.31 0,0 0,0" /></g><g
           transform="translate(728.739,596.9349)"
           id="g388"><path
             id="path390"
             style="fill:none;stroke:#ffffff;stroke-width:0.25;stroke-linecap:round;stroke-linejoin:round;stroke-miterlimit:4;stroke-dasharray:none;stroke-opacity:1"
             d="M 0,0 C 0,0 10.647,4.142 4.526,23.837 L 4.54,23.834 C -8.892,8.31 0,0 0,0 Z" /></g></g></g></g></svg>