<?xml version="1.0" encoding="utf-8"?>
<!-- Generator: Adobe Illustrator 19.1.0, SVG Export Plug-In . SVG Version: 6.00 Build 0)  -->
<svg version="1.1" id="Layer_1" xmlns="http://www.w3.org/2000/svg" xmlns:xlink="http://www.w3.org/1999/xlink" x="0px" y="0px"
	 viewBox="0 0 151 132" style="enable-background:new 0 0 151 132;" xml:space="preserve">
<style type="text/css">
	.st0{fill:#010101;}
</style>
<g>
	<path class="st0" d="M83.5,128.3c-1.2,0-2.2-1-2.2-2.2v-14.2h-4.2v14.2c0,1.2-1,2.2-2.2,2.2c-1.2,0-2.2-1-2.2-2.2v-14.2h-4.2v14.2
		c0,1.2-1,2.2-2.2,2.2c-1.2,0-2.2-1-2.2-2.2v-16.4c0-1.2,1-2.2,2.2-2.2h17.1c0.6,0,1.1,0.2,1.5,0.6c0.4,0.4,0.6,1,0.6,1.5v16.4
		C85.6,127.3,84.6,128.3,83.5,128.3z M91.8,117.3c-1.1,0-2-0.8-2.1-1.8l-2-12.6l0.3-0.2l-0.3,0l0-0.2l0.3-0.2l-0.3,0l0-0.1l0.3-0.1
		l-0.3-0.1l0.1-0.2l0.3-0.1l-0.3-0.1l0.1-0.1l0.1-0.1l0.1-0.1l0.4,0l-0.2-0.2l0.1-0.1l0.1-0.1l0.2-0.1l0.1-0.1l0.1-0.1l0.2-0.1
		l0.2-0.1l0.2,0l0.1,0l0.2,0l0.2,0l0.2,0l0.1,0c0.1,0,0.1,0,0.2,0.1c0.1,0,0.1,0,0.2,0.1l0.1,0.3l0.1-0.3l0.1,0.1l-0.1,0.3l0.2-0.2
		l0.2,0.2l8.4,8.6c0.8,0.9,0.8,2.2,0,3.1c-0.4,0.4-0.9,0.6-1.5,0.6c-0.6,0-1.1-0.2-1.5-0.6l-3.6-3.7l0.9,5.8
		c0.2,1.2-0.6,2.3-1.8,2.5C92,117.3,91.9,117.3,91.8,117.3z M66.7,104.7c-1.2,0-2.2-1-2.2-2.2c0-1.2,1-2.2,2.2-2.2h16.4
		c1.2,0,2.2,1,2.2,2.2c0,1.2-1,2.2-2.2,2.2H66.7z M66.4,97.5c-0.1,0-0.2,0-0.3,0c-0.1,0-0.2,0-0.3-0.1c-0.1,0-0.2-0.1-0.3-0.1
		c-0.1,0-0.2-0.1-0.2-0.1c-0.1-0.1-0.2-0.1-0.3-0.2c-0.1-0.1-0.2-0.1-0.2-0.2c-0.1-0.1-0.2-0.2-0.2-0.2c-0.1-0.1-0.1-0.2-0.2-0.3
		L51,68.9c-0.5-1.1-0.1-2.4,1-2.9c0.3-0.1,0.6-0.2,1-0.2c0.8,0,1.6,0.5,1.9,1.2l12.8,26.3h5V79c0-1.2,1-2.2,2.2-2.2
		c1.2,0,2.2,1,2.2,2.2v14.2h5l13.5-26.3c0.4-0.7,1.1-1.2,1.9-1.2c0.3,0,0.7,0.1,1,0.2c1.1,0.5,1.5,1.9,0.9,2.9L85.4,96.4l-0.1,0.2
		c-0.1,0.1-0.1,0.2-0.2,0.2C85,96.9,84.9,97,84.8,97l-0.2,0.2c-0.1,0.1-0.2,0.1-0.3,0.2c-0.1,0-0.2,0.1-0.3,0.1
		c-0.1,0-0.2,0-0.3,0.1c-0.1,0-0.2,0-0.3,0H66.4z M81.2,75c-2.2,0-4.3-0.7-6.1-2c-0.1-0.1-0.2-0.1-0.2-0.2c-1.8,1.4-4,2.1-6.3,2.1
		c-2.2,0-4.3-0.7-6-2c-3.7-2.7-5.2-7.5-3.7-11.8c-0.1-0.1-0.2-0.1-0.2-0.2c-4.6-3.3-5.6-9.8-2.3-14.4c1.9-2.7,5.1-4.2,8.3-4.2
		c0.1,0,0.2,0,0.3,0c0.3-1.1,0.9-2.2,1.5-3.1c1.9-2.7,5.1-4.3,8.3-4.3c2.2,0,4.3,0.7,6.1,2c1.8,1.3,3.2,3.3,3.8,5.4
		c0.1,0,0.2,0,0.3,0c2.2,0,4.3,0.7,6,2c4.6,3.3,5.6,9.8,2.3,14.4c-0.7,1-1.5,1.8-2.5,2.4c1.1,3.2,0.6,6.7-1.4,9.5
		C87.6,73.4,84.5,75,81.2,75z M74.9,67.9c0.6,0,1.2,0.3,1.6,0.7c0.3,0.4,0.7,0.7,1.1,1c1.1,0.8,2.3,1.2,3.6,1.2c2,0,3.8-1,5-2.5
		c1.5-2,1.6-4.7,0.3-6.9c-0.3-0.5-0.4-1.2-0.2-1.7c0.2-0.6,0.6-1,1.2-1.3c1.1-0.4,2-1.2,2.7-2.1c2-2.7,1.4-6.6-1.4-8.6
		c-1.1-0.8-2.3-1.2-3.6-1.2c-0.5,0-1,0.1-1.5,0.2c-0.2,0-0.3,0.1-0.5,0.1c-0.4,0-0.9-0.1-1.2-0.4c-0.5-0.4-0.8-0.9-0.8-1.5
		c-0.1-1.8-1.1-3.5-2.5-4.5c-1.1-0.8-2.3-1.2-3.6-1.2c-2,0-3.8,1-5,2.5c-0.7,0.9-1.1,2-1.2,3.2c0,0.6-0.4,1.2-0.8,1.5
		c-0.4,0.3-0.8,0.4-1.2,0.4c-0.2,0-0.3,0-0.5-0.1c-0.5-0.1-1-0.2-1.5-0.2c-2,0-3.8,0.9-5,2.5c-1,1.3-1.4,3-1.1,4.6
		c0.3,1.6,1.1,3.1,2.5,4c0.4,0.3,0.8,0.5,1.3,0.7c0.6,0.2,1,0.7,1.2,1.3c0.2,0.6,0.1,1.2-0.2,1.7c-1.7,2.7-1,6.3,1.6,8.2
		c1.1,0.8,2.3,1.2,3.6,1.2c1.8,0,3.5-0.8,4.7-2.2C73.7,68.2,74.3,67.9,74.9,67.9L74.9,67.9z M74.9,66.3c-2.2,0-4.3-0.7-6-2
		c-2.2-1.6-3.7-4-4.1-6.7c-0.4-2.7,0.2-5.4,1.8-7.6c1.9-2.6,5-4.2,8.3-4.2c2.2,0,4.3,0.7,6,2c4.6,3.3,5.6,9.7,2.3,14.3
		C81.3,64.7,78.2,66.3,74.9,66.3z M74.9,50c-1.9,0-3.8,0.9-4.9,2.5c-1,1.3-1.3,2.9-1.1,4.5c0.3,1.6,1.1,3,2.4,4
		c1.1,0.8,2.3,1.2,3.6,1.2c1.9,0,3.8-0.9,4.9-2.5c2-2.7,1.4-6.5-1.3-8.5C77.4,50.4,76.2,50,74.9,50z M111.5,62.7
		c-2.2,0-4.3-0.7-6.1-2c-0.1-0.1-0.2-0.1-0.2-0.2c-1.8,1.4-4,2.1-6.3,2.1c-1.7,0-3.3-0.4-4.8-1.2l-0.3-0.2L94,61
		c0.3-0.4,0.6-0.7,0.9-1.1c0.4-0.5,0.8-1.1,1.1-1.8l0.1-0.2l0.2,0.1c0.8,0.4,1.7,0.6,2.5,0.6c1.8,0,3.5-0.8,4.7-2.2
		c0.4-0.5,1-0.7,1.6-0.7c0.6,0,1.2,0.3,1.6,0.7c0.3,0.4,0.7,0.7,1.1,1c1.1,0.8,2.3,1.2,3.6,1.2c2,0,3.8-0.9,5-2.5
		c1.5-2,1.6-4.7,0.3-6.9c-0.3-0.5-0.4-1.2-0.2-1.7c0.2-0.6,0.6-1,1.2-1.3c1.1-0.4,2-1.1,2.7-2.1c2-2.7,1.4-6.6-1.4-8.6
		c-1.1-0.8-2.3-1.2-3.6-1.2c-0.5,0-1,0.1-1.5,0.2c-0.2,0-0.3,0.1-0.5,0.1c-0.4,0-0.9-0.1-1.2-0.4c-0.5-0.4-0.8-0.9-0.8-1.5
		c-0.1-1.8-1.1-3.5-2.5-4.5c-1.1-0.8-2.3-1.2-3.6-1.2c-2,0-3.8,1-5,2.5c-0.7,0.9-1.1,2-1.2,3.2c0,0.6-0.4,1.2-0.8,1.5
		c-0.4,0.3-0.8,0.4-1.2,0.4c-0.2,0-0.3,0-0.5-0.1c-0.5-0.1-1-0.2-1.5-0.2c-2,0-3.8,1-5,2.5c-0.8,1.1-1.2,2.5-1.2,3.9l0,0.4L88.6,41
		c-0.7-0.2-1.5-0.4-2.3-0.4l-0.2,0l-0.1-0.1c-0.3-0.7-0.7-1.3-1.1-1.9L85,38.4l0-0.1c0.3-1.4,0.9-2.8,1.7-3.9
		c1.9-2.7,5.1-4.2,8.3-4.2c0.1,0,0.2,0,0.3,0c0.3-1.1,0.9-2.2,1.5-3.1c1.9-2.7,5.1-4.3,8.3-4.3c2.2,0,4.3,0.7,6.1,2
		c1.8,1.3,3.2,3.3,3.8,5.4c0.1,0,0.2,0,0.3,0c2.2,0,4.3,0.7,6,2c4.6,3.3,5.6,9.8,2.3,14.4c-0.7,1-1.5,1.8-2.5,2.4
		c1.1,3.2,0.6,6.7-1.4,9.5C117.9,61.1,114.8,62.7,111.5,62.7z M50.9,62.7c-2.2,0-4.3-0.7-6.1-2c-0.1-0.1-0.2-0.1-0.2-0.2
		c-1.8,1.4-4,2.1-6.3,2.1c-2.2,0-4.3-0.7-6.1-2c-3.7-2.7-5.2-7.5-3.7-11.8c-0.1-0.1-0.2-0.1-0.2-0.2c-2.2-1.6-3.7-4-4.1-6.7
		c-0.4-2.7,0.2-5.4,1.8-7.7c1.9-2.7,5.1-4.2,8.3-4.2c0.1,0,0.2,0,0.3,0c0.3-1.1,0.9-2.2,1.5-3.1c1.9-2.7,5.1-4.3,8.3-4.3
		c2.2,0,4.3,0.7,6.1,2c1.8,1.3,3.2,3.3,3.8,5.4c0.1,0,0.2,0,0.3,0c2.2,0,4.3,0.7,6,2c2.1,1.5,3.5,3.7,4,6.2l0,0.1l-0.1,0.1
		c-0.4,0.6-0.8,1.3-1.1,1.9l-0.1,0.1l-0.2,0c-0.7,0.1-1.5,0.2-2.3,0.5l-0.4,0.1l0-0.4c0.1-2.1-0.8-4.1-2.5-5.3
		c-1.1-0.8-2.3-1.2-3.6-1.2c-0.5,0-1,0.1-1.5,0.2c-0.2,0-0.3,0.1-0.5,0.1c-0.4,0-0.9-0.1-1.2-0.4c-0.5-0.4-0.8-0.9-0.8-1.5
		c-0.1-1.8-1.1-3.5-2.5-4.5c-1.1-0.8-2.3-1.2-3.6-1.2c-2,0-3.8,1-5,2.5c-0.7,0.9-1.1,2-1.2,3.2c0,0.6-0.4,1.2-0.8,1.5
		c-0.3,0.3-0.8,0.4-1.2,0.4c-0.2,0-0.3,0-0.5-0.1c-0.5-0.1-1-0.2-1.5-0.2c-2,0-3.8,1-5,2.5c-1,1.3-1.4,3-1.1,4.6
		c0.3,1.6,1.1,3.1,2.5,4c0.4,0.3,0.8,0.5,1.3,0.7c0.6,0.2,1,0.7,1.2,1.3s0.1,1.2-0.2,1.7c-1.7,2.7-1,6.3,1.6,8.2
		c1.1,0.8,2.3,1.2,3.6,1.2c1.8,0,3.5-0.8,4.7-2.2c0.4-0.5,1-0.7,1.6-0.7c0.6,0,1.2,0.3,1.6,0.7c0.3,0.4,0.7,0.7,1.1,1
		c1.1,0.8,2.3,1.2,3.6,1.2c0.9,0,1.7-0.2,2.6-0.6l0.2-0.1l0.1,0.2c0.5,1.1,1.2,2.1,2,2.9l0.2,0.3l-0.3,0.2
		C54.2,62.3,52.5,62.7,50.9,62.7z M44.6,54c-2.2,0-4.2-0.7-6-2c-2.2-1.6-3.7-4-4.1-6.7c-0.4-2.7,0.2-5.4,1.8-7.6
		c1.9-2.6,5-4.2,8.3-4.2c2.2,0,4.3,0.7,6,2c2.2,1.6,3.7,4,4.1,6.7c0.4,2.7-0.2,5.4-1.8,7.6C50.9,52.4,47.8,54,44.6,54z M44.6,37.6
		c-2,0-3.8,0.9-4.9,2.5c-1,1.3-1.3,2.9-1.1,4.5c0.3,1.6,1.1,3,2.4,4c1,0.8,2.3,1.2,3.6,1.2c2,0,3.8-0.9,4.9-2.5
		c1-1.3,1.3-2.9,1.1-4.5c-0.3-1.6-1.1-3-2.4-4C47.1,38,45.9,37.6,44.6,37.6z M105.2,54c-2.2,0-4.2-0.7-6-2c-2.2-1.6-3.7-4-4.1-6.7
		c-0.4-2.7,0.2-5.4,1.8-7.6c1.9-2.6,5-4.2,8.3-4.2c2.2,0,4.3,0.7,6,2c2.2,1.6,3.7,4,4.1,6.7c0.4,2.7-0.2,5.4-1.8,7.6
		C111.6,52.4,108.5,54,105.2,54z M105.3,37.6c-1.9,0-3.8,0.9-4.9,2.5c-1,1.3-1.3,2.9-1.1,4.5c0.3,1.6,1.1,3,2.4,4
		c1,0.8,2.3,1.2,3.6,1.2c1.9,0,3.8-0.9,4.9-2.5c1-1.3,1.3-2.9,1.1-4.5c-0.3-1.6-1.1-3-2.4-4C107.8,38,106.6,37.6,105.3,37.6z
		 M72.4,33.8c-0.1-1.4,0.1-2.8,0.6-4.1c-0.1-0.1-0.2-0.1-0.2-0.2c-4.6-3.3-5.6-9.8-2.3-14.4c1.9-2.7,5.1-4.2,8.3-4.2
		c0.1,0,0.2,0,0.3,0c0.3-1.1,0.9-2.2,1.5-3.1c1.9-2.7,5.1-4.2,8.3-4.2c2.2,0,4.3,0.7,6.1,2c1.8,1.3,3.2,3.3,3.8,5.4
		c0.1,0,0.2,0,0.3,0c2.2,0,4.3,0.7,6.1,2c2.6,1.9,4.2,5,4.2,8.3l0,0.4l-0.4-0.1c-1.1-0.4-2.3-0.6-3.5-0.6l-0.2,0l0-0.2
		c-0.2-1.7-1.1-3.3-2.5-4.3c-1.1-0.8-2.3-1.2-3.6-1.2c-0.5,0-1,0.1-1.5,0.2c-0.2,0-0.3,0.1-0.5,0.1c-0.4,0-0.9-0.1-1.2-0.4
		c-0.5-0.4-0.8-0.9-0.8-1.5c-0.1-1.8-1.1-3.5-2.5-4.5c-1.1-0.8-2.3-1.2-3.6-1.2c-2,0-3.8,1-5,2.5c-0.7,0.9-1.1,2-1.2,3.2
		c0,0.6-0.4,1.2-0.8,1.5c-0.4,0.3-0.8,0.4-1.2,0.4c-0.2,0-0.3,0-0.5-0.1c-0.5-0.1-1-0.2-1.5-0.2c-2,0-3.8,0.9-5,2.5
		c-2,2.7-1.4,6.6,1.4,8.6c0.4,0.3,0.8,0.5,1.3,0.7c0.6,0.2,1,0.7,1.2,1.3c0.2,0.6,0.1,1.2-0.2,1.7c-0.7,1.1-1,2.4-0.9,3.7l0,0.3
		l-0.3,0c-0.4-0.1-0.9-0.1-1.4-0.1c-0.7,0-1.4,0.1-2.2,0.2l-0.3,0.1L72.4,33.8z M84.6,33.7c-0.6-0.3-1.1-0.6-1.6-0.9
		c-2.2-1.6-3.7-4-4.1-6.7c-0.4-2.7,0.2-5.4,1.8-7.6c1.9-2.6,5-4.2,8.3-4.2c2.2,0,4.3,0.7,6,2c2,1.5,3.4,3.6,4,6.1l0,0.2l-0.2,0.1
		c-1.3,0.8-2.4,1.8-3.4,3L95,25.4c0.3-2.3-0.6-4.5-2.4-5.9c-1.1-0.8-2.3-1.2-3.6-1.2c-1.9,0-3.8,0.9-4.9,2.5c-1,1.3-1.3,2.9-1.1,4.5
		c0.3,1.6,1.1,3,2.4,4c0.6,0.4,1.2,0.7,2,0.9l0.5,0.1l-0.4,0.3c-0.9,0.7-1.6,1.5-2.3,2.4c-0.1,0.1-0.2,0.3-0.3,0.4l-0.1,0.2
		L84.6,33.7z M64.9,33.6c-0.7-1-1.6-2-2.5-2.7l-0.4-0.3l0.5-0.2c1.3-0.4,2.4-1.2,3.2-2.2c0.6-0.9,1-1.9,1.1-3l0.5-0.1
		c0.5,1.5,1.3,2.9,2.3,4.1l0.1,0.1l-0.1,0.2c-0.2,0.4-0.4,0.7-0.7,1.1c-1,1.3-2.2,2.4-3.7,3.1L65,33.8L64.9,33.6z M54.1,25.4
		c-0.7-0.8-1.5-1.6-2.3-2.2c-0.3-0.2-0.6-0.4-1-0.6l-0.2-0.1l0-0.2c0.3-1.3,0.9-2.6,1.7-3.7c1.9-2.6,5-4.2,8.3-4.2
		c2.2,0,4.3,0.7,6,2c0.2,0.2,0.4,0.3,0.6,0.5l0.1,0.1L67.4,17c-0.5,1.5-0.8,3.1-0.7,4.7l-0.5,0.1c-0.4-0.9-1.1-1.7-1.9-2.2
		c-1-0.8-2.3-1.2-3.6-1.2c-1.9,0-3.8,0.9-4.9,2.5c-0.9,1.2-1.3,2.7-1.1,4.2l0.1,0.9L54.1,25.4z M40.2,21.2c0-2.2,0.7-4.3,2-6.1
		c1.9-2.7,5.1-4.2,8.3-4.2c0.1,0,0.2,0,0.3,0c0.3-1.1,0.9-2.2,1.6-3.1c1.9-2.7,5.1-4.2,8.3-4.2c2.2,0,4.3,0.7,6.1,2
		c1.9,1.4,3.3,3.4,3.9,5.6c0,0,0,0.2,0.1,0.3c0.1,0.3,0.1,0.5,0.1,0.5l0,0.1l-0.1,0.1l-0.1,0.1c-0.6,0.5-1.1,1.2-1.6,1.8
		c-0.2,0.3-0.4,0.6-0.6,0.9l-0.1,0.2L68,15.1c-0.1-0.1-0.2-0.1-0.3-0.2c-0.5-0.4-0.8-0.9-0.8-1.5c-0.1-1.8-1-3.5-2.5-4.5
		c-1.1-0.8-2.3-1.2-3.6-1.2c-2,0-3.8,1-5,2.5c-0.7,0.9-1.1,2-1.2,3.2c0,0.6-0.4,1.2-0.8,1.5c-0.4,0.3-0.8,0.4-1.2,0.4
		c-0.2,0-0.3,0-0.5-0.1c-0.5-0.1-1-0.2-1.5-0.2c-2,0-3.8,0.9-5,2.5c-0.6,0.9-1,1.9-1.1,3l0,0.2l-0.2,0c-1.2,0-2.4,0.3-3.5,0.7
		l-0.4,0.1L40.2,21.2z"/>
</g>
</svg>
