<?xml version="1.0" encoding="utf-8"?>
<!-- Generator: Adobe Illustrator 19.1.0, SVG Export Plug-In . SVG Version: 6.00 Build 0)  -->
<svg version="1.1" id="Layer_1" xmlns="http://www.w3.org/2000/svg" xmlns:xlink="http://www.w3.org/1999/xlink" x="0px" y="0px"
	 viewBox="0 0 151 132" style="enable-background:new 0 0 151 132;" xml:space="preserve">
<style type="text/css">
	.st0{fill:#010101;}
</style>
<g>
	<g>
		<path class="st0" d="M58.4,86.4c-0.7,0-1.3-0.3-1.8-0.7L20.4,49.4c-4.8-4.8-7.5-11.2-7.5-18s2.7-13.2,7.5-18
			c4.8-4.8,11.2-7.5,18-7.5c6.8,0,13.2,2.7,18,7.5l2,2l2-2c4.8-4.8,11.2-7.5,18-7.5c6.8,0,13.2,2.7,18,7.5c9.9,9.9,9.9,26.1,0,36.1
			L60.2,85.6C59.7,86.1,59.1,86.4,58.4,86.4z M38.4,10.8c-5.5,0-10.6,2.1-14.5,6c-8,8-8,21,0,29l34.5,34.5L93,45.8c8-8,8-21,0-29
			c-3.9-3.9-9-6-14.5-6c-5.5,0-10.6,2.1-14.5,6l-3.7,3.7c-0.5,0.5-1.1,0.7-1.8,0.7c-0.7,0-1.3-0.3-1.8-0.7l-3.7-3.7
			C49,12.9,43.9,10.8,38.4,10.8z"/>
	</g>
	<g>
		<path class="st0" d="M62.1,124.2c-17.9,0-34.8-7-47.5-19.6c-3.6-3.6-3.6-9.4,0-12.9c1.6-1.6,3.9-2.6,6.4-2.7c0,0,0,0,0,0
			c2.5,0,4.8,0.9,6.5,2.7c5.1,5.1,11.2,8.9,17.9,11.4c-0.3-1.2-0.3-2.4,0-3.6c0.8-4.3,4.6-7.4,9-7.4c0.6,0,1.2,0.1,1.7,0.2
			c2,0.4,4,0.6,6,0.6c8.4,0,16.3-3.3,22.2-9.2l13.6-14.3c3-3.7,9.2-6.7,14.1-6.7h24.4c1.4,0,2.5,1.1,2.5,2.5c0,1.4-1.1,2.5-2.5,2.5
			h-24.4c-3.4,0-8.2,2.3-10.3,5L87.9,86.9C81,93.8,71.8,97.6,62.1,97.6c-2.3,0-4.7-0.2-6.9-0.7c-0.3-0.1-0.5-0.1-0.8-0.1
			c-2,0-3.7,1.4-4.1,3.4c-0.2,1.1,0,2.2,0.6,3.1c0.6,0.9,1.5,1.5,2.5,1.7c2.9,0.5,5.8,0.8,8.7,0.8c0.2,0,0.4,0.1,0.6,0.1
			c11.6-0.1,22.7-4.8,31-13.1c0.5-0.5,1.1-0.7,1.8-0.7c0.7,0,1.3,0.3,1.8,0.7c1,1,1,2.6,0,3.5c-9.4,9.4-21.9,14.6-35.1,14.6
			c-3.2,0-6.4-0.3-9.5-0.9c-11-2-20.8-7.1-28.6-14.9c-0.8-0.8-1.7-1.2-2.6-1.2l-0.3,0c-1.2,0-2.2,0.4-3,1.2c-1.6,1.6-1.6,4.3,0,5.9
			c11.8,11.7,27.4,18.2,44,18.2c17.2,0,33.7-7.2,45.5-19.7l9.6-9.8c0.5-0.5,1.1-0.8,1.8-0.8h17.4c1.4,0,2.5,1.1,2.5,2.5
			c0,1.4-1.1,2.5-2.5,2.5H120l-8.9,9C98.5,116.4,80.6,124.2,62.1,124.2z"/>
	</g>
	<g>
		<path class="st0" d="M89,39c-0.3,0-0.6,0-0.9-0.1c-1.3-0.5-2-1.9-1.5-3.2c1-2.7,0.8-5.5-0.4-8.1c-1.2-2.6-3.3-4.5-6-5.4
			c-0.6-0.2-1.1-0.7-1.4-1.3c-0.3-0.6-0.3-1.3-0.1-1.9c0.4-1,1.3-1.6,2.3-1.6c0.3,0,0.6,0.1,0.9,0.2c3.9,1.4,7,4.3,8.8,8
			c1.8,3.8,2,8,0.5,11.9C91,38.4,90.1,39,89,39z"/>
	</g>
</g>
</svg>
