<?xml version="1.0" encoding="utf-8"?>
<!-- Generator: Adobe Illustrator 19.1.0, SVG Export Plug-In . SVG Version: 6.00 Build 0)  -->
<svg version="1.1" id="Layer_1" xmlns="http://www.w3.org/2000/svg" xmlns:xlink="http://www.w3.org/1999/xlink" x="0px" y="0px"
	 viewBox="-686.7 447.1 76.3 80.7" style="enable-background:new -686.7 447.1 76.3 80.7;" xml:space="preserve">
<path d="M-626,475c6.6,0,12-5.4,12-12c0-6.6-5.4-12-12-12s-12,5.4-12,12c0,1.2,0.2,2.4,0.5,3.5l-23.9,14.4c-2.1-3-5.6-4.9-9.6-4.9
	c-6.6,0-12,5.4-12,12c0,6.6,5.4,12,12,12c4,0,7.5-1.9,9.6-4.9l21.9,13.3c-0.3,1.2-0.5,2.4-0.5,3.6c0,6.6,5.4,12,12,12s12-5.4,12-12
	c0-6.6-5.4-12-12-12c-4,0-7.5,1.9-9.6,4.9l-21.9-13.4c0.3-1.1,0.5-2.3,0.5-3.5c0-1.2-0.2-2.4-0.5-3.5l23.9-14.3
	C-633.5,473.1-630,475-626,475z M-628,504c4.4,0,8,3.6,8,8c0,4.4-3.6,8-8,8s-8-3.6-8-8C-636,507.6-632.4,504-628,504z M-671,496
	c-4.4,0-8-3.6-8-8c0-4.4,3.6-8,8-8s8,3.6,8,8C-663,492.4-666.6,496-671,496z M-626,455c4.4,0,8,3.6,8,8c0,4.4-3.6,8-8,8s-8-3.6-8-8
	C-634,458.6-630.4,455-626,455z"/>
</svg>
