<?xml version="1.0" encoding="utf-8"?>
<!-- Generator: Adobe Illustrator 19.0.1, SVG Export Plug-In . SVG Version: 6.00 Build 0)  -->
<svg version="1.1" id="Layer_1" xmlns="http://www.w3.org/2000/svg" xmlns:xlink="http://www.w3.org/1999/xlink" x="0px" y="0px"
	 viewBox="0 0 66 57" style="enable-background:new 0 0 66 57;" xml:space="preserve">
<path d="M21.1,55.9c-12.4,0-20.6-6.3-20.7-6.3C0.1,49.3,0,49,0.2,48.7c0.1-0.3,0.4-0.5,0.7-0.5c0.4,0,0.9,0,1.3,0
	c6.7,0,11-1.4,13.4-2.6c1.3-0.7,2.3-1.3,2.9-1.8c-5-1.1-7.8-3.5-9.4-5.3c-1.9-2.2-2.3-4.3-2.4-4.4c0-0.2,0-0.4,0.1-0.6
	c0.1-0.2,0.4-0.3,0.6-0.3h2.5c-3.9-2.1-5.7-4.9-6.6-7c-1.2-3-1-5.5-0.9-5.6c0-0.3,0.2-0.5,0.4-0.6l0.1,0l0.2,0c0.2,0,0.3,0,0.4,0.1
	c1.1,0.8,2.3,1.1,3.3,1.2C-0.9,14.2,4.1,4,4.1,3.9c0.1-0.2,0.3-0.4,0.6-0.4c0,0,0,0,0,0c0.3,0,0.5,0.1,0.6,0.3
	c10.3,12,19.7,13.8,24.4,13.8c0.7,0,1.2,0,1.6-0.1c-0.3-3.9,0.1-9.2,3.5-12.8c2.2-2.3,4.5-2.8,4.8-2.9c1.6-0.3,3.2-0.5,4.8-0.5
	c6.2,0,10.2,2.7,11.4,3.6l7.5-3.1l0.2,0c0.2,0,0.3,0.1,0.5,0.2c0.2,0.2,0.3,0.4,0.3,0.7c-0.3,2.1-2.1,4.1-3.6,5.6l4.4-0.8
	c0,0,0,0,0,0c0.4,0,0.6,0.2,0.8,0.4c0.1,0.3,0.1,0.7-0.2,0.9l-6.8,6.1c0.2,2.6,0.5,8.9-2.3,15.5c-5.8,13.8-15,20-21.7,22.8
	c-6.2,2.6-11.4,2.8-12.9,2.8L21.1,55.9z M22,54.4c1.4,0,6.4-0.2,12.4-2.7c6.4-2.7,15.2-8.7,20.8-22c2.7-6.5,2.4-12.6,2.2-15.2
	c0-0.2,0.1-0.5,0.2-0.6l5.1-4.6l-4.5,0.8c0,0,0,0,0,0c-0.4,0-0.7-0.2-0.8-0.4c-0.1-0.3,0-0.7,0.2-0.9c1-0.7,3.5-2.9,4.6-5l-6.4,2.6
	l-0.2,0c-0.2,0-0.4-0.1-0.5-0.2c-0.1,0-1.5-1.3-4-2.3c-2.1-0.8-4.4-1.2-6.8-1.2c-1.5,0-3,0.2-4.5,0.5c-0.1,0-8.5,2-7.1,14.7
	c0,0.4-0.2,0.7-0.6,0.8c0,0-1,0.2-2.6,0.2c-1.9,0-3.9-0.3-6-0.8C19.2,16.9,12.3,13.8,5,5.6c-0.4,1.1-1,2.9-1.1,5
	c-0.2,4.5,1.6,8.1,5.4,10.7c0.2,0.2,0.4,0.5,0.3,0.8c-0.1,0.3-0.3,0.5-0.6,0.6c-0.1,0-0.6,0.1-1.3,0.1c-1,0-2.5-0.2-3.9-0.9
	c0.1,2.7,1.4,8.5,10,11.3c0.4,0.1,0.6,0.5,0.5,0.8c-0.1,0.4-0.4,0.6-0.7,0.6H8.4c0.9,2.1,3.7,6.6,11.6,7.9c0.3,0,0.5,0.2,0.6,0.5
	c0.1,0.2,0.1,0.5-0.1,0.7c-0.2,0.2-4.3,5.6-17.1,5.9c3,1.7,9.4,4.7,17.7,4.7l0.6,0L22,54.4z"/>
</svg>
