<?xml version="1.0" encoding="utf-8"?>
<!-- Generator: Adobe Illustrator 19.1.0, SVG Export Plug-In . SVG Version: 6.00 Build 0)  -->
<svg version="1.1" id="Layer_1" xmlns="http://www.w3.org/2000/svg" xmlns:xlink="http://www.w3.org/1999/xlink" x="0px" y="0px"
	 viewBox="0 0 1157.4 1061.7" style="enable-background:new 0 0 1157.4 1061.7;" xml:space="preserve">
<style type="text/css">
	.st0w{fill:#FFFFFF;}
	.st1w{fill:#9D83BD;}
	.st2w{fill:#231F20;}
</style>
<g id="g202_2_">
</g>
<g id="g202_1_">
</g>
<g>
	<g id="g42_1_">
		<g id="g48_1_" transform="translate(349.8496,245.1562)">
			<g id="path50_1_">
				<path class="st0w" d="M-189.9,472.6c7.2-4.4,10.6-12.6,4.6-22.4c-6.2-10.1-15-10.1-21.9-5.9l-11.2,6.9l17.3,28.3L-189.9,472.6z
					 M-214.5,431.3c16.4-10,34.8-10.1,46.3,8.6c11.5,18.8,2.7,35-13.5,44.9l-11.7,7.1l9.2,15.1l8.1-5l7.1,11.6l-31,19l-7.1-11.6
					l6.4-3.9l-34.9-57.1l-6.4,3.9l-7.1-11.6L-214.5,431.3z"/>
			</g>
		</g>
		<g id="g52_1_" transform="translate(437.7544,285.2939)">
			<g id="path54_1_">
				<path class="st0w" d="M-160.6,379c11.5,20.8,3.5,38.4-16.1,49.3c-19.1,10.6-37.6,8.9-49.2-11.9l-23-41.5l-6.5,3.6l-6.6-11.9
					l30-16.6l6.6,11.9l-6.5,3.6l23,41.5c6.6,12,15,13.3,25.6,7.4c10.6-5.9,14.3-13.9,7.6-25.9l-23-41.5l-6.5,3.6l-6.6-11.9
					l28.7-15.9l6.6,11.9l-6.5,3.6L-160.6,379z"/>
			</g>
		</g>
		<g id="g56_1_" transform="translate(473.4009,315.4131)">
			<g id="path58_1_">
				<path class="st0w" d="M-148.7,308.7c8.5-4.3,12-10.9,7.1-20.7c-5.2-10.3-12.7-11.1-21-6.9l-13.3,6.7l13.9,27.7L-148.7,308.7z
					 M-168.8,267.4c17.2-8.6,35.2-7.9,45,11.6c6.1,12.2,3.5,23.2-4.6,31.9l22.7,14.9l8-4l6.1,12.1l-20.1,10.1l-32.6-21.7l-11.4,5.7
					l9.2,18.3l7.5-3.8l6.1,12.1l-31.5,15.8l-6.1-12.1l6.7-3.4l-30.1-59.8l-6.7,3.4l-6.1-12.1L-168.8,267.4z"/>
			</g>
		</g>
		<g id="g60_1_" transform="translate(535.521,343.2812)">
			<g id="path62_1_">
				<path class="st0w" d="M-128,243.7c7.7-3.5,12-11.3,7.3-21.7c-4.9-10.8-13.6-11.9-21.1-8.5l-12,5.5l13.8,30.2L-128,243.7z
					 M-147.5,199.7c17.5-8,35.8-5.8,44.9,14.2c9.1,20-1.5,35-18.9,43l-12.5,5.7l7.4,16.1l8.7-4l5.6,12.3l-33.1,15.1l-5.6-12.3
					l6.8-3.1l-27.8-60.9l-6.8,3.1l-5.6-12.3L-147.5,199.7z"/>
			</g>
		</g>
		<g id="g64_1_" transform="translate(575.644,334.7266)">
			<g id="path66_1_">
				<path class="st0w" d="M-114.6,263.6l6.9-2.9l-25.6-61.9l-6.9,2.9l-5.2-12.5l31.7-13.1l5.2,12.5l-6.9,2.9l25.1,60.6l24-9.9
					l-3.3-14.8l12.9-5.3l11.4,27.6l-64.2,26.5L-114.6,263.6z"/>
			</g>
		</g>
		<g id="g68_1_" transform="translate(634.7568,348.0508)">
			<g id="path70_1_">
				<path class="st0w" d="M-94.9,232.6l-4.7-12.7l7-2.6l-23.2-62.8l-7,2.6l-4.7-12.7l65.4-24.2l9,24.4l-13,4.8l-6.3-9.5l-24.8,9.2
					l8.5,23l29.6-10.9l5.1,13.9l-29.6,10.9l8.6,23.3l26.6-9.8l-1.4-11.3l13-4.8l9,24.4L-94.9,232.6z"/>
			</g>
		</g>
		<g id="g72_1_" transform="translate(733.3877,418.5586)">
			<g id="path74_1_">
				<path class="st0w" d="M-62,68c8.1-2.5,13.4-9.6,10-20.6c-3.5-11.4-12-13.5-19.8-11.1l-12.6,3.9l9.8,31.7L-62,68z M-75.7,21.9
					c18.4-5.7,36.2-1.2,42.7,19.8c6.5,21-6,34.5-24.2,40.2l-13.1,4l5.2,16.9l9.1-2.8l4,13l-34.8,10.7l-4-13l7.1-2.2l-19.7-64
					l-7.1,2.2l-4-13L-75.7,21.9z"/>
			</g>
		</g>
		<g id="g76_1_" transform="translate(774.5781,395.0444)">
			<g id="path78_1_">
				<path class="st0w" d="M-48.3,122.9l-3.4-13.1l7.2-1.9l-16.9-64.8l-7.2,1.9L-72,31.9l67.5-17.6L2,39.5L-11.4,43l-5.3-10l-25.6,6.7
					l6.2,23.7l30.5-7.9l3.7,14.3l-30.5,7.9l6.3,24.1l27.4-7.1L1.1,83.2l13.4-3.5l6.6,25.2L-48.3,122.9z"/>
			</g>
		</g>
		<g id="g80_1_" transform="translate(858.1982,452.3765)">
			<g id="path82_1_">
				<path class="st0w" d="M-20.4-10.9c9.3-1.9,14.4-7.4,12.2-18.2c-2.3-11.2-9.4-14-18.5-12.1l-14.6,3.1l6.3,30.3L-20.4-10.9z
					 M-29.3-55.9c18.8-3.9,36,1.4,40.5,22.8C14-19.8,8.6-9.9-1.4-3.5l18.1,20.2l8.8-1.8l2.8,13.3L6.2,32.7L-19.7,3.4L-32.2,6l4.2,20
					l8.3-1.7l2.8,13.3l-34.5,7.2l-2.8-13.3L-47,30l-13.7-65.5l-7.3,1.5l-2.8-13.3L-29.3-55.9z"/>
			</g>
		</g>
		<g id="g84_1_" transform="translate(947.8984,492.4214)">
			<g id="path86_1_">
				<path class="st0w" d="M9.5-104.3l-19.6,31.6l31.6,34.2l7.4-1.1l2,13.4l-26.4,4l-1.3-8.8l-24.4-26.5l-8.9,13.4l2.1,13.9l7.4-1.1
					l1.9,12.6l-33.9,5.1l-2-13.4l7.4-1.1l-10-66.2l-7.4,1.1l-2-13.4l33.9-5.1l1.9,12.7l-7.4,1.1l3.3,22c0.7,4.5,1.6,8.6,1.6,13.3
					c1.7-4.6,4.1-8.3,7.1-13.1l17.1-26.6l-6.4,1l-1.9-12.7l31.6-4.8l2,13.4L9.5-104.3z"/>
			</g>
		</g>
		<g id="g88_1_" transform="translate(999.0576,488.5937)">
			<g id="path90_1_">
				<path class="st0w" d="M26.5-95.4c-1.9-7.2-7.7-11.2-15.3-10.5c-6.9,0.7-11.5,4.6-10.9,10.9c0.5,5.6,4.7,8.2,14.5,10.7l6,1.5
					c16.9,4.2,27,11.7,28.4,26.9c1.9,19.7-11.8,29.3-26.8,30.8c-11.3,1.1-18-2-22.3-6.3l-1.1,7.3l-12,1.2l-2.8-28.9l14.6-1.4
					C0.7-45,7.5-38.8,18.1-39.8c8.5-0.8,13.5-5.7,12.8-12.6c-0.6-5.8-5.2-9.4-16.5-12.2l-6-1.5c-15.2-3.8-24.4-10.6-25.9-26.3
					c-1.4-14.5,9.3-26.6,24.3-28c7.7-0.7,14.5,1.7,18.8,6.1l0.7-6.9l12.1-1.2L41-96.8L26.5-95.4z"/>
			</g>
		</g>
	</g>
	<g id="g94_1_">
		<g id="g100_1_" transform="translate(325.3986,365.7458)">
			<g id="path102_1_">
				<path class="st0w" d="M-198,191.3c-1.9-25.1,4.3-49.8,11-75.8l0.3-1.2c2.8-10.9,5.6-22.1,7.7-33.2c2.3-12.1,3.9-24.5,5.2-35.5
					c3.4-26.7,6.6-51.8,17.3-74.1c10.7-22.3,28.4-40.5,47.1-59.8l0.4-0.4c8.1-8.3,16.4-16.9,24-25.9c7.8-9,15.3-19,21.9-27.8
					c16.2-21.5,31.5-41.7,52.4-56c9.7-6.6,21.2-12.2,36-17.4l0.8-0.3c10.4-3.6,21-6.7,32.2-9.9l1-0.3c11.5-3.3,23.4-6.7,35.1-10.8
					l1.2-0.4c11.1-3.9,22.1-8.5,32.7-13l1,1.3l-0.6-1.4c10.7-4.5,20.9-8.8,31.2-12.4l0.9-0.3c15.2-5.3,27.9-8.3,39.8-9.2
					c25.2-1.9,49.8,4.4,75.9,11l0.6,0.2c11.1,2.8,22.5,5.7,33.8,7.9c11.5,2.2,22.9,3.6,35.5,5.2c26.7,3.4,51.8,6.6,74.1,17.3
					c22.3,10.7,40.5,28.4,59.8,47.1c8.5,8.2,17.2,16.7,26.3,24.5c9,7.7,18.5,14.9,27.7,21.9c18.7,14.1,38,28.6,52.1,47.1
					c7.8-0.5,15.6-0.8,23.3-0.9c-1.1-1.8-2.2-3.4-3.2-5c-16-23.5-38.6-40.5-60.4-57c-9.5-7.2-18.4-13.9-26.8-21.1
					c-8.5-7.4-16.9-15.4-25.4-23.7c-19.6-19-39.8-38.6-65-50.6c-25.1-12.1-53-15.6-80-19l-0.9-0.1c-11.2-1.4-22.7-2.9-33.6-5
					c-11.2-2.1-22.4-5-33.2-7.7c-26.4-6.7-53.8-13.7-82.2-11.5c-13.7,1-27.9,4.3-44.8,10.2l-0.7,0.2c-11,3.9-22,8.5-32.6,13
					c-9.9,4.2-21.2,8.9-32.1,12.8l-0.9,0.3c-10.9,3.8-22.3,7.1-33.3,10.2l-0.7,0.2c-10.7,3.1-22.9,6.5-34.3,10.5l-0.9,0.3
					c-16.4,5.8-29.3,12.1-40.4,19.7c-23.5,16.1-40.5,38.6-57,60.4l-0.7,0.9c-6.9,9.1-13.4,17.7-20.4,25.9
					c-7.6,8.8-16.1,17.6-23.7,25.4c-19,19.6-38.6,39.8-50.7,65C-186.3-12-189.9,16-193.3,42.9l-0.2,1.2c-1.4,11-2.9,22.4-4.9,33.2
					c-2.1,10.9-4.8,21.7-7.8,33.2c-6.8,26.5-13.7,53.8-11.5,82.2c0.4,5.2,1.1,10.5,2.2,16c5.5-4.7,11.4-9.6,17.7-14.5
					C-197.9,193.3-198,192.3-198,191.3"/>
			</g>
		</g>
		<g id="g104_1_" transform="translate(960.3657,322.3044)">
			<g id="path106_1_">
				<path class="st0w" d="M13.6,292.6c-2.2,11.8-3.8,23.9-5.3,35.5C5,354.8,1.8,379.9-8.9,402.3C-19.7,424.6-37.3,442.8-56,462
					c-8.2,8.4-16.6,17.1-24.5,26.3c-7.6,8.9-14.8,18.4-21.7,27.6c-16.3,21.6-31.6,41.9-52.4,56.1c-9.8,6.7-21.2,12.2-36.1,17.5
					l-1.6,0.5c-10.6,3.7-21.6,6.8-32.2,9.9l-0.6,0.2c-11.3,3.2-23.1,6.6-34.5,10.6l-1,0.3c-11.3,4-22.4,8.6-33.2,13.2
					c-10.6,4.5-20.7,8.7-31,12.4l-1.2,0.4c-15.1,5.3-27.8,8.2-39.8,9.2c-25.2,1.9-49.8-4.4-75.9-11c-11.5-2.9-23-5.8-34.4-8
					c-11.7-2.2-23.7-3.8-35.4-5.2c-26.7-3.4-51.9-6.6-74.2-17.3c-22.2-10.7-40.4-28.3-59.6-46.9c-8.7-8.4-17.4-16.8-26.5-24.6
					c-4.2-3.6-8.8-7.3-14.8-12c-6.3,3.8-12.3,7.4-18,11c6.6,5,13.5,10.4,20,16c9,7.7,18.1,16.5,25.4,23.6c19.7,19,39.8,38.6,65,50.7
					c25.1,12.1,53,15.6,80,19.1c10.9,1.4,23.2,2.9,34.5,5.1c11.3,2.1,22.4,5,33.2,7.8c26.5,6.7,53.8,13.7,82.2,11.5
					c13.7-1,28-4.3,44.8-10.2l0.9-0.3c10.6-3.8,21-8.1,32.5-12.9c10.1-4.2,21.5-9,32.6-12.9l0.5-0.1c11.1-3.9,22.7-7.2,34-10.4
					c10.1-2.9,22.7-6.5,34.3-10.5l1.4-0.5c16.2-5.7,28.9-11.9,40-19.6c23.6-16.1,40.6-38.6,57-60.3l0.7-0.9
					c6.9-9.1,13.4-17.7,20.4-25.9c7.6-8.9,16.1-17.6,23.7-25.4c18.9-19.6,38.5-39.8,50.6-65c12.1-25.1,15.6-53,19.1-79.9
					c1.4-10.9,2.9-23.1,5.1-34.6c1.9-10.4,4.5-20.6,7.4-31.9c-6.8,1-13.9,2-21.1,3.2C17.4,275.1,15.3,283.9,13.6,292.6"/>
			</g>
		</g>
		<g id="g108_1_" transform="translate(371.2535,352.552)">
			<g id="path110_1_">
				<path class="st0w" d="M-183.7,226.1c-1.9-15.3-2.9-31-2.9-46.8c0-206.3,167.3-373.6,373.6-373.6c133.8,0,251.1,70.3,317.1,176
					C504.1-18.4,193.9,23.7-183.7,226.1"/>
			</g>
		</g>
	</g>
	<g id="g124_1_" transform="translate(619.4294,130.4303)">
		<g id="path126_1_">
			<path class="st1w" d="M-100,740.3c-0.5,0.8-1,1.7-1.5,2.5C-100.8,742-100.4,741.2-100,740.3"/>
		</g>
	</g>
	<g id="g152_1_" transform="translate(884.2452,228.054)">
		<g id="path154_1_">
			<path class="st1w" d="M-11.8,512.6c-0.4,1-0.5,2.1-0.3,3.2c3.4-4.7,6.7-9.3,9.8-13.9C-7.5,503.7-11.6,507.3-11.8,512.6"/>
		</g>
	</g>
	<g id="g172_1_" transform="translate(614.7498,283.1259)">
		<g id="path174_1_">
			<path class="st1w" d="M-101.6,384c-3.3,1.2-6.3,1.6-9.2,1.5c-8.4,3.9-16.6,7.8-24.7,11.6C-122.9,396.6-108.6,395.1-101.6,384"/>
		</g>
	</g>
	<g id="g188_1_" transform="translate(494.9761,222.727)">
		<g id="path190_1_">
			<path class="st1w" d="M-141.5,525c0.7-1.2,1.2-2.3,1.6-3.4c-1.3,0.7-2.6,1.5-4,2.2C-143.2,524.2-142.4,524.7-141.5,525"/>
		</g>
	</g>
	<g id="g210_1_" transform="translate(702.8218,300.8891)">
		<g id="path208_1_">
			<path class="st0w" d="M-71.8,342.8c-11.1,7-24.4,11.7-32.9,21.3C-103.4,347.3-88.1,344.6-71.8,342.8 M-102.4,376
				c1-6.1,3.3-10.9,7-14.2c49.8-23.2,93.8-52.3,159.7-59.2c-6.3,5.5-12.1,11.5-14.1,21.3c2,10.4,18.8,25.3,25.8,9.5
				c-10,2.2-10-5.7-9.4-14.2c33.9-39.8,54,69.4-2.3,52.1C57.2,369,59,357.7,48,359.4c-9.2,18.9,10.8,24.2,18.8,33.2
				c-10.1,4-23.2,5.1-35.2,7.1c-10.2-2.6-11.3-12.2-16.4-14.2C2.5,383.5,3.9,398.4,3.3,402c-13.4-3-23.9-9.1-28.2-21.3
				c-0.6-6.9,4.4-8.2,7-11.8c-5.3-5.8-10.3-0.8-14.1-4.7c2.2-24.7,19.4-37.4,39.9-30.8c26.8,8.6,8.2,56.8-9.4,30.8
				c-2.5-8.8,5.8-6.7,4.7-14.2C-31,352-9.9,383.8,8,383.1c18.3-0.7,25.3-21.1,23.5-33.2c-4.6-29.7-50.8-27.2-63.4-14.2
				c-6.4,6.6-13.1,22.9-9.4,40.3c6.2,29.1,32.2,34.5,77.5,35.5c-10.5,19.5,13.9,43,25.8,26.1c-8.8,0.9-13.8-1.9-14.1-9.5
				c19-34.2,65.5-32.7,68.1-80.5c1.4-26-13.8-60.6,23.5-66.3c4.4,2.6,8.2,5.9,14.1,7.1c3.1-26.5-25.4-18.4-35.2-9.5
				c2.9-6.3,5.8-14,9.7-20.8c-4.1,0.7-8.2,1.5-12.3,2.2c-5.2,14.5-9.4,30.6-13.8,47c-7.3-15.7-37.4-19.3-46-33.5
				c-4.2,1.1-8.4,2.2-12.6,3.4c4.6,8,12.5,15.5,18.6,18.3c-24.8,3.8-66.8,11.1-93.5,4.8c-4,1.4-8,2.8-12,4.2
				c11.1,5.5,26.8,6.2,44.4,5.2c-17.6,13.1-45,13.1-63.3,1.6c-3.3,1.2-6.6,2.4-9.9,3.7c11.4,2.7,20.9,7.2,28.5,13.7
				c-18,5.6-55.5,14.3-75.9,4.9c-3.2,1.3-6.3,2.6-9.4,3.9c7.4,4.3,16.9,6.7,26.6,10.1C-109.4,352.9-113.3,371.7-102.4,376"/>
		</g>
	</g>
	<g id="g214_1_" transform="translate(903.6218,366.6187)">
		<g id="path212_1_">
			<path class="st0w" d="M-4.9,189.5c0.9-2,1.5-3.9,1.9-5.6c-2.1,0.1-4.1,0.2-6.2,0.4C-8.9,187.3-8.8,190.1-4.9,189.5"/>
		</g>
	</g>
	<g id="g218_1_" transform="translate(917.7165,370.1706)">
		<g id="path216_1_">
			<path class="st0w" d="M-0.2,181.2c-1.6,23.8-39.8,33.7-42.1,1.3c-4,0.4-7.9,0.9-11.9,1.4c0,0.7-0.1,1.4,0,2.1
				c1.5,36.7,59.6,28.4,65.8,0c0.5-2.3,0.8-4.5,0.9-6.7c-4.2,0-8.4,0.1-12.6,0.2C-0.2,180-0.2,180.6-0.2,181.2"/>
		</g>
	</g>
	<g id="g222_1_" transform="translate(683.447,169.4336)">
		<g id="path220_1_">
			<path class="st0w" d="M-78.3,649.5v9.5c7,3.3,14.4,2.8,16.4-4.7C-64,649.1-72.2,643.7-78.3,649.5"/>
		</g>
	</g>
	<g id="g226_1_" transform="translate(743.3329,141.0093)">
		<g id="path224_1_">
			<path class="st0w" d="M-58.3,715.9c0.8,48.1-92.1,46.8-131.5,28.4c-3.8,3.3-12.1,2-14.1,7.1c18.3,9.6,44.8,10.7,71.2,11.5
				c21.3-3,43.6-7.9,66.6-14.7c5-5.2,19.7-10.8,17.1-25.3c8.1,8.1,2.5,16.1-5.4,21.7c3-1,6.1-2,9.2-3.1
				C-40,729-43.3,711.8-58.3,715.9"/>
		</g>
	</g>
	<g id="g230_1_" transform="translate(878.9632,325.7599)">
		<g id="path228_1_">
			<path class="st0w" d="M-13.1,284.8c5.1,11.3-10.7,21.7,2.3,30.8c-12.6-1.7-14.9,7.1-18.8,14.2C-37.3,310.9-19.4,297.4-13.1,284.8
				 M22.1,360.6c7.8-15.4-1.8-15-14.1-9.5c1.8-14.5-6.3-18.9-16.4-21.3c5.6,12.1-6.2,20.4-2.3,37.9c-19.1-8.4-17.9-51.8,7-45
				c2.6-12.9-5-15.5-9.4-21.3c10.2-5.2,8.8-28-2.3-30.8c1.2,16.2-17.9,24.6-21.1,40.3c-5.7,27.7,11.1,44.9,16.4,61.6
				c-50.6-1-80.1,20.4-82.2,61.6c-1.3,25,15.2,44.3,35.1,52.8c10-9.5,19.2-18.9,27.8-28.3c-3.5-5.4-10-8.9-18.2-7.9
				c-5.7,5.7,5.7,6.3,2.3,16.6c-28,12.5-46.7-22.5-35.2-42.6c0.1,13.2,15.7,17.1,23.5,9.5c-1.7-7.8-10.9-8-11.7-16.6
				c3.7-31.5,51.7-49.2,82.2-30.8c-23.9-1.5-25.3,33.4-15.1,38.7c1.8-2.4,3.6-4.7,5.3-7.1c-0.1-1.1-0.1-2.2,0.3-3.2
				c0.2-5.2,3.9-12.6,9.1-14.4c5.4-7.9,6.8-14.1,11.3-21.7c-17.1-3-25.1-13-18.1-32.6c7.9,0.7,6.6,10.7,7,19
				c7.2-0.7,5.2-10.6,11.7-11.8c2.6,6.8,0.5,9.9,2.8,17c4.7-8.3,9-16.4,12.7-24.3C25.5,348.4,24.8,357.2,22.1,360.6"/>
		</g>
	</g>
	<g id="g234_1_" transform="translate(856.0632,226.279)">
		<g id="path232_1_">
			<path class="st0w" d="M-20.7,516.9c-13.1,2.8-22.8,27.7,0,21.3c3.9-7.4-8.7-9.7-2.3-11.8c10.4-1,14.9,3.9,16.4,11.8
				c-6.6,0.4-10,4.1-9.4,11.8c3-1.4,5.5-1.6,7.4-1.1c6.1-7,11.8-13.9,17.1-20.7C1.6,519.6-8.8,514.4-20.7,516.9"/>
		</g>
	</g>
	<g id="g238_1_" transform="translate(442.0251,193.8887)">
		<g id="path236_1_">
			<path class="st0w" d="M-158.8,592.5c4.6,5.2,9.6,10.4,14.8,15.6c-1.4-7.4-4.1-14.2-8.1-19.7C-156.4,591-158.8,592.5-158.8,592.5"
				/>
		</g>
	</g>
	<g id="g242_1_" transform="translate(458.1169,203.5919)">
		<g id="path240_1_">
			<path class="st0w" d="M-153.4,569.8c8.6,10.7,10.6,26.8,8,42.3c2.9,2.6,5.8,5.1,8.9,7.7c5.2-20.1,7.1-43.5,10.2-65.7
				C-136.9,560.2-146,565.5-153.4,569.8"/>
		</g>
	</g>
	<g id="g246_1_" transform="translate(595.3754,268.9128)">
		<g id="path244_1_">
			<path class="st0w" d="M-107.6,417.4c16.8-3,30-13.2,38.6-27.5c-7.4,3.3-14.8,6.7-22,10c2.8,0.1,5.9-0.3,9.2-1.5
				c-7,11.1-21.3,12.5-33.9,13.1c-3.8,1.8-7.5,3.6-11.2,5.4C-121.5,417.7-116.2,418.9-107.6,417.4"/>
		</g>
	</g>
	<g id="g258_1_" transform="translate(789.1315,165.882)">
		<g id="path256_1_">
			<path class="st0w" d="M-43.1,657.8c14.5,1.1,5.6,14.7,7,21.3c3.3-3.8,11.6-2.5,14.1-7.1c1.7-12-2.6-17.9-7-23.7
				c-14.1-4.1-27.1-0.5-30.5,2.4c-20.1,17.2-9.3,37.2,10.5,46.6c2.9-1.3,6.8-2.5,9.7-3.8C-60.5,690.9-64.8,656.2-43.1,657.8"/>
		</g>
	</g>
	<g id="g262_1_" transform="translate(523.16,236.9364)">
		<g id="path260_1_">
			<path class="st0w" d="M-131.7,492c-1.9,7.6-8.5,10.3-11.7,16.6c9.1-1.5,9.7-2,16.4,2.4c-15.7,6.7-20.9,34-11.7,52.1
				C-155,547.9-166.2,495.1-131.7,492 M-164.6,563.1c7.5,7.9-5.5,8.4-7,14.2c11.9,9.8,24.3-0.2,30.5-9.5
				c18.4,33.9,72.1,71.4,108,68.7c-23.3-3.4-47.4-18.4-44.6-40.3c11.3,3.7,16.1,26.3,28.2,21.3c-5.2-1.7-7.8-11.1-4.7-14.2
				c7.4,9.5,7.4-3.5,16.4-4.7c-7.7,11.7,2.6,36.2,14.1,28.4c-11.5-3.5-15.3-20.5-7-30.8c-17.1,5.6-26-3.4-32.9,7.1
				c-3.8-7.3-16.1-18.4-25.8-11.8c4.6,4.1,8.9,20.9,7,23.7c-29.1-12.8-83.2-70.5-37.6-99.5c0-8.7-8.2-9.1-11.7-14.2
				c8.4-2,11.9-9,11.8-19.7c-14.3,7.5-27.7,14.7-39.9,21.4c-0.9,15.3,1.4,31.3,7,45.7c-6.2-2.5-14.4-2.8-23.5-2.4
				c-16.5,18.9-18.4,35.8-11.9,50.6c5.5,4.2,11.3,8.3,17.2,12.3C-188.9,590.6-196.2,561.8-164.6,563.1"/>
		</g>
	</g>
	<path class="st0w" d="M696.8,752.7c2-2.7,3.1-6.4,2.3-11.8c-6.3-1.4-14.7,7-18.8,0c-1.3-10.7,4.7-14.2,7-21.3
		c-10.9-2.3-14.2,3.1-21.1,4.7c0.5-16.9-23.3-31.5-32.9-16.6c45.3,22.1-5.5,66.7-9.4,97.1c37,4,55.7-53.2,103.3-30.8
		C726.4,757,706.1,754.2,696.8,752.7z M632.9,799.7c8.4-24.2,37.2-49.5,21.1-82.9c4.7-6.1,9.5,7.6,9.4,14.2
		c7.2,1.8,4.5-6.5,11.7-4.7c-4.4,11.3-4.9,26.6-14.1,33.2c4.9,3.2,12.6-10.9,25.8-7.1c0.7,3.8-2.2,4.1-2.3,7.1
		c10.5-2.5,27-3.6,30.5,7.1C677.2,757.7,661.7,791.5,632.9,799.7z"/>
	<path class="st0w" d="M793.2,829.4c-1.5-23.2-19.9-39.6-35.4-43.5c-69.5-17.7-139.5,65.4-197.3,85.3c32.5-25.6,45.2-71.3,44.6-130.3
		c1.7-7,16.6-0.6,16.4-9.5c0.8-12.1-15.7-10.4-23.5-7.1c0.4-7.5,2-21.5,9.4-28.4c-13.7-1.9-18.3,5.2-23.5,11.8
		c-0.7-3.2-3.3-4.5-2.3-9.5c-11.4,11.1-22.9,9.5-23.5-11.8c-1.2-7.5,11.7-0.9,9.4-9.5c-22-12.9-29.2,17.9-25.8,30.8
		C477.6,660.8,378.9,741.2,429,800c3.8,4.4,20.7,15.2,28.2,16.6c42.1,7.8,75.4-43.5,44.6-68.7c-17.3-14.2-56.9,5.5-30.5,16.6
		c8.5-2.1-4.9-13.4,2.3-14.2c11.2-0.3,15.5,6.4,18.8,14.2c-8.3-2.7-14.3,9-9.4,11.8c16.8-7.8,13.1,27.3-2.3,26.1
		c5.9-14.2-2.4-29.4-21.1-26.1c0.9,6.2,7.5,6.6,4.7,16.6c-28,12.4-48.4-23.3-35.2-45c-2.7,14.4,20,19.6,23.5,7.1
		c-7.8-1.6-10.6-8.2-11.7-16.6c7.6-28.9,50.9-45.1,82.2-28.4c-25.4-1.7-30.6,51.9-4.7,37.9c-16.5-14.6,16.6-29.2,25.8-14.2
		c-3.8,4.9-13.9,3.4-14.1,11.8c6.1,4.9,13.7,8.3,25.8,7.1c-2.3,6.1-5,18.8,4.7,18.9c2.7,6.3,2.8-9.6,11.7-4.7
		c28.7,20.6,15,82.5-14.1,92.4c28.5-26.4,17.5-110-35.2-85.3c-5.7,12.8-2.2,30.6,14.1,28.4c-3.3-7.1-2.8-14.5,4.7-16.6
		c28.5-2.3,27.4,38.6,11.7,49.7c0.9-12.1-17.8-23.9-25.8-11.8c8.3,1.1,8.6,10.3,11.7,16.6c-9.7,7-13.2,20.3-19.6,30.7
		c-0.3,0.9-0.8,1.7-1.5,2.5c0.5-0.8,1-1.6,1.5-2.5c2.1-5.2-2.3-11.8-3.9-16.5c-5.6-1.4-10.7-3.4-18.8-2.4c0.2,7.7,10.6,5.1,7,16.6
		c-9.8,13-27.2,18.4-49.3,18.9c5.3-10.7,0.4-23.5-11.7-23.7c4.1,20.4-22,20.1-30.5,14.2c2-3.5,5.9-5.1,11.7-4.7
		c-0.1-9.4-9.1-9.8-14.1-14.2c6.8-7.8-2.5-19.5-14.1-16.6c-1,5.7,4.3,5.1,2.3,11.8c-6.4,7-14.2,8.7-22.1,7
		c29.5,16.8,63.5,30.5,101.8,38.6c67.5-0.2,103.2-49,162.1-40.9c0.7,5.5,4.6,9.8,0,14.2c30.4-4.2,5.3-36.4-14.1-33.2
		c19.4-7.3,31.7-21.7,61.1-19c7.3,2.1,6.9,12,14.1,14.2c17.9-10.9-3.8-28.6-16.4-30.8c17.8-8.5,44.3-13.9,54,4.7
		c12.1,2.7,7-11.9,11.7-16.6c27.9,2.2,32.4,31.3,24.1,50.9C781.2,838.7,787.3,834.5,793.2,829.4z M560.1,740.6
		c3.8-5.9,11.3,4.2,16.4,4.7c3.5-1-0.9-3,0-7.1c-1.1-4.9,10,16,14.1,21.3L560.1,740.6z"/>
	<g id="g282_1_">
		<g id="g288_1_" transform="translate(369.0249,350.0485)">
			<g id="path290_1_">
				<path class="st2w" d="M-185.5,227.1c-1.6-14-2.4-28.2-2.4-42.4c0-50.9,10-100.4,29.7-146.9c19-44.9,46.2-85.3,80.9-119.9
					c34.7-34.7,75-61.9,119.9-80.9c46.5-19.7,95.9-29.7,146.9-29.7c126.1,0,243.4,62.6,313.7,167.6l-3.3,2.2
					c-69.6-103.8-185.6-165.8-310.4-165.8c-50.4,0-99.3,9.9-145.3,29.3c-44.5,18.8-84.4,45.7-118.7,80
					c-34.3,34.3-61.2,74.2-80,118.7c-19.5,46-29.3,94.9-29.3,145.3c0,14,0.8,28.1,2.3,41.9L-185.5,227.1z"/>
			</g>
		</g>
		<g id="g292_1_" transform="translate(930.3077,381.6694)">
			<g id="path294_1_">
				<path class="st2w" d="M-371.8,530.5c-109.7,0-213.8-47.7-285.6-130.8l3-2.6c71,82.2,174.1,129.4,282.6,129.4
					c50.4,0,99.3-9.9,145.3-29.3c44.5-18.8,84.4-45.7,118.7-80c34.3-34.3,61.2-74.2,80-118.7c19.5-46,29.3-94.9,29.3-145.3h4
					c0,50.9-10,100.4-29.7,146.9c-19,44.9-46.2,85.3-80.9,119.9s-75,61.9-119.9,80.9C-271.4,520.5-320.8,530.5-371.8,530.5z"/>
			</g>
		</g>
		<g id="g296_1_" transform="translate(259.9847,275.3662)">
			<g id="path298_1_">
				<path class="st2w" d="M-219.8,401.2c0,0,459.3-329.7,1035.1-365.8c-242.9-11.5-509,73.1-529.5,80.3
					C265.3,122.8-95.2,252.9-219.8,401.2"/>
			</g>
		</g>
		<g id="g300_1_" transform="translate(347.2751,138.9417)">
			<g id="path302_1_">
				<path class="st2w" d="M-190.7,719.5c0,0,425.6-280,960.7-337.5c-178.5-25.3-428.7,60.6-447.7,67.2
					C303.4,455.9-110.3,600.7-190.7,719.5"/>
			</g>
		</g>
		<g id="g304_1_" transform="translate(448.1463,162.7897)">
			<g id="path306_1_">
				<path class="st2w" d="M-157.1,663.8c0,0-62.4-2.3-133,30.8c20.4-31.7,91.7-74.7,94.7-75.7C-181.1,642.5-157.1,663.8-157.1,663.8"
					/>
			</g>
		</g>
		<g id="g308_1_" transform="translate(942.0093,340.4544)">
			<g id="path310_1_">
				<path class="st2w" d="M7.5,249.3c0,0,74.7-55,165.2-68.2c-36.4-9.8-159.2,3.6-162.1,4.9C15.7,213,7.5,249.3,7.5,249.3"/>
			</g>
		</g>
	</g>
	<g id="g314_1_">
		<g id="g320_1_" transform="translate(458.3296,438.6606)">
			<g id="path322_1_">
				<path class="st1w" d="M-153.7,21.1c2.5-1.2,5.1-2.5,7.6-3.7c5.8-2.8,8.3-4.7,9.1-7c1.3-3.3,0.6-6-3.6-14.2
					c-3.2-6.3-4.3-8.1-6.3-9.6c-3.7-2.9-6.5-2.9-12.5,0.1c-3.2,1.6-6.5,3.3-9.7,4.9C-163.9,1.4-158.8,11.3-153.7,21.1 M-169.4-9
					c2.8-1.4,5.7-2.9,8.5-4.3c7.6-3.8,7.8-6.6,1.7-18.2c-7.4-14.1-9.8-15.6-17.7-11.5c-2.8,1.4-5.6,2.9-8.4,4.4
					C-179.9-28.8-174.6-18.9-169.4-9 M-181.2-41.8c1.8-1,3.7-1.9,5.5-2.9c9.7-4.9,16.3-1.9,22.5,10c3.2,6.2,3.8,9.9,2.2,13.4
					c-1.1,2.3-3,4.3-5.9,6.1c10.9-4.7,17.3-2.4,22.6,8.1c5.5,11,2.8,18.2-9,24c-6.9,3.5-13.8,7-20.7,10.5c-0.1-0.2-0.3-0.5-0.4-0.7
					c1.6-0.8,3.1-1.6,4.7-2.4c-10.3-20-20.9-39.9-31.8-59.8c-1.6,0.8-3.2,1.7-4.8,2.5c-0.1-0.2-0.3-0.5-0.4-0.7
					C-191.6-36.4-186.5-39.1-181.2-41.8"/>
			</g>
		</g>
		<g id="g324_1_" transform="translate(458.3296,438.6606)">
			<g id="path326_1_">
				<path class="st1w" d="M-164.2,27.9l-0.6-1.2l0.2-0.1c1.5-0.8,3-1.5,4.5-2.3c-10.2-19.8-20.8-39.8-31.5-59.4
					c-1.5,0.8-3.1,1.6-4.6,2.4l-0.2,0.1l-0.6-1.2l0.2-0.1c5.2-2.7,10.4-5.4,15.6-8.1c1.8-1,3.7-1.9,5.5-2.9
					c9.8-4.9,16.6-1.9,22.8,10.1c3.3,6.3,3.9,10,2.2,13.7c-0.9,1.8-2.2,3.5-4.2,4.9c9.9-3.6,15.8-0.9,20.8,9
					c2.7,5.4,3.4,9.9,2.1,13.7c-1.4,4.1-5,7.6-11.3,10.7c-7,3.5-13.9,7-20.7,10.5L-164.2,27.9z M-164.2,26.9l0.2,0.3
					c6.7-3.5,13.6-7,20.5-10.4c6.1-3,9.7-6.4,11-10.4c1.2-3.7,0.5-8-2.1-13.3c-5.2-10.3-11.4-12.6-22.2-8l-0.2-0.4
					c-1,0.8-2.2,1.5-3.7,2.3c-2.8,1.4-5.7,2.9-8.5,4.3l-0.2,0.1l-0.1-0.2c-5.2-9.9-10.6-19.9-15.9-29.7l-0.1-0.2l0.2-0.1
					c2.8-1.5,5.6-2.9,8.4-4.4c8.1-4.2,10.6-2.6,18.1,11.6c3.4,6.4,5,10.4,4,13.3c-0.3,1.1-1,1.9-1.9,2.7c2.7-1.7,4.5-3.6,5.6-5.8
					c1.6-3.5,1-7.1-2.2-13.2c-6.2-11.8-12.6-14.7-22.1-9.9c-1.8,1-3.7,1.9-5.5,2.9l0,0c-5.1,2.6-10.3,5.3-15.3,8l0.2,0.3
					c1.5-0.8,3.1-1.6,4.6-2.4l0.2-0.1l0.1,0.2c10.8,19.7,21.5,39.9,31.8,59.8l0.1,0.2l-0.2,0.1C-161.2,25.3-162.7,26.1-164.2,26.9z
					 M-184.9-38.6c5.2,9.6,10.5,19.4,15.6,29.2c2.8-1.4,5.5-2.8,8.3-4.2c3.5-1.7,5.1-3.1,5.6-4.9c0.9-2.7-0.8-6.8-4-13
					c-7.3-14-9.6-15.4-17.4-11.4C-179.5-41.4-182.2-40-184.9-38.6z M-153.8,21.5l-0.1-0.2c-5.1-9.9-10.3-19.8-15.4-29.6l-0.1-0.2
					l0.2-0.1c3.2-1.6,6.5-3.3,9.7-4.9c6-3,8.9-3,12.7,0c2,1.6,3.2,3.3,6.4,9.7c4.2,8.2,4.9,11.1,3.6,14.4c-0.9,2.4-3.4,4.3-9.2,7.1
					c-2.5,1.2-5.1,2.5-7.6,3.7L-153.8,21.5z M-168.8-8.3c5.1,9.6,10.2,19.4,15.2,29.2c2.5-1.2,4.9-2.4,7.4-3.6
					c5.7-2.8,8.2-4.6,9-6.8c1.2-3.2,0.5-6-3.5-14c-3.2-6.3-4.3-8-6.3-9.5c-3.7-2.8-6.4-2.8-12.2,0.1C-162.5-11.6-165.6-10-168.8-8.3
					z"/>
			</g>
		</g>
		<g id="g328_1_" transform="translate(482.6406,474.8578)">
			<g id="path330_1_">
				<path class="st1w" d="M-145.6-63.3c6.6-3.1,13.2-6.2,19.8-9.3c-8.6-9.1-17.3-18.2-26-27.2C-149.7-87.7-147.7-75.5-145.6-63.3
					 M-98-53.2c1.8-0.8,3.5-1.6,5.3-2.4c0.1,0.2,0.2,0.4,0.3,0.7c-5.9,2.7-11.9,5.3-17.8,8.1c-0.1-0.2-0.2-0.4-0.3-0.7
					c1.9-0.9,3.7-1.7,5.6-2.5c-6.2-6.8-12.4-13.6-18.7-20.4c-7.2,3.3-14.4,6.7-21.6,10.1c1.5,9,3,18,4.5,27c1.8-0.8,3.5-1.7,5.3-2.5
					c0.1,0.2,0.2,0.4,0.3,0.7c-4.3,2.1-8.6,4.1-12.9,6.2c-0.1-0.2-0.2-0.4-0.3-0.7c1.8-0.9,3.6-1.8,5.5-2.6
					c-3.8-23.2-7.6-46.5-11.6-69.7c-2.2,1-4.4,2.1-6.6,3.1c-0.1-0.2-0.3-0.5-0.4-0.7c6.8-3.2,13.6-6.4,20.5-9.6
					c0.1,0.2,0.3,0.5,0.4,0.7c-2.2,1-4.4,2-6.6,3.1C-130.3-88.2-114-70.8-98-53.2"/>
			</g>
		</g>
		<g id="g332_1_" transform="translate(482.6406,474.8578)">
			<g id="path334_1_">
				<path class="st1w" d="M-148.1-28.6l-0.5-1.1l0.2-0.1c1.8-0.9,3.5-1.7,5.3-2.6c-3.7-23-7.6-46.3-11.5-69.2c-2.1,1-4.2,2-6.3,3
					l-0.2,0.1l-0.6-1.2l0.2-0.1c6.8-3.2,13.7-6.5,20.5-9.6l0.2-0.1l0.6,1.2l-0.2,0.1c-2.1,1-4.2,1.9-6.3,2.9
					c16.5,17,32.9,34.4,48.8,51.8c1.7-0.8,3.4-1.5,5.1-2.3l0.2-0.1l0.5,1.1l-0.2,0.1c-6,2.7-12,5.4-17.8,8.1l-0.2,0.1l-0.5-1.1
					l0.2-0.1c1.7-0.8,3.5-1.6,5.3-2.4c-6.1-6.7-12.3-13.5-18.4-20c-7.1,3.3-14.2,6.6-21.2,10c1.5,8.8,3,17.7,4.5,26.5
					c1.7-0.8,3.3-1.6,5-2.4l0.2-0.1l0.5,1.1l-0.2,0.1c-4.3,2-8.6,4.1-12.9,6.2L-148.1-28.6z M-147.9-29.5l0.1,0.2
					c4.2-2,8.4-4,12.5-6l-0.1-0.2c-1.7,0.8-3.4,1.6-5.1,2.4l-0.3,0.1l-0.1-0.3c-1.5-9-3-18-4.5-27l0-0.2l0.2-0.1
					c7.1-3.4,14.4-6.8,21.6-10.1l0.2-0.1l0.1,0.1c6.2,6.7,12.5,13.5,18.7,20.4l0.2,0.3l-0.3,0.1c-1.8,0.8-3.6,1.6-5.3,2.4l0.1,0.2
					c5.7-2.6,11.5-5.2,17.3-7.9l-0.1-0.2c-1.7,0.8-3.4,1.5-5.1,2.3l-0.2,0.1l-0.1-0.1c-15.9-17.6-32.5-35.1-49.1-52.2l-0.2-0.3
					l0.3-0.1c2.1-1,4.2-2,6.3-2.9l-0.2-0.3c-6.7,3.1-13.4,6.2-20,9.4l0.2,0.3c2.1-1,4.3-2,6.4-3l0.3-0.1l0.1,0.3
					c3.9,23.1,7.8,46.6,11.6,69.7l0,0.2l-0.2,0.1C-144.5-31.2-146.2-30.4-147.9-29.5z M-145.8-63l-0.1-0.3
					c-2.1-12.3-4.1-24.5-6.2-36.5l-0.1-0.8l0.6,0.6c8.7,9,17.5,18.1,26,27.2l0.2,0.3l-0.3,0.1c-6.6,3.1-13.3,6.2-19.8,9.3L-145.8-63
					z M-151.4-99.1c2,11.6,4,23.5,6,35.4c6.4-3,12.8-6.1,19.2-9C-134.5-81.5-143-90.4-151.4-99.1z"/>
			</g>
		</g>
		<g id="g336_1_" transform="translate(538.0977,515.3219)">
			<g id="path338_1_">
				<path class="st1w" d="M-127.1-157.7c-1.2,0.5-2.4,1-3.6,1.5c-4.9-10.6-15.5-15.8-24.4-11.9c-5.7,2.5-8.5,7.8-7.5,14.2
					c0.4,2.2,1.8,6,4.1,10.8c4,8.3,8,16.7,11.9,25.1c2.9,6.1,5.5,10,8,11.9c3.8,2.7,8.3,3.2,13.3,1c9.4-4.1,11.9-12.7,6.8-24
					c1.5-0.6,3-1.3,4.5-1.9c4.8,10.7,0,21.8-11.1,26.6c-6.9,3-14.8,2.3-20.3-1.6c-3.2-2.3-7-7.7-10.3-14.7c-2.3-4.9-4.7-9.8-7-14.7
					c-3.9-8.1-5.3-12.8-5-17.2c0.6-7.2,5-13.2,12.4-16.4c8.5-3.7,16.5-2.3,23.4,3.7c-1.6-3.4-3.2-6.8-4.8-10.2
					c0.4-0.2,0.7-0.3,1.1-0.5C-132.8-169.8-129.9-163.8-127.1-157.7"/>
			</g>
		</g>
		<g id="g340_1_" transform="translate(538.0977,515.3219)">
			<g id="path342_1_">
				<path class="st1w" d="M-134.1-102.2c-4.2,0-8.2-1.2-11.5-3.5c-3.3-2.4-7.1-7.8-10.4-14.8c-2.2-4.7-4.6-9.7-7-14.7
					c-3.9-8.1-5.3-12.9-5-17.3c0.6-7.4,5.2-13.4,12.6-16.6c8.2-3.6,16-2.5,22.7,3c-1.4-3.1-2.9-6.1-4.3-9.2l-0.1-0.2l1.6-0.7
					l0.1,0.2c2.8,5.9,5.6,12,8.5,18.1l0.1,0.2l-0.2,0.1c-1.2,0.5-2.4,1-3.6,1.5l-0.2,0.1l-0.1-0.2c-4.9-10.6-15.3-15.6-24.1-11.8
					c-5.6,2.4-8.4,7.7-7.3,14c0.3,2.1,1.8,5.9,4.1,10.8c4,8.2,8,16.7,11.9,25.1c2.8,6,5.4,9.9,7.9,11.9c3.8,2.7,8.2,3.1,13,1
					c4.2-1.8,7-4.5,8.3-8c1.7-4.3,1.1-9.5-1.7-15.7l-0.1-0.2l0.2-0.1c1.5-0.6,3-1.3,4.5-1.9l0.2-0.1l0.1,0.2
					c2.3,5,2.5,10.4,0.6,15.2c-2,5.1-6.2,9.3-11.9,11.7C-127.9-102.8-131-102.2-134.1-102.2z M-146.1-170.7c-3,0-6,0.7-9.1,2
					c-7.2,3.1-11.7,9.1-12.3,16.2c-0.3,4.3,1.1,9.1,5,17.1c2.4,5,4.8,9.9,7,14.7c3.2,6.8,7.1,12.3,10.2,14.6
					c5.5,3.9,13.2,4.5,20.1,1.5c5.6-2.4,9.7-6.5,11.6-11.5c1.8-4.6,1.6-9.7-0.5-14.6c-1.4,0.6-2.7,1.1-4.1,1.7
					c2.7,6.1,3.3,11.5,1.6,15.8c-1.4,3.6-4.3,6.4-8.6,8.3c-5,2.2-9.6,1.8-13.5-1c-2.6-2-5.2-5.9-8.1-12c-3.9-8.4-7.9-16.8-11.9-25.1
					c-2.4-4.9-3.8-8.7-4.2-10.9c-1.1-6.5,1.8-12,7.6-14.5c9-3.9,19.6,1.2,24.6,11.8c1-0.4,2.1-0.9,3.1-1.3
					c-2.8-5.9-5.5-11.9-8.3-17.6l-0.6,0.3c1.6,3.3,3.1,6.7,4.7,10l-0.4,0.3C-136.3-168.8-141.1-170.7-146.1-170.7z"/>
			</g>
		</g>
		<g id="g344_1_" transform="translate(550.7512,537.2716)">
			<g id="path346_1_">
				<path class="st1w" d="M-122.9-209c0.1,0.3,0.2,0.5,0.4,0.8c-2,0.8-4,1.6-6,2.4c4.5,9.8,9,19.6,13.4,29.4
					c8.9-3.6,17.8-7.2,26.8-10.7c-4.3-9.9-8.7-19.7-13.1-29.6c-2,0.8-4,1.6-6,2.4c-0.1-0.3-0.2-0.5-0.3-0.8
					c6.4-2.6,12.9-5.1,19.4-7.6c0.1,0.3,0.2,0.5,0.3,0.8c-2.1,0.8-4.2,1.6-6.3,2.4c9.3,20.8,18.2,41.6,27,62.5
					c2-0.8,4.1-1.6,6.1-2.3c0.1,0.3,0.2,0.5,0.3,0.8c-6.3,2.4-12.6,4.9-18.9,7.3c-0.1-0.3-0.2-0.5-0.3-0.8c2-0.8,3.9-1.5,5.9-2.3
					c-4.2-10.1-8.5-20.1-12.9-30.1c-9,3.5-17.9,7.1-26.8,10.7c4.5,10,8.9,20,13.2,30c1.9-0.8,3.9-1.6,5.8-2.4
					c0.1,0.3,0.2,0.5,0.3,0.8c-6.2,2.5-12.3,5-18.5,7.6c-0.1-0.3-0.2-0.5-0.3-0.8c2-0.8,3.9-1.6,5.9-2.4c-9.1-20.7-18.4-41.4-28-62
					c-2,0.8-4,1.7-6.1,2.5c-0.1-0.3-0.2-0.5-0.4-0.8C-135.6-203.8-129.3-206.4-122.9-209"/>
			</g>
		</g>
		<g id="g348_1_" transform="translate(550.7512,537.2716)">
			<g id="path350_1_">
				<path class="st1w" d="M-113.2-137.4l-0.5-1.2l0.2-0.1c1.9-0.8,3.8-1.6,5.7-2.3c-8.9-20.4-18.3-41.1-27.8-61.5
					c-1.9,0.8-3.9,1.6-5.8,2.4l-0.2,0.1l-0.6-1.2l0.2-0.1c6.2-2.6,12.6-5.2,19-7.8l0.2-0.1l0.6,1.2l-0.2,0.1
					c-1.9,0.8-3.8,1.6-5.7,2.3c4.4,9.6,8.9,19.3,13.2,28.9c8.7-3.6,17.6-7.1,26.3-10.5c-4.2-9.5-8.5-19.3-12.9-29.1
					c-1.9,0.8-3.9,1.5-5.8,2.3l-0.2,0.1l-0.6-1.2l0.2-0.1c6.4-2.5,12.9-5.1,19.4-7.6l0.2-0.1l0.5,1.2l-0.2,0.1c-2,0.8-4,1.6-6,2.3
					c9.1,20.5,18.1,41.4,26.8,62c2-0.8,3.9-1.5,5.9-2.3l0.2-0.1l0.5,1.2l-0.2,0.1c-6.3,2.4-12.6,4.9-18.9,7.3l-0.2,0.1l-0.5-1.2
					l0.2-0.1c1.9-0.7,3.8-1.5,5.6-2.2c-4.1-9.8-8.4-19.8-12.7-29.7c-8.8,3.4-17.6,7-26.3,10.5c4.4,9.8,8.8,19.7,13,29.5
					c1.9-0.8,3.7-1.5,5.6-2.3l0.2-0.1l0.5,1.2l-0.2,0.1c-6.1,2.4-12.3,5-18.5,7.6L-113.2-137.4z M-113-138.4l0.1,0.3
					c6-2.5,12.1-5,18-7.4l-0.1-0.3c-1.9,0.8-3.7,1.5-5.6,2.3l-0.2,0.1l-0.1-0.2c-4.3-9.9-8.8-20-13.2-30l-0.1-0.2l0.2-0.1
					c8.8-3.6,17.8-7.2,26.8-10.7l0.2-0.1l0.1,0.2c4.4,10,8.7,20.2,12.9,30.1l0.1,0.2l-0.2,0.1c-1.9,0.7-3.8,1.5-5.6,2.2l0.1,0.3
					c6.1-2.4,12.3-4.8,18.4-7.1l-0.1-0.3c-2,0.8-3.9,1.5-5.9,2.3l-0.2,0.1l-0.1-0.2c-8.7-20.8-17.8-41.8-27-62.5l-0.1-0.2l0.2-0.1
					c2-0.8,4-1.6,6-2.3l-0.1-0.3c-6.4,2.4-12.7,4.9-18.9,7.4l0.1,0.3c1.9-0.8,3.9-1.5,5.8-2.3l0.2-0.1l0.1,0.2
					c4.5,9.9,8.9,19.9,13.1,29.6l0.1,0.2l-0.2,0.1c-8.9,3.5-17.9,7.1-26.8,10.7l-0.2,0.1l-0.1-0.2c-4.4-9.8-8.9-19.7-13.4-29.4
					l-0.1-0.2l0.2-0.1c1.9-0.8,3.8-1.6,5.8-2.3l-0.1-0.3c-6.2,2.5-12.4,5.1-18.5,7.6l0.1,0.3c1.9-0.8,3.9-1.6,5.8-2.4l0.2-0.1
					l0.1,0.2c9.6,20.5,19,41.4,28,62l0.1,0.2l-0.2,0.1C-109.3-139.9-111.2-139.2-113-138.4z"/>
			</g>
		</g>
		<g id="g352_1_" transform="translate(596.4899,554.9936)">
			<g id="path354_1_">
				<path class="st1w" d="M-107.7-250.3c0.1,0.3,0.2,0.5,0.3,0.8c-2.3,0.8-4.6,1.7-6.9,2.5c13.7,14.9,27.1,30,40.2,45.2
					c-0.9-19.6-1.9-39.1-2.9-58.7c-2.2,0.8-4.3,1.5-6.5,2.3c-0.1-0.3-0.2-0.5-0.3-0.8c6.6-2.3,13.2-4.6,19.8-6.9
					c0.1,0.3,0.2,0.5,0.3,0.8c-2,0.7-4.1,1.4-6.1,2.1c10,20.6,19.6,41.3,29,62.1c2-0.7,3.9-1.3,5.9-2c0.1,0.3,0.2,0.5,0.3,0.8
					c-6.5,2.2-12.9,4.4-19.3,6.6c-0.1-0.3-0.2-0.5-0.3-0.8c2-0.7,4-1.4,6-2.1c-8.7-19.4-17.6-38.8-26.8-58.1c1,22.5,2,44.9,3,67.4
					c-0.1,0-0.3,0.1-0.4,0.1c-15-17.6-30.5-35-46.3-52.2c7.5,20.1,14.7,40.2,21.8,60.4c2-0.8,4-1.5,6.1-2.3c0.1,0.3,0.2,0.5,0.3,0.8
					c-4.7,1.8-9.5,3.5-14.2,5.3c-0.1-0.3-0.2-0.5-0.3-0.8c2.1-0.8,4.2-1.6,6.3-2.4c-7.5-21.4-15.1-42.7-23.1-64
					c-2.3,0.9-4.7,1.8-7,2.7c-0.1-0.3-0.2-0.5-0.3-0.8C-122-245-114.8-247.7-107.7-250.3"/>
			</g>
		</g>
		<g id="g356_1_" transform="translate(596.4899,554.9936)">
			<g id="path358_1_">
				<path class="st1w" d="M-104.8-176.7l-0.5-1.2l0.2-0.1c2-0.8,4.1-1.5,6.1-2.3c-7.4-21.1-15.1-42.5-22.9-63.5
					c-2.3,0.9-4.5,1.7-6.8,2.6l-0.2,0.1l-0.5-1.2l0.2-0.1c7.1-2.7,14.3-5.4,21.4-8l0.2-0.1l0.5,1.2l-0.2,0.1
					c-2.2,0.8-4.3,1.6-6.5,2.4c13.3,14.6,26.6,29.5,39.5,44.4c-0.9-19.1-1.9-38.5-2.9-57.6c-2.1,0.7-4.1,1.5-6.2,2.2l-0.2,0.1
					l-0.5-1.2l0.2-0.1c6.6-2.3,13.2-4.7,19.8-6.9l0.2-0.1l0.5,1.2l-0.3,0.1c-2,0.7-3.9,1.3-5.8,2c9.8,20.4,19.5,41.1,28.8,61.6
					c1.9-0.6,3.8-1.3,5.7-1.9l0.2-0.1l0.5,1.2l-0.2,0.1c-6.5,2.2-13,4.4-19.3,6.6l-0.2,0.1l-0.5-1.2l0.2-0.1c1.9-0.7,3.9-1.3,5.8-2
					c-8.4-18.9-17.2-38-26.1-56.8c1,22.3,2,44.5,2.9,66.2l0,0.2l-0.7,0.3l-0.1-0.1c-14.7-17.2-30-34.5-45.4-51.3
					c7.3,19.5,14.4,39.3,21.3,58.9c1.9-0.7,3.9-1.5,5.8-2.2l0.2-0.1l0.5,1.2l-0.2,0.1c-4.7,1.7-9.4,3.5-14.2,5.3L-104.8-176.7z
					 M-104.7-177.6l0.1,0.3c4.6-1.8,9.2-3.5,13.7-5.2l-0.1-0.3c-1.9,0.7-3.9,1.4-5.8,2.2l-0.2,0.1l-0.1-0.2
					c-7-20.1-14.3-40.4-21.8-60.4l0.4-0.3c15.7,17.1,31.2,34.6,46.2,52.1l0.1,0c-0.9-22-1.9-44.6-3-67.2l0.5-0.1
					c9.1,19.3,18.2,38.8,26.8,58.1l0.1,0.2l-0.3,0.1c-1.9,0.7-3.9,1.3-5.8,2l0.1,0.3c6.2-2.2,12.5-4.3,18.8-6.5l-0.1-0.3
					c-1.9,0.6-3.8,1.3-5.6,1.9l-0.2,0.1l-0.1-0.2c-9.3-20.7-19.1-41.5-29-62.1l-0.1-0.3l0.3-0.1c2-0.7,3.9-1.4,5.9-2l-0.1-0.3
					c-6.4,2.2-12.9,4.5-19.3,6.7l0.1,0.3c2.1-0.7,4.2-1.5,6.3-2.2l0.3-0.1l0,0.3c1,19.5,2,39.2,2.9,58.7l0,0.7l-0.5-0.5
					c-13.1-15.2-26.6-30.4-40.2-45.2l-0.3-0.3l0.3-0.1c2.2-0.8,4.4-1.6,6.6-2.4l-0.1-0.3c-6.9,2.6-14,5.2-21,7.9l0.1,0.3
					c2.3-0.9,4.5-1.7,6.8-2.6l0.2-0.1l0.1,0.2c7.9,21.2,15.7,42.7,23.1,64l0.1,0.2l-0.2,0.1C-100.6-179.1-102.7-178.4-104.7-177.6z"
					/>
			</g>
		</g>
		<g id="g360_1_" transform="translate(658.44,545.0347)">
			<g id="path362_1_">
				<path class="st1w" d="M-87-227.1c7.2-2.4,14.4-4.7,21.7-7c-7.8-10.1-15.8-20.1-23.8-30C-88.4-251.7-87.7-239.4-87-227.1
					 M-38.8-211.5c1.9-0.6,3.9-1.2,5.8-1.7c0.1,0.2,0.2,0.5,0.2,0.7c-6.5,1.9-13,3.9-19.4,5.9c-0.1-0.2-0.2-0.5-0.2-0.7
					c2-0.6,4-1.3,6.1-1.9c-5.6-7.5-11.3-15-17-22.4c-7.9,2.5-15.7,5-23.5,7.5c0.5,9.1,1.1,18.2,1.6,27.3c1.9-0.6,3.9-1.3,5.8-1.9
					c0.1,0.2,0.2,0.5,0.3,0.7c-4.7,1.5-9.4,3.1-14.2,4.7c-0.1-0.2-0.2-0.5-0.3-0.7c2-0.7,4-1.3,6-2c-1.2-23.5-2.5-47.1-3.8-70.6
					c-2.4,0.8-4.8,1.6-7.2,2.4c-0.1-0.3-0.2-0.5-0.3-0.8c7.4-2.4,14.9-4.8,22.3-7.2c0.1,0.3,0.2,0.5,0.3,0.8
					c-2.4,0.8-4.8,1.5-7.2,2.3C-68.3-250-53.3-230.8-38.8-211.5"/>
			</g>
		</g>
		<g id="g364_1_" transform="translate(658.44,545.0347)">
			<g id="path366_1_">
				<path class="st1w" d="M-93.6-192.9L-94-194l0.2-0.1c1.9-0.6,3.9-1.3,5.8-1.9c-1.2-23.2-2.5-46.8-3.8-70.1
					c-2.3,0.8-4.6,1.5-6.9,2.3l-0.2,0.1l-0.5-1.2l0.3-0.1c7.4-2.4,14.9-4.8,22.3-7.2l0.2-0.1l0.5,1.3l-0.3,0.1
					c-2.3,0.7-4.6,1.4-6.8,2.2c15.1,18.7,30.1,38,44.6,57.1c1.9-0.6,3.7-1.1,5.6-1.7l0.2-0.1l0.4,1.2l-0.3,0.1
					c-6.5,2-13.1,4-19.4,5.9l-0.2,0.1l-0.4-1.2l0.2-0.1c1.9-0.6,3.8-1.2,5.7-1.8c-5.5-7.3-11.1-14.7-16.7-22
					c-7.7,2.4-15.5,4.9-23.2,7.4c0.5,8.9,1,17.9,1.5,26.8c1.8-0.6,3.7-1.2,5.5-1.8l0.2-0.1l0.4,1.2l-0.2,0.1
					c-4.8,1.6-9.5,3.1-14.2,4.7L-93.6-192.9z M-93.4-193.7l0.1,0.2c4.5-1.5,9.1-3,13.7-4.5l-0.1-0.2c-1.9,0.6-3.7,1.2-5.6,1.8
					l-0.3,0.1l0-0.3c-0.5-9.1-1-18.2-1.6-27.3l0-0.2l0.2-0.1c7.8-2.5,15.7-5.1,23.5-7.5l0.2-0.1l0.1,0.1
					c5.7,7.4,11.4,14.9,17.1,22.4l0.2,0.3l-0.3,0.1c-1.9,0.6-3.9,1.2-5.8,1.8l0.1,0.2c6.2-1.9,12.5-3.9,18.9-5.8l-0.1-0.2
					c-1.9,0.6-3.7,1.1-5.6,1.7l-0.2,0.1l-0.1-0.1c-14.5-19.3-29.6-38.7-44.9-57.6l-0.2-0.3l0.3-0.1c2.3-0.7,4.6-1.5,6.9-2.2
					l-0.1-0.3c-7.3,2.3-14.6,4.7-21.8,7l0.1,0.3c2.3-0.8,4.7-1.5,7-2.3l0.3-0.1l0,0.3c1.3,23.5,2.6,47.2,3.8,70.6l0,0.2l-0.2,0.1
					C-89.6-195-91.5-194.4-93.4-193.7z M-87.3-226.7l0-0.3c-0.7-12.4-1.4-24.8-2.2-37l0-0.8l0.5,0.6c8,9.9,16,20,23.8,30l0.2,0.3
					l-0.3,0.1c-7.2,2.3-14.5,4.6-21.7,7L-87.3-226.7z M-88.9-263.3c0.7,11.8,1.4,23.9,2.1,35.9c6.9-2.3,14-4.5,21-6.7
					C-73.3-243.9-81.1-253.6-88.9-263.3z"/>
			</g>
		</g>
		<g id="g368_1_" transform="translate(694.2449,587.362)">
			<g id="path370_1_">
				<path class="st1w" d="M-75.1-325.8c16.8,13.7,33.3,27.7,49.4,41.8c-5.6-16.7-11.4-33.4-17.3-50.1c-2.2,0.6-4.4,1.2-6.7,1.9
					c-0.1-0.3-0.2-0.5-0.3-0.8c4.8-1.4,9.7-2.7,14.6-4c0.1,0.3,0.2,0.5,0.3,0.8c-2,0.5-3.9,1.1-5.9,1.6
					c7.8,22.1,15.4,44.3,22.7,66.4c-0.1,0-0.2,0.1-0.3,0.1c-19.8-17.7-40.2-35.1-61-52.2c7.6,20.4,14.9,40.9,22,61.4
					c2-0.6,4.1-1.2,6.1-1.8c0.1,0.3,0.2,0.5,0.3,0.8c-4.8,1.4-9.5,2.8-14.2,4.2c-0.1-0.3-0.2-0.5-0.3-0.8c2.1-0.6,4.1-1.2,6.2-1.8
					c-7.4-21.5-15.2-42.9-23.1-64.3c-2.1,0.6-4.3,1.3-6.4,1.9c-0.1-0.3-0.2-0.5-0.3-0.8C-84.6-323-79.9-324.4-75.1-325.8"/>
			</g>
		</g>
		<g id="g372_1_" transform="translate(694.2449,587.362)">
			<g id="path374_1_">
				<path class="st1w" d="M-65.7-255.4l-0.4-1.3l0.3-0.1c2-0.6,4-1.2,6-1.8c-7.4-21.2-15.1-42.7-23-63.8c-2.1,0.6-4.1,1.2-6.1,1.8
					l-0.2,0.1l-0.5-1.3l0.3-0.1c4.7-1.4,9.5-2.9,14.3-4.3l0.1,0l0.1,0.1c16.4,13.4,32.8,27.3,48.7,41.2c-5.5-16.3-11.2-32.7-16.9-49
					c-2.1,0.6-4.3,1.2-6.4,1.8l-0.2,0.1l-0.5-1.3l0.3-0.1c4.9-1.4,9.8-2.7,14.6-4l0.2-0.1l0.4,1.3l-0.3,0.1c-1.9,0.5-3.8,1-5.7,1.6
					c7.8,21.9,15.4,44.1,22.6,66.2l0.1,0.2l-0.7,0.2l-0.1-0.1c-19.6-17.4-39.8-34.8-60.3-51.6c7.4,20,14.7,40.2,21.6,60.3
					c2-0.6,3.9-1.2,5.9-1.7l0.2-0.1l0.4,1.3l-0.3,0.1c-4.7,1.4-9.5,2.8-14.2,4.2L-65.7-255.4z M-65.5-256.4l0.1,0.3
					c4.6-1.4,9.2-2.7,13.8-4.1l-0.1-0.3c-2,0.6-3.9,1.1-5.9,1.7l-0.2,0.1l-0.1-0.2c-7.1-20.4-14.5-41.1-22-61.4l-0.3-0.9l0.7,0.6
					c20.6,16.9,41.1,34.4,60.8,52c-7.2-22-14.8-44.3-22.6-66.1l-0.1-0.3l0.3-0.1c1.9-0.5,3.8-1,5.7-1.6l-0.1-0.3
					c-4.6,1.2-9.3,2.6-14.1,3.9l0.1,0.3c2.1-0.6,4.3-1.2,6.4-1.8l0.2-0.1l0.1,0.2c5.9,16.6,11.7,33.5,17.3,50.1l0.3,0.9l-0.7-0.6
					c-16.1-14.1-32.7-28.1-49.3-41.7c-4.6,1.4-9.3,2.8-13.9,4.1l0.1,0.3c2-0.6,4.1-1.2,6.2-1.8l0.2-0.1l0.1,0.2
					c7.9,21.3,15.7,42.9,23.1,64.3l0.1,0.2l-0.3,0.1C-61.5-257.6-63.5-257-65.5-256.4z"/>
			</g>
		</g>
		<g id="g376_1_" transform="translate(761.3055,590.4553)">
			<g id="path378_1_">
				<path class="st1w" d="M-52.7-333.1c-1.4,0.3-2.7,0.7-4.1,1c-2.6-6.6-4.8-10.1-7.5-12.4c-3.5-2.9-8.4-3.7-13.7-2.4
					c-9.2,2.4-12.7,9.4-9.6,18.6c2.1,6.3,5.8,9.6,11.6,10.8c3.4,0.7,3.7,0.8,12.9,0.7c12,0,18.3,4.1,21.3,13.7
					c3.5,11.2-2.1,20.8-13.8,23.8c-2.2,0.6-4.4,0.9-7,1c-1.7,0.1-1.9,0.2-5.3,1c-0.1,0-0.3,0.1-0.4,0.1c-1.7,0.5-3.3,1-5,1.4
					c-1.6-5-3.2-10-4.9-15c0.3-0.1,0.6-0.2,0.9-0.2c0.6,1.8,1.2,3.7,1.8,5.5c5.9,5.3,12.8,7.1,19.5,5.4c8.5-2.2,12.1-9.3,9.2-18.6
					c-2.6-8.1-6.8-10.8-17.5-10.8c-10.5-0.1-12.4-0.2-15.8-1.4c-4.6-1.6-8.5-5.9-10.4-11.6c-3.9-11.3,1.4-22.6,12.2-25.4
					c8.7-2.3,16.1,0.3,22.3,7.7c-1.2-3.8-2.5-7.5-3.8-11.3c0.3-0.1,0.6-0.1,0.9-0.2C-56.8-345.3-54.7-339.2-52.7-333.1"/>
			</g>
		</g>
		<g id="g380_1_" transform="translate(761.3055,590.4553)">
			<g id="path382_1_">
				<path class="st1w" d="M-73.3-275.3l-0.1-0.2c-1.6-5-3.2-10-4.9-15l-0.1-0.3l1.3-0.4l0.1,0.2c0.6,1.8,1.2,3.6,1.8,5.4
					c5.8,5.1,12.6,7,19.2,5.3c3.9-1,6.8-3.1,8.5-6.1c1.8-3.3,2-7.5,0.6-12.2c-2.5-8-6.7-10.6-17.2-10.7c-10.7-0.1-12.4-0.3-15.9-1.4
					c-4.7-1.7-8.7-6-10.6-11.7c-2-5.9-1.7-11.9,1-16.8c2.4-4.4,6.4-7.6,11.4-8.9c8.4-2.2,15.7,0.1,21.7,6.8
					c-1.1-3.4-2.2-6.7-3.4-10.1l-0.1-0.3l1.4-0.3l0.1,0.2c2,6.1,4.1,12.3,6.1,18.4l0.1,0.3l-0.3,0.1c-1.4,0.3-2.7,0.7-4.1,1
					l-0.2,0.1l-0.1-0.2c-2.6-6.5-4.7-10-7.4-12.3c-3.4-2.8-8.2-3.7-13.4-2.3c-4.3,1.1-7.5,3.4-9.1,6.4c-1.7,3.2-1.8,7.3-0.3,11.8
					c2.1,6.2,5.7,9.5,11.5,10.7c3.4,0.7,3.6,0.8,12.9,0.7c0,0,0.1,0,0.1,0c12,0,18.4,4.2,21.4,13.9c1.7,5.5,1.3,10.6-1.1,14.9
					c-2.5,4.5-7,7.7-12.9,9.2c-2.3,0.6-4.5,0.9-7,1.1c-1.7,0.1-1.9,0.2-5.2,1l-0.4,0.1c-1.7,0.5-3.3,1-5,1.4L-73.3-275.3z
					 M-77.7-290.4c1.6,4.8,3.2,9.7,4.7,14.5c1.6-0.5,3.2-0.9,4.8-1.4l0.4-0.1c3.3-0.9,3.6-0.9,5.3-1.1c2.5-0.1,4.7-0.5,7-1
					c5.8-1.5,10.2-4.6,12.6-8.9c2.3-4.2,2.7-9.2,1-14.5c-3-9.5-9.2-13.5-21-13.5c0,0,0,0-0.1,0c-9.1,0.1-9.4,0.1-13-0.7
					c-5.9-1.2-9.7-4.7-11.8-11c-1.6-4.7-1.5-8.9,0.3-12.2c1.7-3.2,5-5.5,9.5-6.7c5.4-1.4,10.3-0.5,13.9,2.4
					c2.8,2.4,4.9,5.9,7.5,12.3c1.2-0.3,2.4-0.6,3.6-0.9c-1.9-6-3.9-12-5.9-17.9l-0.4,0.1c1.2,3.7,2.5,7.4,3.7,11.1l-0.4,0.2
					c-6.1-7.3-13.5-9.8-22-7.6c-4.9,1.3-8.8,4.3-11.1,8.6c-2.6,4.8-2.9,10.7-1,16.4c1.9,5.5,5.7,9.8,10.3,11.4
					c3.4,1.1,5.2,1.3,15.8,1.4c10.8,0.1,15.1,2.8,17.7,11c1.5,4.8,1.3,9.2-0.6,12.6c-1.7,3.1-4.8,5.3-8.8,6.3
					c-6.8,1.7-13.8-0.2-19.7-5.5l-0.1,0l0-0.1c-0.6-1.8-1.1-3.5-1.7-5.3L-77.7-290.4z"/>
			</g>
		</g>
		<g id="g384_1_" transform="translate(728.739,596.9349)">
			<g id="path386_1_">
				<path class="st1w" d="M-63.6-348.2c0,0,14.2-5.5,6-31.8l0,0C-75.4-359.3-63.6-348.2-63.6-348.2"/>
			</g>
		</g>
		<g id="g388_1_" transform="translate(728.739,596.9349)">
			<g id="path390_1_">
				<path class="st1w" d="M-63.6-348C-63.6-348-63.6-348.1-63.6-348c-0.1-0.1-3.1-2.9-3.8-8.2c-1.2-8.9,4.6-17.8,9.7-23.7
					c0,0,0,0,0-0.1c0,0,0.1,0,0.1,0c0,0,0.1,0,0.1,0.1c0,0,0,0,0,0.1c2.3,7.5,4.2,18.1,0,25.8C-59.9-349.5-63.5-348.1-63.6-348
					C-63.6-348-63.6-348-63.6-348z M-57.6-379.7c-5,5.9-10.7,14.6-9.6,23.3c0.7,4.8,3.2,7.6,3.6,8c0.5-0.2,3.7-1.8,5.9-6
					C-53.5-361.9-55.3-372.2-57.6-379.7z"/>
			</g>
		</g>
	</g>
</g>
</svg>
