<?xml version="1.0" encoding="utf-8"?>
<!-- Generator: Adobe Illustrator 19.0.1, SVG Export Plug-In . SVG Version: 6.00 Build 0)  -->
<svg version="1.1" id="Layer_1" xmlns="http://www.w3.org/2000/svg" xmlns:xlink="http://www.w3.org/1999/xlink" x="0px" y="0px"
	 viewBox="0 0 69.5 55" style="enable-background:new 0 0 69.5 55;" xml:space="preserve">
<style type="text/css">
	.st0{fill:none;stroke:#FFFFFF;stroke-width:0.5;stroke-miterlimit:10;}
</style>
<g>
	<g>
		<g>
			<g>
				<path class="st0" d="M67.4,15.2c0,0-0.7-4.6-2.7-6.7c-2.6-2.7-5.4-2.7-6.7-2.8C48.7,5,34.6,5,34.6,5h0c0,0-14.1,0-23.5,0.7
					C9.7,5.8,6.9,5.8,4.3,8.5c-2,2-2.7,6.7-2.7,6.7S1,20.6,1,26v5.1C1,36.6,1.7,42,1.7,42s0.7,4.6,2.7,6.7c2.6,2.7,5.9,2.6,7.4,2.9
					c5.4,0.5,22.8,0.7,22.8,0.7s14.1,0,23.5-0.7c1.3-0.2,4.2-0.2,6.7-2.8c2-2,2.7-6.7,2.7-6.7s0.7-5.4,0.7-10.9V26
					C68.1,20.6,67.4,15.2,67.4,15.2z M27.6,37.3V18.4l18.1,9.5L27.6,37.3z"/>
			</g>
		</g>
	</g>
</g>
</svg>
